<svg width="111" height="55" viewBox="0 0 111 55" fill="none" xmlns="http://www.w3.org/2000/svg">
<path fill-rule="evenodd" clip-rule="evenodd" d="M46.8395 5.47037C42.306 8.49169 36.181 12.5677 33.2284 14.5283C30.2758 16.489 24.9688 20.0132 21.435 22.36C17.9011 24.7069 13.2599 27.7876 11.121 29.2062C8.9821 30.6247 5.63428 32.8479 3.68139 34.1465C1.7285 35.4451 0.0750518 36.5608 0.00708098 36.626C-0.0608898 36.6911 0.368239 36.5346 0.960701 36.2783C1.55316 36.022 2.46477 35.6388 2.98647 35.427C3.50817 35.2151 4.56687 34.7991 5.33915 34.5024C6.11152 34.2059 7.3289 33.7577 8.04446 33.5066C8.76009 33.2555 9.80214 32.8954 10.3601 32.7063C10.9181 32.5172 11.7741 32.241 12.2623 32.0925C12.7505 31.9441 13.3061 31.772 13.497 31.7103C13.6879 31.6486 14.8482 31.3127 16.0755 30.9638C17.3028 30.6149 18.9917 30.159 19.8287 29.9506C20.6656 29.7423 21.9401 29.4367 22.6608 29.2716C23.3815 29.1065 24.4277 28.8743 24.9857 28.7556C25.5436 28.6368 26.6849 28.4087 27.5219 28.2488C28.3588 28.0887 29.8616 27.8229 30.8612 27.6579C31.8609 27.4929 33.1925 27.2832 33.8202 27.192C34.4479 27.1007 35.7033 26.9321 36.61 26.8175C37.5167 26.7028 39.2667 26.5129 40.4989 26.3955C41.7311 26.278 43.2909 26.1433 43.9651 26.0959C44.6393 26.0485 46.2181 25.9532 47.4735 25.8839C48.7289 25.8147 51.392 25.7334 53.3914 25.7032C55.6388 25.6693 58.124 25.686 59.901 25.747C61.4819 25.8014 63.6326 25.9007 64.6804 25.9679C65.7282 26.0349 67.25 26.1473 68.0621 26.2174C68.8742 26.2875 70.1283 26.4038 70.849 26.4757C71.5697 26.5477 72.7681 26.683 73.5121 26.7764C74.256 26.8698 75.5305 27.0409 76.3442 27.1564C77.1579 27.272 78.7367 27.5186 79.8526 27.7045C80.9686 27.8903 82.6425 28.1959 83.5724 28.3836C84.5024 28.5713 86.0431 28.8957 86.9963 29.1046C87.9495 29.3134 89.4142 29.6554 90.2511 29.8645C91.0881 30.0736 92.3435 30.3976 93.041 30.5846C93.7384 30.7715 94.7656 31.0587 95.3236 31.2228C95.8815 31.3869 96.9468 31.7115 97.6907 31.944C98.4347 32.1765 99.595 32.5496 100.269 32.7731C100.943 32.9965 102.18 33.4272 103.017 33.7302C103.854 34.0332 105.272 34.5687 106.169 34.9201C107.066 35.2716 108.391 35.8109 109.113 36.1185C109.834 36.4262 110.44 36.6629 110.458 36.6447C110.476 36.6264 109.798 36.1513 108.952 35.5889C108.105 35.0264 103.704 32.1021 99.1702 29.0905C94.6367 26.0788 89.4057 22.6065 87.5458 21.3743C85.6859 20.1422 80.4169 16.6419 75.8369 13.596C71.2569 10.5501 65.7026 6.86005 63.494 5.39589C61.2854 3.93182 58.5653 2.12391 57.4493 1.37843C56.3334 0.63295 55.3443 0.0126741 55.2513 7.7558e-05C55.1442 -0.0143789 52.0577 1.99279 46.8395 5.47037ZM57.4348 3.49914C57.7334 3.95253 58.2014 4.74188 58.4749 5.25336C58.7484 5.76483 59.1299 6.52569 59.3226 6.94417C59.5153 7.36265 59.8497 8.19427 60.0657 8.79232C60.2816 9.39036 60.5672 10.3034 60.7002 10.8213C60.8333 11.3392 61.024 12.2385 61.124 12.8198C61.224 13.401 61.3278 14.4472 61.3548 15.1446C61.3848 15.9209 61.3643 16.757 61.302 17.3004C61.246 17.7886 61.1415 18.4544 61.0695 18.7799C60.9977 19.1054 60.8227 19.676 60.6806 20.048C60.5385 20.42 60.2716 20.9716 60.0874 21.2738C59.9032 21.5761 59.6169 21.9755 59.4512 22.1615C59.2855 22.3475 58.9384 22.6653 58.6801 22.8678C58.4216 23.0702 58.077 23.3036 57.9143 23.3863C57.7516 23.4691 57.4282 23.6011 57.1957 23.6797C56.9632 23.7584 56.4885 23.8547 56.1409 23.8937C55.7932 23.9328 55.1978 23.9327 54.8177 23.8935C54.4376 23.8543 53.847 23.739 53.5053 23.6374C53.1637 23.5359 52.5287 23.2868 52.0943 23.084C51.6601 22.8813 51.0133 22.5186 50.6571 22.2783C50.3011 22.0378 49.7624 21.6417 49.4602 21.3979C49.158 21.154 48.6049 20.6554 48.2312 20.2899C47.8573 19.9244 47.263 19.2777 46.9103 18.8529C46.5576 18.4281 46.1468 17.8955 45.9975 17.6694L45.7259 17.2581L46.2106 17.8077C46.4772 18.1099 47.0881 18.7408 47.5681 19.2097C48.0481 19.6786 48.7483 20.2873 49.124 20.5623C49.4998 20.8374 50.1498 21.2589 50.5686 21.4989C50.9874 21.7389 51.7178 22.0707 52.1916 22.2361C52.6655 22.4015 53.2789 22.5761 53.5549 22.6239C53.8307 22.6719 54.3478 22.711 54.7038 22.711C55.067 22.711 55.6316 22.6392 55.9905 22.5474C56.3422 22.4575 56.8166 22.2893 57.0446 22.1738C57.2727 22.0582 57.6498 21.813 57.8828 21.629C58.1157 21.4449 58.4985 21.0519 58.7335 20.7557C58.9686 20.4594 59.2997 19.9405 59.4694 19.6025C59.6392 19.2645 59.8707 18.6938 59.9841 18.3343C60.0975 17.975 60.2568 17.3194 60.3383 16.8777C60.4466 16.29 60.4852 15.6552 60.4818 14.5106L60.4772 12.9466L60.2461 11.5994C60.1189 10.8584 59.8836 9.79319 59.723 9.23227C59.5625 8.67125 59.3315 7.94598 59.2099 7.6205C59.0882 7.29502 58.8564 6.70534 58.6948 6.31012C58.5331 5.91489 58.2186 5.22791 57.9959 4.78348C57.7731 4.33905 57.4754 3.77956 57.3343 3.54022C57.1932 3.30089 57.0143 3.00821 56.9367 2.88994C56.8592 2.77166 56.8175 2.67486 56.8438 2.67486C56.8703 2.67486 57.1362 3.04574 57.4348 3.49914ZM57.3436 8.69019C57.425 8.7864 57.4916 8.94753 57.4916 9.04822C57.4916 9.14899 57.4323 9.31596 57.36 9.41927C57.2624 9.55868 57.1435 9.6072 56.8998 9.6072C56.6561 9.6072 56.5372 9.55868 56.4396 9.41927C56.3673 9.31596 56.308 9.14308 56.308 9.03503C56.308 8.92699 56.4051 8.74159 56.5236 8.62307C56.6901 8.45652 56.7912 8.41974 56.9674 8.46142C57.093 8.4911 57.2623 8.59407 57.3436 8.69019ZM49.917 10.4526L49.8587 11.298H50.5049H51.151V11.5094V11.7207H50.5292H49.9074L49.8535 12.2914C49.8238 12.6052 49.7996 13.4897 49.7995 14.2569C49.7994 15.0242 49.8384 15.7928 49.8863 15.9651C49.9341 16.1373 50.0753 16.3585 50.1999 16.4564C50.3738 16.5932 50.5242 16.6295 50.8465 16.6124C51.1146 16.5981 51.2787 16.6266 51.3002 16.6911C51.3187 16.7467 51.2332 16.8304 51.1101 16.8772C50.9871 16.924 50.6473 16.9623 50.3549 16.9623C49.943 16.9623 49.7587 16.9191 49.5361 16.7703C49.3781 16.6648 49.1792 16.446 49.094 16.2842L48.9391 15.99L48.991 13.8554L49.0428 11.7207H48.6175H48.1921V11.5094V11.298L48.5937 11.2982L48.9952 11.2983V10.612V9.92567L49.3757 9.77113C49.5849 9.68617 49.8054 9.61456 49.8657 9.61194C49.9521 9.60822 49.9629 9.78567 49.917 10.4526ZM54.6388 11.1841L55.1364 11.3236L55.0835 11.534C55.0545 11.6497 54.9829 11.8616 54.9244 12.0049L54.8181 12.2656L54.658 11.9946C54.5699 11.8454 54.3763 11.6658 54.2277 11.5953C54.0792 11.5248 53.8378 11.4671 53.6914 11.4671C53.5451 11.4671 53.3137 11.5248 53.1772 11.5953C53.0409 11.6659 52.8715 11.8352 52.801 11.9716C52.7305 12.108 52.6728 12.3517 52.6728 12.5132C52.6728 12.7004 52.7469 12.8948 52.8774 13.0499C53.0182 13.2173 53.3012 13.3683 53.7862 13.5345C54.1734 13.6674 54.6345 13.8477 54.8107 13.9354C54.9869 14.023 55.2055 14.2168 55.2965 14.366C55.4055 14.5448 55.4621 14.7899 55.4623 15.0846C55.4625 15.3593 55.4004 15.6528 55.3013 15.8455C55.2125 16.0179 55.0318 16.2615 54.8997 16.3866C54.7676 16.5117 54.4883 16.6916 54.279 16.7863C54.0134 16.9065 53.7181 16.9591 53.3007 16.9604C52.9704 16.9614 52.5259 16.902 52.3075 16.8275C52.09 16.7534 51.895 16.6652 51.8741 16.6314C51.8533 16.5976 51.8824 16.4135 51.9389 16.2223C51.9953 16.031 52.0679 15.8481 52.1001 15.816C52.1322 15.7838 52.2548 15.8718 52.3724 16.0116C52.49 16.1513 52.7161 16.3274 52.8748 16.4027C53.0335 16.4779 53.3419 16.5395 53.5602 16.5395C53.7785 16.5395 54.0624 16.4773 54.1911 16.4012C54.3199 16.3252 54.4874 16.1577 54.5634 16.0289C54.6395 15.9002 54.7017 15.6586 54.7017 15.4922C54.7017 15.2806 54.6318 15.1123 54.4693 14.9329C54.3039 14.7504 53.9941 14.5912 53.3963 14.3816C52.934 14.2195 52.4644 14.0015 52.3526 13.8971C52.2408 13.7928 52.096 13.6047 52.0307 13.4792C51.9653 13.3535 51.9119 13.0457 51.9119 12.795C51.9119 12.4829 51.9729 12.2237 52.1054 11.9732C52.2118 11.772 52.3947 11.5357 52.5119 11.4482C52.629 11.3608 52.8748 11.2359 53.0581 11.1705C53.2414 11.1053 53.56 11.0501 53.7662 11.0481C53.9724 11.0461 54.365 11.1072 54.6388 11.1841ZM57.3648 14.0033V16.8354H56.8998H56.4348V14.0033V11.1712H56.8998H57.3648V14.0033ZM102.045 35.4767C102.045 35.5232 102.159 35.5612 102.298 35.5612H102.552V36.2023C102.552 36.6421 102.582 36.8334 102.648 36.8115C102.705 36.7923 102.747 36.5459 102.753 36.1916L102.763 35.6035L102.996 35.5768C103.124 35.5621 103.228 35.5145 103.228 35.4711C103.228 35.4276 102.962 35.3921 102.636 35.3921C102.298 35.3921 102.045 35.4284 102.045 35.4767ZM103.397 36.1107C103.397 36.5334 103.432 36.8293 103.482 36.8293C103.529 36.8293 103.569 36.5935 103.571 36.3009L103.576 35.7726L103.762 36.2735C103.863 36.5489 103.992 36.789 104.046 36.8069C104.105 36.8261 104.209 36.6382 104.3 36.3483L104.454 35.8571L104.496 36.3221C104.52 36.5778 104.577 36.7871 104.623 36.7871C104.671 36.7871 104.718 36.4819 104.732 36.0896L104.757 35.3921H104.591C104.466 35.3921 104.39 35.5005 104.281 35.836C104.202 36.0801 104.11 36.3096 104.077 36.3459C104.044 36.3823 103.948 36.1826 103.863 35.9021C103.747 35.519 103.67 35.3921 103.553 35.3921H103.397V36.1107ZM42.4782 36.1502C42.2416 36.1862 41.8111 36.3221 41.5215 36.4521C41.1437 36.6216 40.8659 36.8309 40.5387 37.1924C40.2578 37.5029 40.0245 37.8628 39.9315 38.1295L39.7803 38.5624V40.8027V43.0431L40.019 43.5596C40.1524 43.8483 40.4322 44.2469 40.6531 44.463C40.8705 44.6757 41.2386 44.944 41.4711 45.0592C41.7036 45.1744 42.1333 45.3153 42.426 45.3723C42.84 45.453 43.0924 45.4538 43.5618 45.3763C43.8937 45.3215 44.358 45.1805 44.5935 45.0631C44.8291 44.9457 45.1867 44.6904 45.3882 44.4958C45.5898 44.3013 45.8445 43.9667 45.9544 43.7523C46.0642 43.5378 46.1983 43.1087 46.2523 42.7986C46.3148 42.4398 46.3386 41.5516 46.3179 40.3563L46.2854 38.4779L46.0628 37.9981C45.9403 37.7343 45.6765 37.3409 45.4767 37.124C45.2767 36.9071 44.9404 36.6432 44.7293 36.5374C44.5182 36.4316 44.2123 36.3046 44.0496 36.255C43.8869 36.2053 43.5635 36.1467 43.331 36.1247C43.0985 36.1027 42.7148 36.1142 42.4782 36.1502ZM74.2729 36.1252C74.1334 36.1466 73.791 36.2457 73.5121 36.3453C73.125 36.4837 72.8715 36.6576 72.4418 37.0796L71.8787 37.6325L71.6923 38.2243L71.5059 38.816L71.5132 40.6638C71.5172 41.7016 71.5638 42.7324 71.6195 43.0154C71.6808 43.3272 71.8398 43.7068 72.0367 44.0113C72.2116 44.2819 72.5251 44.6206 72.7335 44.764C72.9419 44.9074 73.3164 45.1082 73.5658 45.2104C73.9236 45.357 74.1888 45.3962 74.8224 45.396C75.4503 45.3958 75.7308 45.3548 76.1076 45.2083C76.3728 45.1051 76.7805 44.849 77.0138 44.6393C77.2734 44.406 77.5383 44.0541 77.6965 43.7329C77.8386 43.4442 77.9779 43.0662 78.006 42.893L78.0571 42.5781H77.3341H76.6112L76.5566 42.8268C76.5265 42.9636 76.3938 43.2249 76.2616 43.4074C76.1285 43.5912 75.8505 43.8219 75.6389 43.9243C75.4085 44.0358 75.0899 44.1107 74.8373 44.1127C74.5955 44.1145 74.2623 44.0456 74.0497 43.9498C73.847 43.8584 73.5745 43.6699 73.4441 43.5308C73.3124 43.3903 73.1532 43.0756 73.0858 42.8223C73.0014 42.5049 72.9642 41.8882 72.9636 40.788C72.963 39.873 73.0044 39.028 73.0621 38.7778C73.1228 38.5152 73.272 38.2174 73.4435 38.0171C73.6038 37.8299 73.8875 37.626 74.1018 37.5442C74.3606 37.4454 74.6359 37.4117 74.9818 37.4368C75.357 37.4639 75.5728 37.534 75.8299 37.7121C76.0665 37.8761 76.2477 38.1054 76.4074 38.4427L76.6401 38.9344L77.3486 38.9386L78.0571 38.9428L78.0068 38.6328C77.9791 38.4624 77.8541 38.1135 77.7288 37.8575C77.6036 37.6016 77.3703 37.2473 77.2104 37.0704C77.0504 36.8933 76.7942 36.671 76.6409 36.5762C76.4876 36.4814 76.1833 36.3502 75.9648 36.2844C75.7462 36.2186 75.3332 36.1471 75.047 36.1255C74.7607 36.104 74.4124 36.1039 74.2729 36.1252ZM81.7993 36.1609C81.5215 36.2024 81.0963 36.3331 80.8543 36.4514C80.6017 36.575 80.2181 36.8787 79.9532 37.1648C79.6906 37.4485 79.4266 37.8382 79.3399 38.0704L79.1877 38.4779L79.1538 40.4636C79.1314 41.7791 79.1536 42.6202 79.2195 42.9555C79.2743 43.2339 79.3876 43.596 79.4714 43.7602C79.5552 43.9244 79.8369 44.2603 80.0974 44.5067C80.3579 44.7531 80.7328 45.0255 80.9304 45.112C81.1281 45.1986 81.5293 45.3159 81.822 45.3727C82.233 45.4525 82.4897 45.4536 82.9487 45.3778C83.2757 45.3238 83.7339 45.183 83.967 45.0649C84.2001 44.9468 84.5578 44.6962 84.7619 44.5081C84.966 44.32 85.228 43.9704 85.3441 43.7314C85.486 43.4391 85.5873 43.0203 85.6533 42.4531C85.7133 41.938 85.7329 41.0488 85.7035 40.1705C85.6762 39.3526 85.6038 38.5411 85.5359 38.2905C85.4701 38.048 85.3154 37.6971 85.192 37.5106C85.0687 37.3242 84.7775 37.0214 84.5451 36.8376C84.3125 36.6538 83.9225 36.4294 83.6783 36.3391C83.434 36.2486 83.025 36.1547 82.7693 36.1303C82.5135 36.1058 82.0771 36.1196 81.7993 36.1609ZM11.543 36.2587C11.5223 36.3168 11.1206 37.4105 10.6503 38.6892C10.18 39.9679 9.45637 41.9444 9.04204 43.0813C8.62779 44.2183 8.28886 45.1994 8.28886 45.2615C8.28886 45.349 8.45448 45.369 9.02285 45.3501L9.75675 45.3257L10.0585 44.4173L10.3601 43.5088L12.1473 43.5085L13.9344 43.5081L14.2528 44.438L14.5711 45.3679H15.3245H16.078L16.0199 45.1777C15.9878 45.0732 15.7738 44.4739 15.5442 43.8462C15.3145 43.2185 14.8599 41.9821 14.5338 41.0986C14.2078 40.2152 13.8514 39.2451 13.7418 38.9428C13.6323 38.6406 13.4057 38.0129 13.2385 37.5479C13.0712 37.083 12.8788 36.5789 12.811 36.4278L12.6877 36.153H12.1342C11.7678 36.153 11.5679 36.1888 11.543 36.2587ZM16.912 40.7639V45.3748L17.6095 45.3502L18.3069 45.3257L18.3298 43.5292L18.3526 41.7327H19.6885C20.698 41.7327 21.1262 41.699 21.441 41.5946C21.6701 41.5186 22.0483 41.3151 22.2812 41.1422C22.5342 40.9545 22.7946 40.6611 22.9279 40.4138C23.0506 40.1859 23.1945 39.7859 23.2477 39.5247C23.3146 39.1963 23.3194 38.8943 23.2631 38.5453C23.2185 38.2677 23.1262 37.9108 23.058 37.752C22.9899 37.5932 22.7956 37.304 22.6262 37.1092C22.4569 36.9145 22.1196 36.6591 21.8766 36.5416C21.6337 36.4243 21.1877 36.2891 20.8854 36.2413C20.5832 36.1934 19.5656 36.154 18.624 36.1537L16.912 36.153V40.7639ZM24.5207 40.7639V45.3748L25.2182 45.3502L25.9156 45.3257L25.9384 43.5292L25.9613 41.7327H27.2837C28.2834 41.7327 28.7153 41.6983 29.0536 41.5916C29.2998 41.514 29.6836 41.3129 29.9064 41.1446C30.1957 40.9263 30.3962 40.6731 30.6065 40.2608L30.9013 39.6828L30.8984 39.0381C30.8966 38.6514 30.8356 38.2172 30.7459 37.9531C30.6532 37.6801 30.4462 37.3529 30.2005 37.0912C29.9827 36.8593 29.633 36.5936 29.4235 36.5009C29.2141 36.4082 28.7956 36.2923 28.4936 36.2434C28.1916 36.1943 27.1743 36.154 26.2326 36.1537L24.5207 36.153V40.7639ZM32.1294 40.7512V45.3679H32.848H33.5666V43.4205V41.473L34.3908 41.4972L35.2151 41.5213L36.1873 43.4446L37.1595 45.3678L37.9838 45.3679C38.4371 45.3679 38.8081 45.3481 38.8081 45.3238C38.8081 45.2996 38.3516 44.411 37.7936 43.3494C37.2356 42.2876 36.7791 41.383 36.7791 41.3392C36.7791 41.2953 36.9181 41.2091 37.0878 41.1478C37.2577 41.0864 37.5577 40.8876 37.7546 40.7061C37.9515 40.5247 38.2003 40.1773 38.3076 39.9343C38.4564 39.5969 38.5022 39.339 38.5013 38.8441L38.4999 38.1958L38.234 37.6557C38.0678 37.3181 37.8367 37.01 37.6175 36.8339C37.4247 36.6788 37.0714 36.4747 36.8327 36.3801L36.3987 36.208L34.264 36.1712L32.1294 36.1343V40.7512ZM46.6704 36.2577C46.6704 36.3153 47.3193 38.3411 48.1124 40.7595C48.9055 43.1779 49.5707 45.2059 49.5907 45.2662C49.6167 45.3448 49.7864 45.3687 50.1919 45.3507L50.7569 45.3257L52.2643 40.8033C53.0934 38.3161 53.7718 36.2507 53.7718 36.2137C53.7718 36.1767 53.4429 36.1574 53.041 36.1708C52.4973 36.189 52.2925 36.2277 52.241 36.3221C52.2029 36.3918 51.9259 37.2288 51.6255 38.182C51.3249 39.1352 50.8795 40.5428 50.6355 41.31L50.192 42.7049L49.7768 41.3945C49.5485 40.6738 49.0956 39.2472 48.7704 38.2243C48.4453 37.2013 48.1644 36.3168 48.1461 36.2587C48.1229 36.185 47.8945 36.153 47.3916 36.153C46.8745 36.153 46.6704 36.1827 46.6704 36.2577ZM54.5901 36.2083C54.5585 36.2399 54.5327 38.3142 54.5327 40.818V45.3701L57.4705 45.3479L60.4082 45.3257V44.7047V44.0838L58.2102 44.0707L56.0121 44.0576L55.9889 42.7277L55.9655 41.3977L57.8488 41.375L59.7319 41.3523V40.7346V40.1169L57.872 40.1005L56.0121 40.0841L55.9888 38.7963L55.9655 37.5084L58.1869 37.486L60.4082 37.4634V36.8293V36.1953L57.5279 36.173C55.9437 36.1608 54.6217 36.1767 54.5901 36.2083ZM61.8596 36.2094C61.8285 36.2403 61.8032 38.3137 61.8032 40.8169V45.3679L63.5151 45.3674C64.4567 45.3672 65.4553 45.3297 65.7343 45.284C66.0133 45.2383 66.4698 45.0841 66.7488 44.9414C67.0278 44.7985 67.3841 44.5317 67.5406 44.3484C67.6972 44.1652 67.9157 43.7913 68.0262 43.5176C68.1368 43.2439 68.261 42.7209 68.3022 42.3553C68.3434 41.9896 68.3617 41.0817 68.3427 40.3378C68.3239 39.5938 68.2719 38.8052 68.2273 38.5853C68.1828 38.3654 68.0657 38.0141 67.9672 37.8045C67.8686 37.595 67.6303 37.2649 67.4376 37.071C67.2447 36.8771 66.8967 36.6312 66.6643 36.5247C66.4318 36.4181 65.9943 36.2912 65.692 36.2426C65.3898 36.194 64.4165 36.154 63.5292 36.1537C62.6419 36.1533 61.8905 36.1784 61.8596 36.2094ZM87.3133 36.2007C87.2785 36.2364 87.2499 38.3176 87.2499 40.8255V45.3853L89.3 45.3496L91.3502 45.3138L91.8574 45.1179C92.2139 44.9802 92.5057 44.7809 92.8391 44.4475C93.1674 44.1192 93.3753 43.8167 93.514 43.4658L93.7144 42.9585L93.7159 40.8027L93.7173 38.647L93.5609 38.182C93.4748 37.9262 93.2954 37.5686 93.1621 37.3871C93.0288 37.2057 92.7394 36.929 92.5189 36.7723C92.2984 36.6155 91.9262 36.4262 91.6918 36.3514C91.3711 36.2492 90.7842 36.2058 89.3212 36.1757C88.2517 36.1537 87.3482 36.1649 87.3133 36.2007ZM95.3658 40.7605V45.3679H98.2825H101.199V44.7339V44.0998L101.009 44.0922C100.904 44.088 100.055 44.091 99.1219 44.0989C98.1887 44.1068 97.2851 44.0869 97.1141 44.0549L96.803 43.9964V42.6971V41.3977L98.6841 41.375L100.565 41.3523L100.59 40.7409L100.615 40.1296L98.73 40.1069L96.8453 40.0841L96.822 38.7949L96.7986 37.5057H98.9989H101.199V36.8293V36.153H98.2825H95.3658V40.7605ZM43.8826 37.6113C44.0942 37.7184 44.36 37.9494 44.4904 38.1397C44.6508 38.3737 44.7518 38.6731 44.8185 39.1119C44.8778 39.5015 44.898 40.3001 44.8709 41.1832C44.8467 41.9736 44.7838 42.7619 44.7309 42.9348C44.6781 43.1077 44.5415 43.3602 44.4273 43.4959C44.3131 43.6316 44.0488 43.823 43.8397 43.9212C43.6006 44.0336 43.2947 44.0992 43.0149 44.098C42.7648 44.097 42.4222 44.0278 42.232 43.9401C42.046 43.8542 41.81 43.6929 41.7077 43.5814C41.6052 43.4701 41.4545 43.2273 41.3727 43.0419L41.224 42.7049L41.1917 41.1213C41.172 40.1546 41.1976 39.3114 41.2574 38.957C41.3307 38.5221 41.4215 38.2959 41.6186 38.0569C41.7634 37.8812 42.0367 37.6671 42.226 37.5811C42.4254 37.4906 42.7671 37.4241 43.0383 37.423C43.359 37.4217 43.625 37.4811 43.8826 37.6113ZM83.2582 37.6238C83.4775 37.7354 83.736 37.9351 83.8326 38.0677C83.9292 38.2003 84.0564 38.4419 84.1153 38.6047C84.1754 38.7706 84.2424 39.4946 84.2678 40.2532C84.2951 41.0645 84.2748 41.8922 84.217 42.3212C84.1492 42.8254 84.0584 43.1307 83.9096 43.3556C83.7835 43.5461 83.5294 43.7603 83.279 43.8872C83.0194 44.0188 82.7173 44.0998 82.4867 44.0998C82.2818 44.0998 81.9951 44.0761 81.8497 44.047C81.7044 44.0179 81.4145 43.8436 81.2055 43.6597C80.9097 43.3993 80.7947 43.2191 80.686 42.846C80.5795 42.4803 80.5461 42.0064 80.5451 40.845C80.5443 39.9343 80.5868 39.1196 80.6509 38.816L80.758 38.3088L81.1644 37.9141C81.388 37.697 81.6598 37.5024 81.7686 37.4817C81.8772 37.4611 82.1671 37.439 82.4128 37.4326C82.734 37.4243 82.9714 37.478 83.2582 37.6238ZM21.0317 37.635C21.2103 37.7075 21.4474 37.9025 21.571 38.0788C21.6924 38.2518 21.8176 38.5354 21.8494 38.7091C21.8812 38.8828 21.8641 39.1848 21.8114 39.3803C21.7587 39.5758 21.5937 39.8577 21.4445 40.007C21.2954 40.1561 21.023 40.3198 20.8392 40.3708C20.6554 40.4219 20.02 40.4638 19.4271 40.4641L18.3492 40.4646V38.9851V37.5057H19.5311C20.3966 37.5057 20.7983 37.5402 21.0317 37.635ZM28.7156 37.6796C28.9268 37.7819 29.1468 37.9754 29.2492 38.1489C29.345 38.3113 29.4476 38.595 29.4771 38.7793C29.5127 39.0021 29.4839 39.2367 29.3913 39.4793C29.3147 39.6799 29.148 39.942 29.021 40.0619C28.894 40.1817 28.6378 40.3211 28.4518 40.3717C28.2658 40.4222 27.6287 40.4638 27.0358 40.4641L25.9579 40.4646V38.9851V37.5057H27.157H28.3562L28.7156 37.6796ZM36.4983 37.7259C36.6296 37.8237 36.8087 38.0265 36.8965 38.1766C36.9939 38.3429 37.0586 38.6199 37.0622 38.8863C37.066 39.1637 37.013 39.4164 36.9172 39.5782C36.8341 39.7184 36.6263 39.9266 36.4556 40.0408L36.145 40.2484L34.8558 40.281L33.5666 40.3136V38.9022V37.4908L34.9132 37.5193L36.2599 37.5479L36.4983 37.7259ZM65.7006 37.6014C65.8586 37.654 66.1317 37.8341 66.3075 38.0015C66.5145 38.1986 66.6709 38.4533 66.7513 38.7242C66.8409 39.0256 66.8756 39.5745 66.8756 40.6871C66.8756 41.5366 66.8333 42.4293 66.7814 42.6708C66.7141 42.9844 66.593 43.2123 66.3579 43.4674C66.1357 43.7084 65.9118 43.8551 65.6701 43.9179C65.4729 43.9692 65.2355 44.0165 65.1425 44.023C65.0495 44.0294 64.5835 44.0303 64.1069 44.025L63.2404 44.0153V40.7605V37.5057H64.3268C64.9243 37.5057 65.5425 37.5488 65.7006 37.6014ZM91.2049 37.6368C91.3778 37.7089 91.6445 37.889 91.7975 38.0371C91.9741 38.208 92.1246 38.4747 92.2098 38.7678C92.31 39.1124 92.3443 39.6158 92.3455 40.7557C92.3466 41.9186 92.3144 42.393 92.2101 42.7472C92.1348 43.0029 91.9866 43.3113 91.8807 43.4325C91.7749 43.5537 91.5228 43.7372 91.3206 43.8401C91.0605 43.9725 90.7364 44.0414 90.2139 44.0752C89.8076 44.1015 89.2979 44.0965 89.0812 44.064L88.6871 44.0049V40.7553V37.5057H89.7889C90.5927 37.5057 90.9756 37.5411 91.2049 37.6368ZM13.477 42.2555C13.4582 42.2874 12.8738 42.314 12.1787 42.3148C11.4834 42.3156 10.8937 42.2826 10.8683 42.2415C10.8429 42.2004 11.0701 41.4787 11.3731 40.6378C11.6762 39.7968 11.9241 39.0893 11.9241 39.0653C11.9241 39.0415 11.9846 38.8805 12.0585 38.7077L12.193 38.3933L12.8522 40.2955C13.2148 41.3417 13.496 42.2237 13.477 42.2555ZM38.9896 48.8487C38.7871 48.8839 38.4555 49.0101 38.2527 49.129C38.0498 49.2479 37.7912 49.4679 37.6779 49.618C37.5647 49.7681 37.4305 50.0431 37.3797 50.229C37.3289 50.415 37.2871 51.1426 37.2869 51.8458C37.2864 52.7829 37.3212 53.2231 37.4168 53.4941C37.4885 53.6973 37.6691 53.9908 37.8184 54.1461C37.9675 54.3015 38.237 54.5046 38.4173 54.5975C38.5976 54.6904 38.9473 54.7873 39.1944 54.8128C39.5015 54.8445 39.7851 54.8129 40.0903 54.7131C40.3359 54.6328 40.6719 54.4601 40.8371 54.3293C41.0022 54.1984 41.2275 53.911 41.3376 53.6906L41.5378 53.2897L41.5467 52.4356L41.5557 51.5817L40.4778 51.558L39.3999 51.5343V51.9596V52.3848H40.0339H40.668L40.6661 52.6596C40.6651 52.8107 40.5922 53.093 40.5041 53.287C40.416 53.4811 40.2451 53.7045 40.1243 53.7837C40.0035 53.8629 39.7394 53.9462 39.5374 53.969C39.2896 53.9969 39.0688 53.9623 38.8586 53.8625C38.6872 53.7812 38.4826 53.5961 38.4039 53.4513C38.2921 53.2456 38.2543 52.909 38.2313 51.9135C38.208 50.9105 38.2291 50.5732 38.3307 50.3302C38.4025 50.1585 38.584 49.9457 38.7396 49.8508C38.9183 49.7418 39.1675 49.68 39.4291 49.6799C39.666 49.6797 39.943 49.7412 40.0861 49.8256C40.2221 49.906 40.4121 50.1343 40.5082 50.3329L40.683 50.694H41.1093H41.5355L41.4843 50.3783C41.4561 50.2047 41.3264 49.9109 41.1961 49.7255C41.0657 49.54 40.8081 49.2836 40.6233 49.1557C40.4214 49.0158 40.1022 48.8954 39.8226 48.8537C39.5668 48.8157 39.192 48.8133 38.9896 48.8487ZM85.4746 48.8154C85.3583 48.8309 85.1301 48.885 84.9673 48.9357C84.8046 48.9863 84.5789 49.0998 84.4657 49.1878C84.3525 49.2758 84.1639 49.4891 84.0467 49.6617L83.8335 49.9754V50.5291C83.8335 50.9599 83.8768 51.1528 84.0288 51.3986C84.148 51.5918 84.3767 51.7907 84.6168 51.9105C84.8328 52.0182 85.314 52.154 85.6859 52.2124C86.0579 52.2706 86.4258 52.352 86.5036 52.3933C86.5814 52.4345 86.705 52.5283 86.7784 52.6017C86.8589 52.6822 86.9118 52.8805 86.9118 53.102V53.4688L86.6557 53.6843C86.5148 53.8028 86.264 53.9252 86.0984 53.9564C85.9328 53.9874 85.6066 53.9903 85.3736 53.9626C85.1406 53.9351 84.7781 53.8117 84.568 53.6886L84.1861 53.4648L83.8893 53.7617L83.5925 54.0585L83.9556 54.3215C84.1552 54.4662 84.5095 54.6412 84.7429 54.7105C84.9762 54.7798 85.406 54.8365 85.6981 54.8365C86.0223 54.8365 86.4053 54.7706 86.6816 54.6672C86.9305 54.5741 87.2343 54.3933 87.3567 54.2656C87.479 54.1379 87.6382 53.8919 87.7104 53.719C87.7826 53.5462 87.8409 53.2418 87.8399 53.0427C87.8388 52.8436 87.7675 52.5256 87.6814 52.3359C87.5953 52.1463 87.4198 51.9084 87.2914 51.8075C87.163 51.7065 86.9205 51.5871 86.7524 51.5422C86.5843 51.4972 86.1425 51.4032 85.7705 51.3332C85.2429 51.234 85.0523 51.158 84.9039 50.9875C84.789 50.8556 84.7137 50.6584 84.7137 50.4893C84.7137 50.3355 84.7904 50.1121 84.8841 49.9929C84.9778 49.8738 85.1918 49.731 85.3597 49.6756C85.53 49.6193 85.8282 49.5973 86.0349 49.6257C86.2385 49.6536 86.5624 49.7566 86.7548 49.8548L87.1044 50.0332L87.3624 49.7751L87.6204 49.5172L87.4714 49.3525C87.3894 49.262 87.1444 49.1128 86.9269 49.021C86.7093 48.9292 86.3411 48.8391 86.1086 48.8207C85.8761 48.8022 85.5908 48.7999 85.4746 48.8154ZM8.23856 48.9514C8.2132 49.0175 8.20458 49.1989 8.21954 49.3545L8.24659 49.6373L9.07087 49.6614L9.89514 49.6856V52.2232V54.7608L10.3233 54.7352L10.7515 54.7097L10.7437 52.3345C10.7394 51.0282 10.76 49.8964 10.7895 49.8194L10.8432 49.6795H11.6419H12.4407L12.4149 49.278L12.3891 48.8764L10.3369 48.8537L8.28472 48.8311L8.23856 48.9514ZM13.3613 51.793V54.752H13.7817H14.2021L14.2256 53.5473L14.249 52.3426L14.7985 52.3181L15.348 52.2938L15.9606 53.5228L16.5731 54.752H17.0808C17.3599 54.752 17.5883 54.7278 17.5883 54.6982C17.5883 54.6685 17.3003 54.0893 16.9484 53.4109C16.5963 52.7325 16.3473 52.1644 16.3948 52.1486C16.4423 52.1328 16.6032 52.0368 16.7522 51.9353C16.9013 51.8338 17.099 51.6485 17.1916 51.5235C17.2842 51.3985 17.3877 51.1133 17.4216 50.8896C17.4607 50.6325 17.4432 50.3275 17.3741 50.0601C17.2933 49.7475 17.1749 49.5573 16.92 49.3305C16.7237 49.1559 16.4129 48.9827 16.1988 48.9289C15.992 48.8767 15.2689 48.8341 14.592 48.8341H13.3613V51.793ZM19.7026 50.0388C19.458 50.7014 19.1067 51.662 18.9219 52.1735C18.7372 52.6849 18.4567 53.4537 18.2985 53.8817C18.1404 54.3098 18.0111 54.6826 18.0111 54.7102C18.0111 54.7379 18.2267 54.749 18.4903 54.7351L18.9696 54.7097L19.1526 54.1602L19.3356 53.6107L20.4927 53.5872C21.373 53.5692 21.6587 53.5894 21.6874 53.6717C21.7081 53.7311 21.8052 53.9985 21.9031 54.2659L22.0812 54.752H22.5401C22.7924 54.752 22.999 54.7157 22.999 54.6714C22.999 54.6271 22.9616 54.5034 22.9159 54.3966C22.8701 54.2899 22.4314 53.0992 21.9407 51.7508C21.4501 50.4023 21.0073 49.1945 20.9568 49.0666L20.8649 48.8341H20.5061H20.1473L19.7026 50.0388ZM23.8232 48.8826C23.7883 48.9179 23.7598 50.253 23.7598 51.8494V54.752L25.0491 54.7515C25.7582 54.7512 26.4836 54.7106 26.6613 54.6613C26.839 54.612 27.1316 54.4386 27.3116 54.276C27.492 54.113 27.7075 53.8026 27.7917 53.5841L27.9446 53.188V51.7508V50.3136L27.6833 49.8486C27.479 49.4851 27.3223 49.3286 26.9647 49.1314L26.5074 48.8792L25.197 48.8487C24.4763 48.8319 23.8581 48.8471 23.8232 48.8826ZM29.255 51.7886V54.752H29.721H30.1871L30.1649 51.8142L30.1427 48.8764L29.6988 48.8509L29.255 48.8252V51.7886ZM31.5907 48.9011C31.565 48.9427 31.552 50.2667 31.5619 51.8432L31.5798 54.7097L32.0222 54.7352L32.4645 54.7607L32.4871 52.7116L32.5098 50.6625L33.2242 51.7561C33.6171 52.3577 34.2195 53.2778 34.5628 53.8009L35.187 54.752H35.6026H36.0182V51.7886V48.8252L35.5744 48.8509L35.1306 48.8764L35.1131 50.8208C35.1033 51.8903 35.0939 52.7972 35.0919 52.8364C35.0899 52.8755 34.7173 52.3437 34.264 51.6546C33.8107 50.9654 33.2083 50.0584 32.9254 49.6389L32.4111 48.8764L32.0243 48.8509C31.8115 48.8369 31.6164 48.8595 31.5907 48.9011ZM43.6286 49.0243C43.4238 49.1289 43.144 49.3557 43.0068 49.5283C42.8301 49.7504 42.7455 49.9648 42.7168 50.2632C42.6946 50.4949 42.7015 50.8187 42.7323 50.9826C42.7631 51.1466 42.8889 51.4004 43.012 51.5467C43.135 51.6929 43.394 51.8804 43.5875 51.9634C43.7811 52.0463 44.2189 52.1576 44.5607 52.2106C44.9023 52.2636 45.2787 52.3534 45.3969 52.4101C45.5153 52.4668 45.6657 52.6251 45.7312 52.7618L45.8504 53.0104L45.732 53.3528C45.6472 53.5982 45.5298 53.7386 45.3177 53.8484C45.09 53.9663 44.8855 53.9938 44.43 53.9678C44.0941 53.9485 43.7286 53.8727 43.5846 53.7923C43.4451 53.7145 43.2658 53.6048 43.1861 53.5485L43.0413 53.4463L42.7845 53.6923C42.6434 53.8275 42.5279 53.983 42.5279 54.0377C42.5279 54.0924 42.6706 54.232 42.8449 54.348C43.0193 54.464 43.2951 54.6118 43.4578 54.6766C43.6402 54.7491 44.0619 54.7931 44.5569 54.7913L45.36 54.7883L45.6982 54.6084C45.8841 54.5095 46.1215 54.348 46.2256 54.2496C46.3298 54.1512 46.4799 53.9482 46.5592 53.7984C46.6507 53.6258 46.7005 53.35 46.6952 53.0451C46.6894 52.712 46.6272 52.4579 46.4929 52.2189C46.3526 51.9692 46.1807 51.8176 45.8717 51.6706C45.6368 51.5589 45.1592 51.4221 44.8105 51.3665C44.4617 51.311 44.0759 51.2142 43.9531 51.1515C43.8303 51.0887 43.6902 50.9238 43.6418 50.785C43.584 50.6194 43.5814 50.4327 43.6343 50.2416C43.679 50.0796 43.8169 49.8824 43.9455 49.7969C44.1027 49.6923 44.3384 49.6422 44.6837 49.6402C45.0413 49.6381 45.3004 49.692 45.5619 49.8227L45.9328 50.008L46.1244 49.8649C46.2298 49.7862 46.3577 49.6557 46.4087 49.5749L46.5014 49.4281L46.1491 49.2057C45.9554 49.0834 45.6798 48.9498 45.5367 48.9088C45.3936 48.8677 44.9895 48.8341 44.6387 48.8341C44.144 48.8341 43.9174 48.8768 43.6286 49.0243ZM47.32 48.889C47.2882 48.9209 47.2622 49.1103 47.2622 49.3101V49.6734L48.0864 49.6976L48.9107 49.7218L48.9278 52.2157L48.9448 54.7097L49.3716 54.7352L49.7984 54.7608V52.2201V49.6795H50.6484H51.4985L51.4727 49.278L51.4469 48.8764L49.4124 48.8538C48.2934 48.8414 47.3518 48.8572 47.32 48.889ZM53.2657 49.0424C53.2222 49.157 52.7651 50.3947 52.2501 51.793C51.735 53.1913 51.2779 54.4291 51.2344 54.5437L51.1553 54.752H51.6487H52.1422L52.351 54.1813L52.5599 53.6107L53.6402 53.5869C54.2859 53.5728 54.7622 53.5978 54.8242 53.6493C54.8813 53.6967 54.9972 53.9641 55.0818 54.2437L55.2358 54.752H55.7296C56.0012 54.752 56.2235 54.739 56.2235 54.7231C56.2235 54.7072 55.9348 53.9178 55.5819 52.9689C55.229 52.02 54.9089 51.1484 54.8705 51.0322C54.8321 50.9159 54.7052 50.5545 54.5885 50.229C54.472 49.9036 54.2988 49.4565 54.204 49.2357L54.0314 48.8341H53.6882H53.3449L53.2657 49.0424ZM56.9843 51.793V54.752H57.4493H57.9143V52.7116V50.6711L59.2458 52.7106L60.5773 54.7499L61.0223 54.751L61.4672 54.752L61.445 51.8142L61.4227 48.8764L60.9804 48.8509L60.5381 48.8254L60.5154 50.8784L60.4928 52.9314L59.1494 50.8828L57.8061 48.8341H57.3952H56.9843V51.793ZM62.9022 51.793V54.752H64.2452H65.5882L66.0403 54.5158C66.357 54.3503 66.5622 54.1666 66.7248 53.9028C66.8851 53.6428 66.9866 53.3166 67.0526 52.8498C67.1061 52.4719 67.1265 51.8005 67.099 51.3281C67.072 50.8631 67.0075 50.3351 66.9558 50.1546C66.8997 49.9594 66.7009 49.6658 66.4647 49.4296C66.1814 49.1463 65.9549 49.0043 65.6734 48.9335C65.4565 48.8788 64.7443 48.8341 64.0906 48.8341H62.9022V51.793ZM69.6719 48.9912C69.6229 49.0827 69.3009 49.9312 68.9562 50.8768C68.6116 51.8225 68.1546 53.064 67.9407 53.6358C67.7269 54.2075 67.5519 54.6926 67.5519 54.7137C67.5519 54.7347 67.7727 54.752 68.0425 54.752H68.5331L68.7245 54.1578L68.9158 53.5637L70.0657 53.5872L71.2154 53.6107L71.4243 54.1813L71.6332 54.752H72.0865C72.3635 54.752 72.5398 54.7153 72.5398 54.6577C72.5398 54.6059 72.2179 53.6834 71.8245 52.6076C71.431 51.5319 70.9615 50.2523 70.7811 49.7641L70.453 48.8764L70.107 48.8507C69.8332 48.8303 69.7423 48.8596 69.6719 48.9912ZM73.3639 48.8837C73.3291 48.9184 73.3007 50.253 73.3007 51.8494V54.752H73.7634H74.226L74.2495 53.5473L74.2729 52.3426L74.8224 52.3181L75.372 52.2938L75.9845 53.5228L76.597 54.752H77.1047C77.3839 54.752 77.6123 54.7274 77.6123 54.6973C77.6123 54.6672 77.3219 54.0887 76.9669 53.4117C76.6036 52.719 76.3617 52.1676 76.4133 52.1504C76.4638 52.1336 76.6271 52.0368 76.7762 51.9353C76.9252 51.8338 77.1268 51.6434 77.2241 51.5121L77.4009 51.2734V50.5688V49.8643L77.1428 49.5454C77.0008 49.3699 76.7345 49.1477 76.5511 49.0514L76.2174 48.8764L74.8222 48.8485C74.0548 48.8331 73.3986 48.849 73.3639 48.8837ZM78.7113 51.7858V54.752H80.0488H81.3863L81.8452 54.5195C82.1121 54.3843 82.3839 54.1667 82.4946 53.9995C82.5993 53.8413 82.7316 53.556 82.7884 53.3654C82.8498 53.1596 82.8917 52.504 82.8918 51.7508C82.8919 50.9138 82.8536 50.3724 82.7793 50.1584C82.7175 49.9801 82.5508 49.702 82.409 49.5405C82.2673 49.379 81.9955 49.1639 81.8051 49.0626L81.4589 48.8783L80.0851 48.8489L78.7113 48.8196V51.7858ZM91.0261 48.8905C90.9951 48.9214 90.9697 49.8657 90.9697 50.9886C90.9697 52.5387 90.9997 53.1312 91.094 53.4489C91.1741 53.7187 91.3317 53.976 91.5378 54.1735C91.7136 54.3419 91.9906 54.5502 92.1533 54.6364C92.3726 54.7525 92.6243 54.792 93.1255 54.7893C93.6484 54.7863 93.881 54.7441 94.1505 54.6033C94.3423 54.5032 94.6048 54.2959 94.734 54.1428C94.8631 53.9896 95.0289 53.7311 95.1022 53.5684L95.2358 53.2725L95.2374 51.0744L95.239 48.8764L94.8004 48.851L94.3618 48.8257L94.3355 51.022L94.3091 53.2182L94.134 53.4567C94.0377 53.5879 93.8285 53.7639 93.669 53.8478C93.4673 53.9541 93.2562 53.9899 92.9748 53.9657C92.7002 53.942 92.5001 53.8659 92.351 53.7285C92.2303 53.6172 92.0793 53.4037 92.0156 53.2541C91.9279 53.0484 91.8997 52.4763 91.8997 50.9081V48.8341H91.4911C91.2663 48.8341 91.0571 48.8595 91.0261 48.8905ZM96.6333 48.8553C96.6329 48.8669 96.6235 50.1984 96.6121 51.8142L96.5917 54.752H97.0355H97.4794V53.9251V53.0982L97.9568 52.5302C98.2194 52.2178 98.4589 51.9621 98.4891 51.9621C98.5193 51.9621 98.9019 52.5898 99.3393 53.357L100.134 54.752H100.667C100.96 54.752 101.199 54.738 101.199 54.7209C101.199 54.7038 100.927 54.2378 100.595 53.6852C100.262 53.1328 99.8055 52.3639 99.58 51.9766C99.3547 51.5893 99.1702 51.2361 99.1702 51.1915C99.1702 51.1471 99.5696 50.6298 100.058 50.0421C100.546 49.4545 100.946 48.9422 100.946 48.9039C100.946 48.8655 100.708 48.8362 100.417 48.8389L99.8888 48.8437L99.0654 49.8745C98.6126 50.4415 98.1092 51.0575 97.9469 51.2435C97.7846 51.4295 97.651 51.6102 97.6501 51.6451C97.6492 51.68 97.6104 51.7085 97.5639 51.7085C97.5109 51.7085 97.4794 51.1731 97.4794 50.2713V48.8341H97.0567C96.8242 48.8341 96.6337 48.8436 96.6333 48.8553ZM16.0301 49.8033C16.2375 49.8899 16.3659 50.0218 16.4584 50.2431C16.564 50.4959 16.5717 50.619 16.4968 50.859C16.4454 51.024 16.3111 51.2254 16.1984 51.3066C16.0409 51.42 15.7915 51.4592 15.1212 51.4757L14.249 51.4972L14.2245 50.7004C14.211 50.2621 14.2193 49.8532 14.243 49.7915C14.274 49.7106 14.4869 49.6795 15.0099 49.6795C15.4543 49.6795 15.8482 49.7273 16.0301 49.8033ZM26.5225 49.8969C26.6537 49.9932 26.8276 50.2024 26.9088 50.3619L27.0567 50.6517L27.0549 51.793L27.0532 52.9343L26.8927 53.2881C26.7935 53.5064 26.6296 53.6947 26.4642 53.7802C26.286 53.8724 25.9515 53.9237 25.4643 53.9338L24.732 53.9488L24.7095 51.806L24.6868 49.6631L25.4855 49.6925L26.284 49.7218L26.5225 49.8969ZM65.6445 49.8797C65.7714 49.9628 65.9326 50.1681 66.0027 50.3359C66.0728 50.5037 66.1505 50.9858 66.1753 51.4072C66.2 51.8286 66.1792 52.4356 66.129 52.7558C66.0661 53.1569 65.9775 53.4026 65.8438 53.5456C65.7371 53.6596 65.5839 53.7885 65.5034 53.8319C65.423 53.8753 65.014 53.9339 64.5946 53.962L63.8321 54.0133V51.8363V49.6593L64.623 49.694C65.1951 49.719 65.4776 49.7703 65.6445 49.8797ZM76.054 49.8033C76.2573 49.8882 76.3899 50.0219 76.4765 50.2291C76.575 50.4648 76.5833 50.6031 76.5143 50.8593L76.4259 51.1876L76.055 51.3671L75.684 51.5467L74.9785 51.5219L74.2729 51.4972L74.2489 50.5883L74.2249 49.6795H74.9914C75.4731 49.6795 75.8679 49.7255 76.054 49.8033ZM81.4449 49.8739C81.5669 49.9539 81.7341 50.1426 81.8164 50.2932L81.9661 50.5672L81.9656 51.851L81.9651 53.1346L81.7913 53.3674C81.6958 53.4954 81.5138 53.6776 81.387 53.7723C81.2092 53.905 81.0122 53.9478 80.5241 53.9594C80.1762 53.9677 79.8257 53.9572 79.7453 53.9362L79.599 53.8979L79.6192 51.8099C79.6304 50.6615 79.6398 49.7078 79.6403 49.6906C79.6408 49.6734 79.9972 49.675 80.4321 49.694C80.9911 49.7184 81.288 49.7712 81.4449 49.8739ZM20.9719 51.5394C21.1704 52.1206 21.3504 52.6438 21.3718 52.7019C21.4014 52.782 21.2043 52.8075 20.5563 52.8075C19.8811 52.8075 19.7019 52.7828 19.7019 52.6894C19.7019 52.6244 19.8731 52.0859 20.0823 51.4925C20.2915 50.8992 20.4627 50.3931 20.4627 50.3679C20.4627 50.3427 20.496 50.3582 20.5368 50.4023C20.5775 50.4465 20.7733 50.9582 20.9719 51.5394ZM54.15 51.4864C54.3605 52.0796 54.5327 52.6195 54.5327 52.6862V52.8075H53.6873C53.2223 52.8075 52.8418 52.7931 52.8418 52.7754C52.8418 52.7577 53.0097 52.2726 53.2148 51.6975C53.4199 51.1223 53.6149 50.5835 53.6479 50.5002C53.6811 50.4168 53.7215 50.3619 53.7378 50.3782C53.7541 50.3945 53.9396 50.8932 54.15 51.4864ZM70.5122 51.4752C70.7207 52.0908 70.9036 52.6424 70.9186 52.701C70.9392 52.7814 70.7374 52.8075 70.0943 52.8075C69.626 52.8075 69.2426 52.779 69.2423 52.7441C69.2422 52.7092 69.4228 52.1579 69.6439 51.5189C69.865 50.8798 70.0655 50.3568 70.0895 50.3564C70.1134 50.3561 70.3037 50.8595 70.5122 51.4752ZM88.8562 54.2372V54.7369L89.3636 54.7656L89.871 54.7942L89.8709 54.2659L89.8707 53.7375H89.3635H88.8562V54.2372Z" fill="#B1B1B1"/>
</svg>
