<svg width="100" height="36" viewBox="0 0 100 36" fill="none" xmlns="http://www.w3.org/2000/svg">
<path d="M96.0253 36.0001C65.0655 36.0001 34.1057 36.0001 3.12508 36.0001C3.10426 35.959 3.12508 35.9384 3.1459 35.9179C3.22918 35.8562 3.31246 35.8562 3.39574 35.8562C3.52067 35.8562 3.66641 35.8562 3.79133 35.8562C34.2931 35.8562 64.8157 35.8562 95.3174 35.8562C95.5465 35.8562 95.7755 35.7946 95.9837 35.9179C96.0462 35.9384 96.0462 35.959 96.0253 36.0001Z" fill="#B1B1B1"/>
<path d="M99.5264 32.5514H99.4846C99.38 32.5103 99.38 32.4076 99.3591 32.3254C99.3591 32.2021 99.3591 32.0994 99.3591 31.9761C99.3591 22.6679 99.3591 13.3596 99.3591 4.05142C99.3591 3.92813 99.3591 3.82539 99.3591 3.7021C99.3591 3.61991 99.38 3.51717 99.4637 3.47607C99.4846 3.47607 99.4846 3.47607 99.5055 3.47607C99.5264 13.1953 99.5264 22.8733 99.5264 32.5514Z" fill="#B1B1B1"/>
<path fill-rule="evenodd" clip-rule="evenodd" d="M0 32.1031V32.4742C0.166701 34.3711 1.66701 35.8969 3.56324 36H3.93832H96.145H96.5409C98.333 35.8763 99.875 34.3505 100 32.5979C99.9792 32.5567 99.9792 32.5155 99.9792 32.4742V4.02062V3.42268C99.8541 1.6701 98.3747 0.206186 96.5201 0H96.0617H3.87581H3.52157C1.62534 0.185567 0.166701 1.64948 0 3.52577V3.91753V32.1031ZM6.87262 21.3702H49.5751C61.7133 21.3702 73.8516 21.3702 85.9898 21.3908H92.3609C94.5678 21.3908 96.2751 19.7059 96.2751 17.5072V7.19216C96.2751 6.55517 96.171 5.95928 95.8587 5.40449C95.0675 3.96613 93.8391 3.30859 92.1943 3.30859H7.47641H6.81016C4.51992 3.32914 2.87512 4.97298 2.87512 7.21271V17.4456C2.87512 19.7264 4.56156 21.3702 6.87262 21.3702Z" fill="#B1B1B1"/>
<path d="M65.9602 28.6891C65.9602 27.9699 65.9602 27.2507 65.9602 26.5521C65.9602 26.1206 66.1892 25.8945 66.6265 25.8945C67.5634 25.8945 68.5003 25.8945 69.458 25.8945C69.8744 25.8945 70.1243 26.1206 70.1243 26.4699C70.1243 26.8192 69.8744 27.0452 69.458 27.0452C68.7501 27.0452 68.0631 27.0452 67.3552 27.0452C67.1678 27.0452 67.1053 27.1069 67.1261 27.2918C67.147 27.4973 67.147 27.7233 67.1261 27.9288C67.1261 28.0932 67.1678 28.1343 67.3343 28.1343C67.7924 28.1137 68.2296 28.1343 68.6877 28.1343C69.1249 28.1343 69.3955 28.3603 69.3955 28.7096C69.3955 29.0589 69.1249 29.2849 68.7085 29.2849C68.2504 29.2849 67.7924 29.2849 67.3343 29.2849C67.1886 29.2849 67.147 29.326 67.147 29.4699C67.147 29.7164 67.1678 29.9425 67.147 30.189C67.147 30.3534 67.2094 30.3945 67.3552 30.3945C68.0631 30.3945 68.7709 30.3945 69.4788 30.3945C69.8952 30.3945 70.1451 30.6 70.1451 30.9699C70.1451 31.3192 69.8952 31.5247 69.4996 31.5247C68.5419 31.5247 67.605 31.5247 66.6473 31.5247C66.2309 31.5247 66.0018 31.2986 66.0018 30.8877C65.9602 30.1069 65.9602 29.4082 65.9602 28.6891Z" fill="white"/>
<path d="M47.3709 28.6685C47.3709 27.9493 47.3709 27.2301 47.3709 26.5315C47.3709 26.1206 47.5791 25.8945 47.9955 25.8945C48.9533 25.8945 49.9318 25.8945 50.8895 25.8945C51.2643 25.8945 51.5142 26.1411 51.5142 26.4493C51.5142 26.7781 51.2643 27.0247 50.8895 27.0247C50.1608 27.0247 49.4321 27.0247 48.7242 27.0247C48.5785 27.0247 48.4952 27.0452 48.516 27.2301C48.5369 27.4562 48.5369 27.6822 48.516 27.8877C48.4952 28.0521 48.5577 28.1137 48.7242 28.1137C49.2239 28.0932 49.7028 28.1137 50.2025 28.1137C50.4731 28.1137 50.6605 28.2781 50.7438 28.5247C50.8063 28.7507 50.7438 28.9973 50.5356 29.1411C50.4107 29.2438 50.2649 29.2644 50.1192 29.2644C49.6612 29.2644 49.2031 29.2644 48.7451 29.2644C48.5577 29.2644 48.4952 29.326 48.516 29.4904C48.5369 29.6959 48.5369 29.9014 48.516 30.1069C48.4952 30.2918 48.5577 30.3534 48.7659 30.3534C49.4738 30.3329 50.1817 30.3534 50.8895 30.3534C51.2643 30.3534 51.535 30.5795 51.535 30.9288C51.535 31.2575 51.2643 31.4836 50.9104 31.4836C49.9526 31.4836 48.9741 31.4836 48.0164 31.4836C47.6208 31.4836 47.3917 31.2575 47.3917 30.8466C47.3501 30.1069 47.3709 29.3877 47.3709 28.6685Z" fill="white"/>
<path d="M55.9434 25.8945C56.5889 25.8945 57.151 26.1 57.6507 26.4699C57.9422 26.6959 58.0046 27.0041 57.8173 27.2918C57.6299 27.5589 57.2968 27.6 56.9844 27.3945C56.2349 26.8808 55.3813 26.9219 54.7775 27.5178C54.1529 28.1137 54.0904 29.1 54.6318 29.737C55.1939 30.4151 56.1725 30.5589 56.9012 30.0658C57.2343 29.8397 57.4633 29.8192 57.6923 30.0041C58.0046 30.2507 57.9838 30.6616 57.6715 30.9082C56.7971 31.5863 55.5687 31.6685 54.5901 31.1548C53.5908 30.6 53.0078 29.511 53.1327 28.4219C53.2993 26.963 54.486 25.8945 55.9434 25.8945Z" fill="white"/>
<path d="M42.7071 29.0178C42.7071 28.4219 42.7071 27.826 42.7071 27.2507C42.7071 27.0863 42.6654 27.0247 42.4989 27.0247C42.2282 27.0452 41.9575 27.0247 41.7077 27.0247C41.3537 27.0247 41.0831 26.7781 41.1039 26.4493C41.1039 26.1411 41.3537 25.8945 41.7077 25.8945C42.7695 25.8945 43.8314 25.8945 44.8932 25.8945C45.2471 25.8945 45.497 26.1411 45.497 26.4493C45.497 26.7575 45.2471 27.0041 44.914 27.0247C44.6642 27.0247 44.3935 27.0452 44.1437 27.0247C43.9146 27.0041 43.873 27.0863 43.873 27.2918C43.873 28.463 43.873 29.6342 43.873 30.8055C43.873 31.0315 43.8105 31.2164 43.6231 31.3397C43.4358 31.463 43.2276 31.4836 43.0402 31.3808C42.832 31.2781 42.7279 31.0932 42.7279 30.8671C42.7071 30.2712 42.7071 29.6343 42.7071 29.0178Z" fill="white"/>
<path d="M61.1946 29.0384C61.1946 28.463 61.1946 27.8671 61.1946 27.2918C61.1946 27.0863 61.1738 26.9836 60.9239 27.0247C60.6741 27.0452 60.4243 27.0247 60.1744 27.0247C59.8205 27.0247 59.5498 26.7575 59.5498 26.4493C59.5498 26.1411 59.8205 25.8945 60.1536 25.8945C61.2154 25.8945 62.2773 25.8945 63.3391 25.8945C63.693 25.8945 63.9429 26.1411 63.9429 26.4493C63.9429 26.7781 63.7139 27.0041 63.3599 27.0247C63.0893 27.0247 62.8186 27.0452 62.5271 27.0247C62.3397 27.0041 62.3189 27.0863 62.3189 27.2507C62.3189 28.463 62.3189 29.6548 62.3189 30.8671C62.3189 31.1754 62.1523 31.3808 61.8817 31.4425C61.6318 31.5041 61.382 31.4014 61.2362 31.1754C61.1738 31.0726 61.153 30.9493 61.153 30.826C61.1946 30.2302 61.1946 29.6343 61.1946 29.0384Z" fill="white"/>
<path d="M69.3545 12.2838C69.3545 11.7084 69.3545 11.1331 69.3545 10.5577C69.3545 10.3317 69.417 10.1673 69.6252 10.0646C69.8334 9.9824 70.0207 10.0235 70.1457 10.229C70.2081 10.3112 70.2498 10.2701 70.3122 10.2495C71.1034 9.87966 71.8321 9.96185 72.4775 10.5783C72.6025 10.7016 72.6441 10.5988 72.7066 10.5372C73.2271 10.0646 73.8309 9.92075 74.4763 10.1262C75.1425 10.3317 75.559 10.8043 75.7255 11.4824C75.788 11.7084 75.7672 11.9345 75.7672 12.1605C75.7672 12.7769 75.7672 13.4139 75.7672 14.0303C75.7672 14.3386 75.6006 14.5235 75.3508 14.544C75.0801 14.544 74.9135 14.3591 74.9135 14.0303C74.9135 13.3317 74.9135 12.6125 74.9135 11.9139C74.9135 11.318 74.5179 10.9071 73.9558 10.9071C73.4145 10.9071 72.9981 11.3386 72.9981 11.9139C72.9981 12.6536 72.9981 13.3728 72.9981 14.1125C72.9981 14.318 72.8939 14.4824 72.6857 14.544C72.4984 14.6057 72.3318 14.544 72.2277 14.4002C72.1444 14.2975 72.1444 14.1947 72.1444 14.0714C72.1444 13.3523 72.1444 12.6331 72.1444 11.8934C72.1444 11.4002 71.8321 11.0303 71.3741 10.9276C70.9577 10.8454 70.5204 11.0509 70.3122 11.4413C70.2289 11.6057 70.2081 11.7906 70.2081 11.9755C70.2081 12.6742 70.2081 13.3523 70.2081 14.0509C70.2081 14.3591 70.0624 14.5646 69.7917 14.5646C69.5211 14.5646 69.3545 14.3797 69.3545 14.0509C69.3545 13.455 69.3545 12.8797 69.3545 12.2838Z" fill="#B1B1B1"/>
<path d="M87.0936 11.5526C87.5308 11.1417 87.9264 10.7924 88.3428 10.4225C88.4469 10.3198 88.551 10.217 88.676 10.1348C88.8633 9.99099 89.1132 10.0321 89.2589 10.1965C89.4047 10.3814 89.4047 10.6074 89.2173 10.7718C88.8842 11.08 88.5302 11.4088 88.1971 11.717C88.0722 11.8198 88.0722 11.8814 88.1763 12.0047C88.6968 12.58 89.2173 13.1759 89.7586 13.7513C89.8627 13.854 89.9668 13.9773 89.946 14.1417C89.9252 14.3266 89.8419 14.4499 89.6753 14.5115C89.488 14.5732 89.3214 14.5321 89.1757 14.3883C88.7176 13.8746 88.2387 13.3609 87.7807 12.8472C87.7182 12.7855 87.6766 12.7239 87.6141 12.6622C87.5308 12.6006 87.4892 12.4362 87.3851 12.4773C87.2394 12.5595 87.0936 12.6417 87.0936 12.8677C87.1144 13.2581 87.0936 13.6485 87.0936 14.0184C87.0936 14.3472 86.9271 14.5321 86.6564 14.5321C86.3857 14.5321 86.24 14.3472 86.24 14.0389C86.24 12.2307 86.24 10.4225 86.24 8.61428C86.24 8.30607 86.4066 8.12113 86.6564 8.10059C86.9271 8.10059 87.0936 8.28552 87.0936 8.61428C87.0936 9.49784 87.0936 10.3814 87.0936 11.2444C87.0936 11.3472 87.0936 11.4293 87.0936 11.5526Z" fill="#B1B1B1"/>
<path d="M66.63 12.9907C67.0048 12.1071 67.3588 11.2441 67.7335 10.4016C67.796 10.2372 67.8585 10.0934 68.0667 10.0729C68.2332 10.0523 68.379 10.0729 68.5039 10.1961C68.6288 10.34 68.6496 10.5044 68.5663 10.6893C68.2332 11.4701 67.9001 12.2715 67.567 13.0523C67.1506 14.0592 66.7341 15.0455 66.2969 16.0523C66.2761 16.114 66.2553 16.1551 66.2344 16.2167C66.1095 16.4633 65.8805 16.566 65.6515 16.4633C65.4225 16.3605 65.3392 16.1345 65.4433 15.8879C65.6515 15.3742 65.8805 14.8605 66.0887 14.3468C66.1512 14.2235 66.1512 14.1003 66.0887 13.977C65.6307 12.9085 65.1726 11.8194 64.7354 10.7509C64.5688 10.3605 64.7978 10.0318 65.1518 10.0934C65.3392 10.114 65.4433 10.2578 65.5266 10.4222C65.8597 11.203 66.1928 12.0044 66.5259 12.7852C66.5468 12.8263 66.5884 12.8879 66.63 12.9907Z" fill="#B1B1B1"/>
<path d="M61.9629 12.0839C61.9629 11.7962 61.9421 11.5086 61.9629 11.2209C61.9837 10.9949 61.9004 10.9332 61.6922 10.9538C61.609 10.9743 61.5465 10.9538 61.4632 10.9538C61.2342 10.9332 61.0884 10.7688 61.0676 10.5428C61.0676 10.3373 61.2134 10.1524 61.4424 10.1113C61.4632 10.1113 61.484 10.1113 61.5257 10.1113C61.9629 10.0908 61.9629 10.0908 61.9629 9.63871C61.9629 9.2894 61.9629 8.94008 61.9629 8.61131C61.9629 8.3031 62.1503 8.11816 62.4001 8.11816C62.65 8.11816 62.8165 8.3031 62.8165 8.59077C62.8165 9.04282 62.8165 9.47433 62.8165 9.92638C62.8165 10.0702 62.8582 10.1319 63.0039 10.1113C63.1913 10.0908 63.3787 10.1113 63.5869 10.1113C63.8576 10.1113 64.0241 10.2757 64.0241 10.5223C64.0241 10.7688 63.8576 10.9538 63.5869 10.9538C63.3787 10.9538 63.1913 10.9538 62.9831 10.9538C62.8582 10.9538 62.8165 10.9949 62.8165 11.1182C62.8165 11.7141 62.8165 12.3099 62.8165 12.8853C62.8374 13.4401 63.0456 13.6456 63.6077 13.6867C63.8992 13.7072 64.0866 13.9127 64.0449 14.1798C64.0033 14.4058 63.8575 14.5291 63.6285 14.5291C62.7957 14.5291 62.0462 14.2414 61.9629 13.1524C61.9629 12.8031 61.9837 12.4538 61.9629 12.0839C61.9837 12.0839 61.9837 12.0839 61.9629 12.0839Z" fill="#B1B1B1"/>
<path d="M57.905 10.5239C58.488 10.0924 59.1543 9.96914 59.8622 10.113C59.9663 10.1335 60.0912 10.1746 60.1953 10.2363C60.4451 10.3595 60.5284 10.565 60.4243 10.7911C60.3202 11.0171 60.112 11.0993 59.8414 11.0171C59.0502 10.75 58.3006 11.0582 57.9883 11.7568C57.9051 11.9417 57.8634 12.1472 57.8634 12.3527C57.8634 12.9075 57.8634 13.4623 57.8634 14.0376C57.8634 14.3664 57.6968 14.5719 57.447 14.5719C57.1763 14.5719 57.0098 14.3869 57.0098 14.0376C57.0098 12.9075 57.0098 11.7774 57.0098 10.6678C57.0098 10.2979 57.1347 10.113 57.3845 10.0924C57.6552 10.0308 57.8009 10.1541 57.905 10.5239Z" fill="#B1B1B1"/>
<path d="M15.6212 10.5251C16.225 10.073 16.8704 9.9703 17.5783 10.0936C17.7241 10.1141 17.849 10.1552 17.9739 10.2374C18.1821 10.3813 18.2654 10.5867 18.1613 10.7922C18.0572 10.9977 17.849 11.0799 17.62 10.9977C17.1411 10.8333 16.6622 10.8539 16.2458 11.1415C15.8294 11.4292 15.6212 11.8196 15.6212 12.3128C15.6212 12.8881 15.6212 13.4635 15.6212 14.0388C15.6212 14.3676 15.4546 14.5525 15.184 14.5525C14.9133 14.5525 14.7676 14.3676 14.7676 14.0594C14.7676 12.8881 14.7676 11.7374 14.7676 10.5662C14.7676 10.2785 14.8925 10.0936 15.1423 10.073C15.3714 10.0319 15.5379 10.1758 15.6212 10.5251Z" fill="#B1B1B1"/>
<path d="M38.4382 10.5199C39.042 10.0678 39.7082 9.96509 40.4161 10.1089C40.541 10.1295 40.666 10.1706 40.7909 10.2528C40.9991 10.3966 41.0615 10.6021 40.9574 10.8076C40.8533 11.013 40.6451 11.0952 40.4161 11.013C40.0205 10.8692 39.6249 10.8487 39.2294 11.0541C38.688 11.3213 38.4382 11.7528 38.4174 12.3487C38.4174 12.924 38.4174 13.4993 38.4174 14.0747C38.4174 14.3829 38.2508 14.5678 38.0009 14.5678C37.7303 14.5678 37.5637 14.3829 37.5637 14.0747C37.5637 12.9034 37.5637 11.7322 37.5637 10.5815C37.5637 10.2939 37.6886 10.1089 37.9385 10.0884C38.2092 10.0267 38.3757 10.1706 38.4382 10.5199Z" fill="#B1B1B1"/>
<path d="M82.909 10.5204C83.5128 10.0683 84.1791 9.96558 84.887 10.1094C85.0119 10.13 85.1369 10.1711 85.2618 10.2532C85.47 10.3971 85.5324 10.6026 85.4283 10.808C85.3242 11.0135 85.116 11.0957 84.887 11.0135C84.4914 10.8697 84.0958 10.8491 83.7002 11.0546C83.1797 11.3217 82.909 11.7327 82.8882 12.308C82.8882 12.9039 82.8882 13.4998 82.8882 14.1163C82.8882 14.3423 82.7841 14.4861 82.5551 14.5478C82.3469 14.6094 82.1803 14.5067 82.0762 14.3217C82.0138 14.2395 82.0346 14.1368 82.0346 14.0341C82.0346 12.8834 82.0346 11.7327 82.0346 10.582C82.0346 10.2532 82.1595 10.0889 82.4094 10.0683C82.68 10.0272 82.8258 10.1711 82.909 10.5204Z" fill="#B1B1B1"/>
<path d="M19.7821 10.7483C19.7821 11.4469 19.7821 12.1456 19.7821 12.8442C19.7821 13.4401 19.9903 13.6456 20.5941 13.7072C20.8439 13.7278 21.0313 13.9127 21.0105 14.1387C20.9897 14.3853 20.8231 14.5497 20.5733 14.5497C19.5531 14.5908 18.9493 14.0565 18.9285 13.0497C18.9076 11.5497 18.9076 10.0702 18.9285 8.57022C18.9285 8.3031 19.1158 8.11816 19.3449 8.11816C19.5947 8.11816 19.7613 8.3031 19.7821 8.59077C19.7821 9.30995 19.7821 10.0291 19.7821 10.7483Z" fill="#B1B1B1"/>
<path d="M29.2406 11.3437C29.2406 12.3094 29.2406 13.2752 29.2406 14.2615C29.2406 14.4053 29.2406 14.5491 29.0734 14.5491C28.8853 14.5491 28.8853 14.4053 28.8853 14.2615C28.8853 12.3094 28.8853 10.3574 28.8853 8.42585C28.8853 8.28202 28.8853 8.13818 29.0734 8.13818C29.2615 8.13818 29.2615 8.28202 29.2615 8.42585C29.2406 9.39161 29.2406 10.3574 29.2406 11.3437Z" fill="#B1B1B1"/>
<path fill-rule="evenodd" clip-rule="evenodd" d="M39.7717 28.6891C39.7925 27.148 38.5225 25.8945 36.961 25.8945C35.3786 25.8945 34.1294 27.1274 34.1294 28.6891C34.1294 30.2302 35.3786 31.4836 36.961 31.4836C38.5225 31.4836 39.7717 30.2302 39.7717 28.6891ZM38.6279 28.6834C38.6279 27.7382 37.8992 27.019 36.9623 27.019C36.0254 27.019 35.2758 27.7382 35.2758 28.6629C35.255 29.5875 36.0045 30.3273 36.9415 30.3273C37.8784 30.3273 38.6279 29.6081 38.6279 28.6834Z" fill="white"/>
<path fill-rule="evenodd" clip-rule="evenodd" d="M72.2097 26.5966V28.6719V30.85C72.2097 31.2404 72.4387 31.487 72.7927 31.487C72.8968 31.487 73.0009 31.4883 73.105 31.4896C73.4173 31.4934 73.7296 31.4973 74.0419 31.4664C75.4577 31.3637 76.5612 30.213 76.6236 28.7952C76.6861 27.398 75.6659 26.1651 74.2709 25.9391C73.9281 25.8775 73.5968 25.8851 73.2598 25.8928C73.1466 25.8954 73.0328 25.898 72.9176 25.898C72.4179 25.898 72.2097 26.1034 72.2097 26.5966ZM73.3498 27.2455V28.6838C73.3498 29.0537 73.3498 29.4236 73.3289 29.814C73.3289 30.3688 73.3289 30.3688 73.8911 30.3277C75.057 30.266 75.8065 29.0126 75.286 27.9852C74.9529 27.2866 74.3491 26.9784 73.5788 27.0195C73.4122 27.0195 73.3498 27.0606 73.3498 27.2455Z" fill="white"/>
<path fill-rule="evenodd" clip-rule="evenodd" d="M28.2191 26.5315V28.6685V28.6687C28.2191 29.3878 28.2191 30.1069 28.1982 30.826C28.1982 31.2164 28.4273 31.463 28.7812 31.463C29.1352 31.463 29.3642 31.2164 29.3642 30.826V29.6959C29.3642 29.6839 29.3634 29.6711 29.3626 29.658C29.3592 29.6038 29.3555 29.5441 29.4058 29.511C29.5099 29.4288 29.9888 29.5315 30.0721 29.6548C30.3131 30.0117 30.5433 30.3793 30.7704 30.7421C30.8572 30.8806 30.9435 31.0185 31.0298 31.1548C31.238 31.4836 31.5711 31.5658 31.8626 31.3808C32.1541 31.1959 32.1958 30.8671 32.0084 30.5589C31.7585 30.148 31.5087 29.737 31.238 29.3466C31.1339 29.2027 31.1339 29.1411 31.2797 29.0178C31.821 28.5247 32.0084 27.7644 31.7585 27.1069C31.5087 26.3877 30.8424 25.9151 30.0929 25.8945H28.8437C28.4273 25.9151 28.2191 26.1206 28.2191 26.5315ZM30.0414 27.0178C29.3543 26.9973 29.3543 26.9973 29.3543 27.6754C29.3543 28.3946 29.3543 28.3946 30.0622 28.3535C30.437 28.3329 30.7076 28.0452 30.7076 27.6754C30.7076 27.3055 30.4162 27.0384 30.0414 27.0178H30.0414Z" fill="white"/>
<path fill-rule="evenodd" clip-rule="evenodd" d="M22.5304 26.5315V28.6685C22.5304 28.8541 22.529 29.0384 22.5277 29.222C22.5238 29.7704 22.52 30.313 22.5512 30.8671C22.5512 31.2164 22.801 31.463 23.1133 31.463C23.4256 31.4836 23.6963 31.2164 23.6963 30.8671V30.148C23.6963 29.9434 23.6963 29.8406 23.7477 29.789C23.7995 29.737 23.9036 29.737 24.1127 29.737C25.1954 29.737 26.0698 28.8945 26.0698 27.826C26.0698 26.7781 25.2162 25.9151 24.1335 25.8945H23.1758C22.7386 25.8945 22.5304 26.1 22.5304 26.5315ZM23.6797 27.6198C23.6773 27.6883 23.675 27.7568 23.675 27.8253V28.1746C23.675 28.6472 23.675 28.6472 24.1747 28.6061L24.1747 28.6061C24.5495 28.565 24.8618 28.2773 24.9034 27.928C24.9659 27.5376 24.7369 27.1883 24.3621 27.065C24.2578 27.0264 24.1535 27.0281 24.0543 27.0297C23.9951 27.0307 23.9377 27.0316 23.8832 27.0239C23.7167 27.0034 23.6542 27.0445 23.675 27.2089C23.6889 27.3458 23.6843 27.4828 23.6797 27.6198Z" fill="white"/>
<path fill-rule="evenodd" clip-rule="evenodd" d="M33.1492 15.8841V14.0759C33.181 14.0994 33.2067 14.117 33.2287 14.132C33.2643 14.1562 33.29 14.1738 33.3158 14.1992C34.0861 14.6923 35.1063 14.6718 35.835 14.1786C36.647 13.6444 37.001 12.7197 36.7927 11.7951C36.5429 10.6855 35.5227 9.98685 34.336 10.069C33.2533 10.1512 32.3372 11.0553 32.2956 12.1649C32.2643 13.1201 32.2682 14.0868 32.2721 15.0564C32.2734 15.3801 32.2747 15.704 32.2747 16.0279C32.2747 16.0896 32.2747 16.1718 32.3164 16.2334C32.3997 16.3978 32.5662 16.48 32.7536 16.4594C32.9618 16.4389 33.0867 16.3362 33.1284 16.1512C33.1492 16.069 33.1492 15.9663 33.1492 15.8841V15.8841ZM33.1446 12.2801C33.1238 13.0609 33.7692 13.6979 34.5604 13.6979C35.3307 13.6979 35.9762 13.0609 35.9762 12.3006C35.997 11.5198 35.3307 10.8828 34.5604 10.8828C33.79 10.8828 33.1446 11.5198 33.1446 12.2801Z" fill="#B1B1B1"/>
<path fill-rule="evenodd" clip-rule="evenodd" d="M47.2998 16.0103V14.0993C47.3622 14.1199 47.383 14.1199 47.4039 14.1199C48.1742 14.6336 49.007 14.7157 49.819 14.2637C50.631 13.8116 51.0266 13.113 51.0058 12.1678C50.985 11.0582 50.0064 10.0925 48.8613 10.0308C47.4663 9.96918 46.4878 11.0582 46.4669 12.0445C46.4357 13.0456 46.4396 14.0351 46.4435 15.0303C46.4448 15.363 46.4461 15.6963 46.4461 16.0308C46.4461 16.2363 46.5294 16.3801 46.7376 16.4418C47.0291 16.5445 47.2998 16.339 47.2998 16.0103ZM48.7387 10.9109C47.9475 10.8903 47.3021 11.5273 47.3021 12.3081C47.3021 13.0684 47.9475 13.7054 48.7179 13.7054C49.4882 13.7054 50.1545 13.0684 50.1545 12.3081C50.1545 11.5478 49.5091 10.9109 48.7387 10.9109Z" fill="#B1B1B1"/>
<path fill-rule="evenodd" clip-rule="evenodd" d="M80.472 10.0858C80.2846 10.168 80.2221 10.3118 80.2013 10.5173C79.1186 9.81865 77.9111 9.92139 77.0991 10.7844C76.3496 11.6063 76.2871 12.8392 76.9742 13.7022C77.6404 14.5652 78.9521 14.9556 80.1805 14.1337C80.2846 14.483 80.4511 14.6063 80.7218 14.5652C80.9508 14.5241 81.0758 14.3392 81.0758 13.9899V13.1269V10.5378C81.0758 10.168 80.7843 9.94194 80.472 10.0858ZM77.3774 12.304C77.3566 13.0643 78.0228 13.7218 78.7932 13.7218C79.5636 13.7218 80.2298 13.0643 80.2298 12.304C80.2298 11.5437 79.5844 10.9067 78.814 10.9067C78.0228 10.9067 77.3774 11.5232 77.3774 12.304Z" fill="#B1B1B1"/>
<path fill-rule="evenodd" clip-rule="evenodd" d="M13.3267 10.0483C13.0977 10.0689 12.9519 10.1922 12.8895 10.5004C11.5778 9.82231 10.5159 9.9456 9.7456 10.8703C9.07935 11.6511 9.0377 12.8429 9.66231 13.6442C9.97462 14.0552 10.391 14.3634 10.9115 14.4867C11.6194 14.6716 12.2857 14.5278 12.8895 14.0963C12.9727 14.425 13.1393 14.5689 13.3892 14.5483C13.639 14.5278 13.7639 14.3429 13.7639 14.0141V10.562C13.7639 10.2333 13.5974 10.0483 13.3267 10.0483ZM11.4991 10.8892C10.7287 10.8892 10.0833 11.5261 10.0833 12.2864C10.0833 13.0672 10.7079 13.7042 11.4991 13.7042C12.2694 13.7042 12.9148 13.0672 12.9148 12.307C12.9357 11.5261 12.2902 10.8892 11.4991 10.8892Z" fill="#B1B1B1"/>
<path fill-rule="evenodd" clip-rule="evenodd" d="M21.7987 13.7651C22.4441 14.5253 23.7142 14.9158 24.9426 14.0938C25.0259 14.4226 25.1716 14.5664 25.4423 14.5664C25.6713 14.5459 25.8379 14.3815 25.8379 14.1555V10.4569C25.8379 10.2514 25.6713 10.087 25.4631 10.0664C25.2341 10.0459 25.0883 10.1486 25.005 10.3541C24.9946 10.3849 24.9894 10.4106 24.9842 10.4363C24.979 10.462 24.9738 10.4877 24.9634 10.5185C23.7142 9.69658 22.4441 10.087 21.7779 10.8884C21.0908 11.7308 21.0908 12.9432 21.7987 13.7651ZM22.1129 12.3045C22.1129 13.0648 22.7584 13.7017 23.5287 13.7017C24.3199 13.7017 24.9653 13.0648 24.9445 12.3045C24.9445 11.5442 24.2991 10.9072 23.5287 10.9072C22.7584 10.8867 22.1129 11.5237 22.1129 12.3045Z" fill="#B1B1B1"/>
<path fill-rule="evenodd" clip-rule="evenodd" d="M54.2174 13.6862C53.5303 13.7889 52.8016 13.3369 52.6767 12.7205C52.76 12.7205 52.8432 12.7205 52.9265 12.6999H55.7581C56.1745 12.6999 56.3202 12.5355 56.2994 12.1451C56.1953 10.8711 55.2168 10.0081 53.9259 10.0287C52.9682 10.0492 52.0937 10.7068 51.823 11.6109C51.5316 12.5766 51.9063 13.604 52.76 14.1588C53.5511 14.6725 54.6754 14.6314 55.4041 14.0561C55.6332 13.8917 55.6956 13.604 55.5499 13.4191C55.3833 13.2342 55.1335 13.2136 54.8836 13.3985C54.6754 13.5629 54.4672 13.6451 54.2174 13.6862ZM52.7774 11.8802H55.3383C55.1717 11.3254 54.6512 10.935 54.0683 10.8939C53.4853 10.8734 52.9023 11.2227 52.6941 11.7158L52.6941 11.7158C52.6525 11.798 52.6109 11.8802 52.7774 11.8802Z" fill="#B1B1B1"/>
<path fill-rule="evenodd" clip-rule="evenodd" d="M45.7262 12.3086C45.7262 11.0346 44.7476 10.0483 43.4567 10.0483C42.1659 10.0483 41.1873 11.0346 41.1665 12.3086C41.1665 13.5415 42.1659 14.5483 43.4359 14.5483C44.706 14.5689 45.7262 13.562 45.7262 12.3086ZM43.4542 13.7008C44.2246 13.7008 44.87 13.0638 44.87 12.3035C44.87 11.5432 44.2454 10.9062 43.4542 10.9062C42.6631 10.9062 42.0176 11.5227 42.0176 12.3035C42.0176 13.0638 42.6631 13.7008 43.4542 13.7008Z" fill="#B1B1B1"/>
</svg>
