<svg width="50" height="52" viewBox="0 0 50 52" fill="none" xmlns="http://www.w3.org/2000/svg">
<path d="M4.15454 34.0549C4.15454 31.7518 4.15454 29.4416 4.15454 27.1385C4.15454 26.9376 4.15454 26.7295 4.15454 26.5286C4.1694 25.6175 4.33281 25.4166 5.25385 25.2659C5.92978 25.1583 6.6057 25.1439 7.28906 25.1368C8.73747 25.1368 10.1859 25.0507 11.6269 25.2229C13.1867 25.4022 14.6648 25.8184 15.9053 26.8013C16.8857 27.5761 17.5319 28.5591 17.9108 29.7285C18.297 30.9267 18.3936 32.1536 18.3713 33.402C18.349 34.6432 18.4381 35.8844 18.2004 37.1184C17.8291 39.0556 16.9154 40.634 15.1105 41.66C13.8403 42.3775 12.4588 42.686 11.0029 42.8079C9.23513 42.9586 7.47475 42.9012 5.70694 42.9299C5.36527 42.9371 5.04587 42.8653 4.72648 42.7792C4.4368 42.7003 4.25853 42.4779 4.20654 42.1837C4.1694 41.9829 4.16197 41.782 4.16197 41.5811C4.15454 39.0771 4.15454 36.566 4.15454 34.0549ZM14.5014 34.1266C14.5014 32.8997 14.4866 31.8379 14.2117 30.7976C13.8032 29.2191 12.793 28.5806 11.4115 28.308C10.5276 28.1358 9.62137 28.1214 8.71519 28.1429C8.00212 28.1573 7.95013 28.2003 7.95013 28.8748C7.95013 32.2684 7.95013 35.6692 7.95013 39.0628C7.95013 39.1847 7.95756 39.2995 7.95756 39.4215C7.96498 39.7587 8.13582 39.9166 8.49978 39.9022C9.32426 39.8807 10.1487 39.9166 10.9732 39.7874C13.1867 39.4359 13.9963 38.2807 14.3306 36.566C14.5088 35.7122 14.5386 34.8369 14.5014 34.1266Z" fill="white"/>
<path d="M23.411 39.7359C23.411 40.5754 23.4185 41.4076 23.411 42.2471C23.411 42.7063 23.2105 42.9215 22.75 42.9287C21.9478 42.943 21.1381 42.943 20.3359 42.9287C19.8457 42.9143 19.6229 42.656 19.6303 42.1466C19.712 36.8517 19.6377 31.5568 19.6674 26.2547C19.6749 25.5086 19.9571 25.2359 20.7222 25.1499C22.6237 24.9346 24.5252 24.9705 26.4267 25.0351C27.5409 25.0709 28.6402 25.2718 29.6578 25.7382C30.9205 26.3121 31.7079 27.2951 31.9901 28.6009C32.3244 30.1362 32.3615 31.6788 31.8861 33.207C31.381 34.8356 30.2149 35.8186 28.5882 36.3423C27.3998 36.7226 26.1816 36.823 24.9412 36.823C24.5549 36.823 24.1761 36.8302 23.7899 36.823C23.515 36.8159 23.3962 36.8948 23.4036 37.1889C23.4333 38.0355 23.4185 38.8822 23.411 39.7359C23.4185 39.7359 23.4185 39.7359 23.411 39.7359ZM23.4185 30.9255C23.4185 31.7362 23.4259 32.5469 23.411 33.3648C23.4036 33.6662 23.515 33.7451 23.8196 33.7523C24.6441 33.7594 25.4685 33.7236 26.293 33.616C27.1918 33.494 27.9271 32.9774 28.1797 32.0877C28.3505 31.4707 28.2837 30.8537 28.2911 30.2367C28.3059 28.9811 27.6672 28.2852 26.3822 28.113C25.5205 27.9982 24.6589 28.0054 23.7973 28.0915C23.5299 28.1202 23.411 28.2206 23.4185 28.5004C23.4259 29.2968 23.4185 30.1075 23.4185 30.9255Z" fill="white"/>
<path d="M39.6951 25.0086C41.2772 24.9728 42.7553 25.2095 44.2186 25.5826C44.8945 25.7548 45.0356 26.0633 44.8425 26.7306C44.7162 27.1754 44.642 27.6346 44.5157 28.0794C44.3226 28.7466 43.9957 28.926 43.3272 28.7036C41.9383 28.2444 40.5047 28.0507 39.0414 28.1368C37.3925 28.2301 37.1102 28.9475 37.1622 30.4255C37.1919 31.3654 37.8381 31.76 38.6552 31.9537C39.5168 32.1618 40.3933 32.3053 41.2549 32.4846C42.4731 32.7357 43.6838 33.0227 44.6122 33.9196C45.1025 34.3859 45.4219 34.9455 45.5556 35.5913C45.875 37.184 45.9121 38.7768 45.2882 40.3122C44.7385 41.6682 43.6912 42.4718 42.2131 42.8233C40.6161 43.2107 39.0043 43.2179 37.3999 43.0529C36.2783 42.9381 35.1641 42.7085 34.0871 42.357C33.5672 42.1848 33.3741 41.8906 33.4706 41.374C33.5746 40.8216 33.6786 40.2691 33.7974 39.7239C33.894 39.2647 34.2802 39.0638 34.7928 39.2432C35.5058 39.4871 36.2263 39.688 36.9691 39.8315C38.3061 40.0898 39.6579 40.262 40.9949 39.7956C41.5966 39.5875 41.9605 39.1068 41.9754 38.5042C41.9902 38.0522 41.9754 37.593 41.9754 37.141C41.9754 36.6244 41.708 36.2657 41.2475 36.0289C40.6978 35.7419 40.0813 35.6343 39.4797 35.498C38.5586 35.2971 37.6227 35.1393 36.724 34.8738C34.6591 34.2711 33.6712 33.1303 33.4558 30.9421C33.3741 30.117 33.3741 29.2776 33.5672 28.4453C33.9386 26.8166 34.971 25.8194 36.5977 25.353C37.6227 25.0589 38.6849 24.9728 39.6951 25.0086Z" fill="white"/>
<path d="M28.0497 47.9681C27.6115 47.9681 27.4555 47.8174 27.4481 47.3869C27.4407 47.186 27.4407 46.978 27.4481 46.7771C27.4555 46.6192 27.3441 46.5475 27.2253 46.4829C27.0841 46.404 27.0247 46.4901 26.9579 46.5834C26.8687 46.691 26.7796 46.6551 26.6682 46.6121C26.2745 46.4542 26.1037 46.5618 26.0814 46.9565C26.0517 47.5089 26.1408 47.5878 26.735 47.5233C26.9059 47.5017 26.9653 47.5807 26.995 47.7026C27.0247 47.8318 26.9801 47.9394 26.8316 47.9681C26.5345 48.0327 26.2448 48.047 25.9551 47.9681C25.7769 47.9179 25.658 47.7887 25.6134 47.6237C25.5392 47.3511 25.4872 47.0712 25.554 46.7771C25.6803 46.2103 26.0368 45.9807 26.6236 46.117C26.7276 46.1385 26.8316 46.1816 26.9356 46.2175C27.2253 46.3323 27.4258 46.239 27.4481 45.952C27.4629 45.7726 27.5372 45.6794 27.7081 45.665C27.8789 45.6507 28.0349 45.7152 28.0572 45.9089C28.072 46.0381 28.1092 46.1457 28.2726 46.1385C28.4137 46.1385 28.4657 46.2175 28.4657 46.3394C28.4731 46.4829 28.4137 46.5475 28.2651 46.5834C27.8938 46.6766 28.1092 46.978 28.072 47.186C28.0423 47.3367 28.0497 47.5161 28.2726 47.5376C28.4583 47.5591 28.5474 47.6452 28.5251 47.8174C28.5028 48.0111 28.3394 47.9681 28.2057 47.9753C28.1463 47.9681 28.0943 47.9681 28.0497 47.9681Z" fill="#B1B1B1"/>
<path d="M39.3862 46.3034C39.2599 46.4038 39.2451 46.5401 39.1114 46.5473C38.6954 46.576 38.6657 46.8414 38.6806 47.1571C38.688 47.3222 38.6731 47.4943 38.6806 47.6594C38.6954 47.8603 38.6508 47.9751 38.4057 47.9751C38.1829 47.9751 38.1012 47.889 38.1086 47.6737C38.1235 47.2719 38.116 46.863 38.1086 46.454C38.1012 46.1599 38.2349 46.0522 38.5246 46.1527C38.6137 46.1814 38.6954 46.1814 38.7771 46.1527C39.0817 46.0451 39.3862 46.3177 39.713 46.1312C39.8319 46.0594 39.9136 46.2531 39.9507 46.3823C40.025 46.6406 40.1141 46.8988 40.2033 47.1787C40.4261 47.0423 40.4112 46.8271 40.4707 46.6621C40.5152 46.5258 40.5524 46.3894 40.6118 46.2531C40.6861 46.0809 40.8495 46.0953 40.9906 46.124C41.1615 46.1599 41.1169 46.2962 41.0946 46.411C40.9906 46.8988 40.7678 47.358 40.6192 47.8316C40.5672 48.0037 40.4038 47.9535 40.2701 47.9607C40.1141 47.9679 39.9656 47.9822 39.8764 47.7813C39.6685 47.3222 39.5125 46.8415 39.3862 46.3034Z" fill="#B1B1B1"/>
<path d="M4.33604 46.7439C4.33604 46.4354 4.33604 46.1269 4.33604 45.8184C4.33604 45.6175 4.42517 45.5027 4.64801 45.5242C5.03425 45.5601 5.42792 45.4381 5.79931 45.6533C6.01471 45.7753 6.17069 45.926 6.23012 46.1556C6.3341 46.5861 6.37124 47.0237 6.18555 47.447C6.04442 47.7771 5.76217 47.9349 5.41306 47.9564C4.32861 48.021 4.32861 48.021 4.32861 46.9591C4.32861 46.8874 4.32861 46.8156 4.33604 46.7439ZM4.84856 46.7367C4.84856 46.9017 4.84856 47.0668 4.84856 47.2318C4.85598 47.3394 4.81142 47.4757 4.98225 47.5259C5.25708 47.6049 5.62847 47.4398 5.69532 47.1672C5.76217 46.8874 5.7696 46.5932 5.69532 46.3206C5.61361 46.0121 5.32393 45.9475 5.0491 45.9619C4.76685 45.9762 4.85598 46.213 4.84856 46.378C4.84113 46.5 4.84856 46.6219 4.84856 46.7367Z" fill="#B1B1B1"/>
<path d="M8.40953 47.3555C8.40953 47.047 8.41696 46.7313 8.40953 46.4228C8.4021 46.1861 8.51352 46.0856 8.75121 46.1215C8.91462 46.143 9.06317 46.1 9.22658 46.0713C9.73167 45.978 10.1328 46.2865 10.1625 46.7816C10.1699 46.9394 10.1699 47.0901 10.1625 47.2479C10.1402 47.7502 9.8728 48.0228 9.35286 48.0084C9.08546 48.0013 8.94433 48.0515 8.98889 48.3385C9.01861 48.5322 8.92947 48.6398 8.72149 48.6398C8.50609 48.6398 8.40953 48.525 8.41696 48.3241C8.41696 48.0013 8.40953 47.6784 8.40953 47.3555ZM8.98889 46.9968C8.98889 47.1403 8.98889 47.2336 8.98889 47.3268C8.99632 47.4847 9.08546 47.5708 9.23401 47.5923C9.40485 47.6138 9.53855 47.5349 9.56826 47.3842C9.61283 47.1618 9.62025 46.9394 9.56083 46.717C9.53112 46.5879 9.42713 46.5305 9.28601 46.5305C8.87005 46.5233 9.02603 46.839 8.98889 46.9968Z" fill="#B1B1B1"/>
<path d="M35.2483 45.5381C35.3969 45.5381 35.5454 45.531 35.694 45.5381C35.8871 45.5453 35.9391 45.6816 35.9243 45.8395C35.9094 46.0188 35.798 46.0834 35.6123 46.0475C35.4712 46.0188 35.3226 45.9973 35.1741 45.9973C35.0404 45.9901 34.9141 46.0475 34.9067 46.191C34.8992 46.3273 34.9735 46.4421 35.1295 46.4852C35.1889 46.4995 35.2483 46.5139 35.3077 46.5139C36.1322 46.6 36.0802 47.0448 35.9911 47.6116C35.9614 47.7982 35.798 47.9273 35.5826 47.9704C35.2483 48.0349 34.9215 48.0062 34.5947 47.956C34.409 47.9273 34.3347 47.8269 34.3644 47.6547C34.3941 47.4681 34.5353 47.4466 34.6987 47.4753C34.8547 47.504 35.0106 47.5327 35.1741 47.5399C35.33 47.5542 35.4414 47.4825 35.4637 47.3246C35.486 47.1668 35.4266 47.0376 35.2558 46.9946C35.1295 46.9587 34.9884 46.9444 34.8621 46.9013C34.4833 46.7722 34.2307 46.4134 34.2902 46.1049C34.3719 45.696 34.617 45.5166 35.1072 45.5166C35.1592 45.5166 35.2038 45.5166 35.2558 45.5166C35.2483 45.531 35.2483 45.5381 35.2483 45.5381Z" fill="#B1B1B1"/>
<path d="M17.8648 45.5258C18.0654 45.5545 18.2882 45.4756 18.5036 45.5832C18.8899 45.7698 19.0459 46.1213 18.9122 46.6236C18.823 46.9536 18.5482 47.1617 18.1991 47.1473C17.7757 47.1258 17.694 47.3123 17.7386 47.6495C17.7683 47.8576 17.7089 47.9796 17.4489 47.9796C17.1741 47.9796 17.1592 47.8361 17.1666 47.6352C17.1741 47.0899 17.1889 46.5375 17.1592 45.9922C17.1369 45.6334 17.2483 45.4756 17.6272 45.533C17.7014 45.533 17.7757 45.5258 17.8648 45.5258ZM17.7311 46.3868C17.8129 46.4872 17.6272 46.7527 17.9391 46.724C18.162 46.7025 18.3551 46.602 18.3625 46.3294C18.3699 46.0639 18.2214 45.9707 17.9763 45.9635C17.6272 45.942 17.7906 46.2146 17.7311 46.3868Z" fill="#B1B1B1"/>
<path d="M8.13874 46.9393C8.2353 47.3196 7.94562 47.2909 7.65594 47.3124C7.50738 47.3268 7.20285 47.1833 7.22513 47.4487C7.23998 47.664 7.53709 47.542 7.7005 47.5492C7.84906 47.5564 8.02732 47.4416 8.07189 47.6927C8.11645 47.9366 7.94562 47.9725 7.75992 47.9868C7.61137 48.0012 7.46282 48.0155 7.32169 48.0155C6.83146 48.0012 6.63834 47.8362 6.54921 47.3698C6.51207 47.1689 6.51207 46.9752 6.55663 46.7671C6.66062 46.2721 6.93545 46.0281 7.40339 46.064C7.90105 46.0927 8.13874 46.3653 8.13874 46.9393ZM7.28455 46.5232C7.19542 46.5304 7.084 46.6308 7.084 46.76C7.084 46.9106 7.23998 46.925 7.36625 46.9178C7.49995 46.9178 7.6188 46.8532 7.61137 46.7097C7.60394 46.5878 7.49995 46.516 7.28455 46.5232Z" fill="#B1B1B1"/>
<path d="M43.8479 47.0692C43.8479 46.3947 44.0187 46.158 44.5461 46.0862C45.1404 46.0145 45.5043 46.3302 45.482 46.9041C45.4746 47.1624 45.378 47.3418 45.0586 47.2988C45.0141 47.2916 44.9621 47.2916 44.9101 47.2988C44.769 47.3274 44.509 47.2055 44.5016 47.4064C44.4941 47.6431 44.7615 47.5283 44.9101 47.5499C44.9769 47.557 45.0586 47.5283 45.1329 47.5283C45.2592 47.5212 45.3483 47.5714 45.3632 47.7005C45.3855 47.8297 45.3558 47.9301 45.1923 47.9588C44.8952 48.009 44.6055 48.0449 44.3159 47.966C43.9742 47.8799 43.8479 47.636 43.8479 47.0692ZM44.6575 46.5167C44.5016 46.5095 44.405 46.6172 44.3976 46.7463C44.3901 46.8611 44.509 46.9257 44.6278 46.9257C44.769 46.9257 44.9101 46.8754 44.9175 46.7248C44.9249 46.5741 44.7987 46.5311 44.6575 46.5167Z" fill="#B1B1B1"/>
<path d="M23.7166 47.0827C23.7166 46.358 23.8948 46.1428 24.4891 46.0782C24.7713 46.0423 25.009 46.1284 25.1724 46.3437C25.373 46.5948 25.321 46.889 25.2838 47.1688C25.269 47.2979 25.1278 47.2979 25.0164 47.2979C24.8456 47.2979 24.6673 47.2979 24.4965 47.2979C24.4148 47.2979 24.3034 47.2907 24.3108 47.4127C24.3108 47.5132 24.4148 47.549 24.4965 47.549C24.645 47.5562 24.7936 47.5419 24.9422 47.5347C25.0833 47.5275 25.2244 47.5132 25.2393 47.7069C25.2615 47.9006 25.1501 47.9436 24.9793 47.9723C24.3331 48.0871 23.984 47.9867 23.776 47.6208C23.6794 47.4414 23.7314 47.2477 23.7166 47.0827ZM24.7416 46.7168C24.749 46.5589 24.6525 46.5159 24.5113 46.523C24.3702 46.5302 24.2737 46.5876 24.2662 46.7239C24.2588 46.8674 24.3331 46.9248 24.4891 46.932C24.6525 46.932 24.7416 46.8818 24.7416 46.7168Z" fill="#B1B1B1"/>
<path d="M31.5752 47.0476C31.5752 46.9184 31.5752 46.7821 31.5752 46.653C31.5752 46.3516 31.4861 45.9857 32.0506 46.1651C32.214 46.2153 32.3997 46.0288 32.6151 46.079C33.0088 46.1794 33.187 46.3588 33.1945 46.7462C33.2019 47.0691 33.187 47.392 33.2167 47.7076C33.239 47.9157 33.135 47.9588 32.9642 47.9588C32.8082 47.9588 32.63 47.9803 32.63 47.7435C32.63 47.435 32.63 47.1265 32.63 46.8108C32.63 46.6314 32.5854 46.5095 32.3626 46.5166C32.1471 46.5238 32.1397 46.6601 32.1323 46.8108C32.1323 47.0763 32.1249 47.3346 32.1323 47.6C32.1397 47.8009 32.1471 47.9731 31.8426 47.9731C31.5455 47.9731 31.5752 47.8009 31.5752 47.6215C31.5752 47.4278 31.5752 47.2341 31.5752 47.0476Z" fill="#B1B1B1"/>
<path d="M10.3435 47.0305C10.3435 46.392 10.648 46.0476 11.1977 46.0548C11.7696 46.062 12.089 46.4351 12.0816 47.1023C12.0742 47.7265 11.7845 48.0135 11.168 48.0063C10.5886 48.0063 10.3435 47.7193 10.3435 47.0305ZM11.5171 47.1453C11.5171 47.0019 11.5171 46.9445 11.5171 46.8871C11.5022 46.6933 11.4354 46.5355 11.2051 46.5212C10.9749 46.5068 10.9377 46.6862 10.8932 46.8512C10.8486 47.0305 10.9006 47.2027 10.9303 47.3821C10.9526 47.5184 11.064 47.5902 11.1903 47.5973C11.3463 47.6117 11.4502 47.5113 11.4948 47.3821C11.5245 47.2817 11.5171 47.1669 11.5171 47.1453Z" fill="#B1B1B1"/>
<path d="M37.814 46.7873C37.814 47.2895 37.814 47.2823 37.294 47.3038C37.1529 47.311 36.8855 47.2105 36.8855 47.3899C36.8855 47.6339 37.1603 47.5406 37.3312 47.5478C37.4054 47.5549 37.4797 47.5334 37.554 47.5262C37.6951 47.5191 37.7917 47.5549 37.7917 47.7199C37.7917 47.8634 37.7471 47.9352 37.5837 47.9567C37.3534 47.9926 37.1232 48.0213 36.8855 47.9998C36.5067 47.9567 36.3061 47.7486 36.269 47.3971C36.2467 47.1962 36.2541 46.9953 36.2541 46.7873C36.2541 46.5003 36.3878 46.2707 36.6478 46.1487C36.9375 46.0124 37.2495 46.0124 37.5317 46.1774C37.7917 46.3281 37.8585 46.5648 37.814 46.7873ZM37.0415 46.9307C37.1826 46.9236 37.3237 46.8877 37.3237 46.7227C37.3237 46.5935 37.2346 46.5074 37.0786 46.5218C36.9301 46.5361 36.8112 46.5792 36.7964 46.7442C36.7815 46.902 36.9003 46.9307 37.0415 46.9307Z" fill="#B1B1B1"/>
<path d="M22.1224 47.059C22.1224 47.8697 21.7436 48.1639 20.9637 47.9702C20.9043 47.9558 20.8449 47.9415 20.7929 47.9128C20.4141 47.6975 20.3101 46.9442 20.5775 46.4348C20.7632 46.0832 21.2757 45.9469 21.7139 46.1334C21.9962 46.2626 22.1224 46.5496 22.1224 47.059ZM21.6099 47.1092C21.6025 46.9872 21.6099 46.894 21.5876 46.8007C21.5579 46.6357 21.4762 46.5137 21.2683 46.5209C21.0454 46.528 21.0157 46.6787 21.0157 46.8437C21.0083 46.9944 21.0157 47.1522 21.0157 47.3029C21.0157 47.4536 21.09 47.5612 21.2385 47.5827C21.402 47.6042 21.5208 47.511 21.5728 47.3603C21.6099 47.2742 21.6025 47.1738 21.6099 47.1092Z" fill="#B1B1B1"/>
<path d="M31.273 47.0816C31.3324 47.799 30.8496 48.086 30.2554 48.0071C29.8766 47.9569 29.6092 47.6914 29.5794 47.3183C29.572 47.2107 29.572 47.1031 29.572 46.9955C29.572 46.3856 29.884 46.0341 30.4262 46.0556C30.9164 46.0771 31.3027 46.3498 31.2655 46.9668C31.273 47.0098 31.273 47.0457 31.273 47.0816ZM30.1142 46.9381C30.1142 47.0888 30.1142 47.1605 30.1142 47.2323C30.1217 47.4331 30.2257 47.6053 30.4262 47.6053C30.6193 47.6125 30.7159 47.4403 30.7307 47.2609C30.753 47.0888 30.7604 46.9094 30.7085 46.73C30.6639 46.5865 30.5896 46.5076 30.4262 46.5076C30.2628 46.5076 30.1737 46.6081 30.1291 46.73C30.0994 46.8233 30.1142 46.9237 30.1142 46.9381Z" fill="#B1B1B1"/>
<path d="M12.812 48.0094C12.7525 48.0022 12.5966 47.9807 12.4332 47.952C12.2846 47.9305 12.2177 47.8372 12.24 47.7009C12.2697 47.5574 12.3589 47.4569 12.5223 47.4928C12.7228 47.5359 13.0274 47.665 13.0794 47.4569C13.1314 47.2632 12.7897 47.2561 12.5966 47.1915C12.344 47.1126 12.2623 46.926 12.2549 46.6964C12.2475 46.4668 12.292 46.2731 12.5297 46.1583C12.812 46.0292 13.1017 46.022 13.3913 46.1296C13.5027 46.1727 13.5845 46.2301 13.5696 46.3664C13.5473 46.5099 13.4433 46.5099 13.3319 46.5314C13.1685 46.5529 12.8937 46.4094 12.864 46.639C12.8343 46.8614 13.1239 46.7825 13.2725 46.8256C13.5845 46.926 13.7627 47.2202 13.7107 47.5215C13.6587 47.8372 13.3468 48.0237 12.812 48.0094Z" fill="#B1B1B1"/>
<path d="M42.7541 47.0707C42.7689 47.5586 42.8209 47.6016 43.326 47.5227C43.4894 47.494 43.5934 47.5155 43.6231 47.6877C43.6454 47.8384 43.586 47.9245 43.4152 47.9675C42.9398 48.0823 42.4718 48.0034 42.2936 47.738C42.0782 47.4223 42.093 46.6259 42.3233 46.3389C42.561 46.0376 43.3186 45.973 43.586 46.2313C43.6974 46.3389 43.6603 46.4465 43.6009 46.5613C43.5414 46.6689 43.4523 46.6689 43.3483 46.6402C42.8061 46.4752 42.7318 46.5326 42.7541 47.0707Z" fill="#B1B1B1"/>
<path d="M22.5354 47.1818C22.5131 46.9235 22.6394 46.6294 22.2754 46.4787C22.1937 46.4428 22.1789 46.2635 22.2828 46.2348C22.5057 46.163 22.5428 46.0267 22.5428 45.833C22.5428 45.6608 22.6914 45.6751 22.8176 45.668C22.9588 45.668 23.1073 45.6823 23.0925 45.8689C23.085 46.0411 23.137 46.1415 23.3376 46.1272C23.449 46.12 23.5159 46.1989 23.5307 46.3065C23.5381 46.407 23.5233 46.5289 23.4044 46.5289C23.0108 46.5505 23.0925 46.8159 23.0999 47.0455C23.0999 47.2823 23.0108 47.5693 23.4416 47.5549C23.5678 47.5477 23.5901 47.6984 23.5901 47.806C23.5901 47.928 23.4936 47.9495 23.3896 47.9639C22.6914 48.0643 22.5354 47.9208 22.5354 47.1818Z" fill="#B1B1B1"/>
<path d="M41.2579 47.0813C41.2727 46.7943 41.1984 46.4427 41.3841 46.1199C41.4584 45.9907 41.3024 45.9405 41.2727 45.8401C41.2207 45.675 41.243 45.5315 41.399 45.4311C41.5179 45.3522 41.659 45.345 41.7778 45.4383C41.9041 45.5459 42.0081 45.675 41.8744 45.8401C41.7184 46.0194 41.8521 46.1988 41.8521 46.3853C41.8595 46.823 41.8447 47.2678 41.8521 47.7055C41.8521 47.9136 41.7481 47.971 41.555 47.9638C41.3767 47.9566 41.243 47.9279 41.2579 47.7055C41.2727 47.5189 41.2579 47.3252 41.2579 47.0813Z" fill="#B1B1B1"/>
<path d="M15.0567 47.138C14.9973 46.9299 15.2128 46.5998 14.8041 46.4779C14.7893 46.4707 14.767 46.4277 14.7744 46.4205C14.9156 46.1694 15.0345 45.8895 15.2276 45.6815C15.3094 45.5882 15.5471 45.6599 15.562 45.8824C15.5694 46.0259 15.6065 46.1407 15.7923 46.1263C15.9483 46.1191 16.0226 46.2124 16.0226 46.3416C16.0226 46.4635 15.9409 46.5353 15.8071 46.5353C15.5917 46.5353 15.5397 46.6644 15.5397 46.8438C15.5397 46.9873 15.5471 47.1308 15.5471 47.2743C15.5471 47.4465 15.6065 47.5541 15.8071 47.5398C16.0003 47.5254 16.082 47.6402 16.0746 47.798C16.0672 47.9918 15.9037 47.9631 15.77 47.9702C15.1236 47.9918 15.0567 47.92 15.0567 47.138Z" fill="#B1B1B1"/>
<path d="M19.2379 47.0443C19.2379 46.8147 19.2379 46.5923 19.2379 46.3627C19.2379 46.2551 19.2528 46.09 19.3939 46.1331C19.639 46.212 19.8544 46.1331 20.0773 46.1187C20.2258 46.1044 20.315 46.1905 20.3298 46.3268C20.3372 46.4488 20.2778 46.5421 20.1441 46.5564C19.7727 46.5923 19.7356 46.8434 19.7356 47.1232C19.7356 47.3169 19.7282 47.5035 19.7356 47.6972C19.743 47.8622 19.7207 47.9698 19.4979 47.9698C19.2825 47.9698 19.2156 47.8837 19.2305 47.69C19.2528 47.4748 19.2379 47.2595 19.2379 47.0443Z" fill="#B1B1B1"/>
<path d="M28.7537 47.0334C28.7537 46.8469 28.7611 46.6532 28.7537 46.4666C28.7463 46.2944 28.7908 46.2012 28.9914 46.2012C29.1993 46.2012 29.2365 46.3016 29.2365 46.4666C29.229 46.8828 29.229 47.2989 29.2365 47.715C29.2365 47.8944 29.1696 47.9733 28.9765 47.9661C28.7908 47.959 28.7537 47.8729 28.7537 47.715C28.7611 47.4854 28.7537 47.263 28.7537 47.0334Z" fill="#FBFDFA"/>
<path d="M14.0342 47.8156C14.0268 47.3851 14.0417 46.9618 14.0194 46.5313C13.9971 46.2156 14.1382 46.1511 14.4131 46.2228C14.4353 46.2515 14.4576 46.2802 14.4799 46.3089C14.4799 46.7394 14.4799 47.1699 14.4799 47.6003C14.4428 47.6219 14.3759 47.6362 14.3759 47.6577C14.3611 47.7367 14.4353 47.7367 14.4873 47.7438C14.4873 47.794 14.4799 47.8371 14.4799 47.8873C14.3239 47.8873 14.1754 47.8945 14.0342 47.8156Z" fill="#FBFDFA"/>
<path d="M14.5217 45.6612C14.5291 45.8621 14.4623 45.9768 14.2543 45.9768C14.0761 45.9768 13.9201 45.9195 13.9275 45.7257C13.9349 45.5607 14.0166 45.3886 14.232 45.3957C14.3954 45.4029 14.544 45.4746 14.5217 45.6612Z" fill="#B1B1B1"/>
<path d="M28.9605 45.3868C29.2056 45.3868 29.2724 45.5375 29.2724 45.6954C29.2799 45.8604 29.1907 45.9823 28.9753 45.9752C28.7599 45.968 28.6931 45.846 28.7005 45.6738C28.7079 45.5016 28.7822 45.3725 28.9605 45.3868Z" fill="#B1B1B1"/>
<path d="M31.3536 47.9118C31.361 47.3808 31.3165 46.8499 31.4724 46.3262C31.4724 46.8571 31.4724 47.388 31.4724 47.9189C31.4353 47.9118 31.3907 47.9118 31.3536 47.9118Z" fill="#73BD2F"/>
<path d="M29.4815 46.5723C29.5037 47.0171 29.5037 47.4691 29.3923 47.9139C29.3923 47.4691 29.3923 47.0171 29.3923 46.5723C29.422 46.5723 29.4518 46.5723 29.4815 46.5723Z" fill="#73BD2F"/>
<path d="M14.0381 47.8164C14.1718 47.8953 14.3278 47.8882 14.4763 47.8882C14.3129 47.9958 14.1495 48.0532 14.0381 47.8164Z" fill="#B1B1B1"/>
<path d="M14.4898 47.7451C14.4378 47.7379 14.3635 47.7379 14.3784 47.659C14.3858 47.6303 14.4452 47.6231 14.4824 47.6016C14.4824 47.6518 14.4824 47.6948 14.4898 47.7451Z" fill="#B1B1B1"/>
<path d="M14.4856 46.3088C14.4633 46.2801 14.441 46.2514 14.4187 46.2227C14.4707 46.2298 14.493 46.2585 14.4856 46.3088Z" fill="#B1B1B1"/>
<path d="M14.5038 34.1281C14.5409 34.8384 14.5112 35.7137 14.3404 36.5675C14.0062 38.2822 13.1965 39.4373 10.9831 39.7889C10.1586 39.918 9.3341 39.8822 8.50961 39.9037C8.15308 39.9109 7.98224 39.7602 7.96739 39.423C7.96739 39.301 7.95996 39.1862 7.95996 39.0642C7.95996 35.6706 7.95996 32.2698 7.95996 28.8762C7.95996 28.2018 8.01938 28.1659 8.72502 28.1444C9.63121 28.1229 10.5374 28.1372 11.4213 28.3094C12.8029 28.5821 13.813 29.2206 14.2216 30.799C14.489 31.8394 14.5038 32.9012 14.5038 34.1281Z" fill="#B1B1B1"/>
<path d="M23.4192 30.9296C23.4192 30.1189 23.4267 29.3081 23.4118 28.4902C23.4044 28.2104 23.5232 28.11 23.7906 28.0813C24.6522 27.9952 25.5139 27.988 26.3755 28.1028C27.6605 28.275 28.2993 28.9709 28.2844 30.2265C28.277 30.8435 28.3439 31.4605 28.173 32.0776C27.9205 32.9672 27.1851 33.4838 26.2864 33.6058C25.4693 33.7134 24.6448 33.7493 23.8129 33.7421C23.5158 33.7421 23.397 33.6632 23.4044 33.3546C23.4267 32.5511 23.4192 31.7403 23.4192 30.9296Z" fill="#B1B1B1"/>
<path d="M4.84902 46.7425C4.84902 46.6206 4.84159 46.5058 4.84902 46.3838C4.85645 46.2188 4.76731 45.982 5.04957 45.9677C5.3244 45.9533 5.61408 46.0179 5.69578 46.3264C5.77006 46.6062 5.76263 46.8932 5.69578 47.173C5.62893 47.4456 5.25755 47.6106 4.98272 47.5317C4.81188 47.4815 4.85645 47.3524 4.84902 47.2376C4.84159 47.0726 4.84902 46.9075 4.84902 46.7425Z" fill="#82C342"/>
<path d="M8.98841 46.9989C9.03295 46.8411 8.86962 46.5254 9.28537 46.5254C9.42643 46.5254 9.53036 46.5828 9.56006 46.7119C9.61945 46.9343 9.61203 47.1639 9.56748 47.3792C9.53779 47.5298 9.40415 47.6159 9.2334 47.5872C9.08492 47.5657 8.98841 47.4796 8.98841 47.3218C8.98098 47.2357 8.98841 47.1352 8.98841 46.9989Z" fill="#82C342"/>
<path d="M17.7327 46.3861C17.7995 46.2139 17.6287 45.9413 17.9778 45.9556C18.2155 45.9628 18.364 46.0632 18.364 46.3215C18.3566 46.6013 18.1635 46.7018 17.9406 46.7161C17.6287 46.752 17.8144 46.4865 17.7327 46.3861Z" fill="#82C342"/>
<path d="M7.28307 46.5271C7.49848 46.5127 7.60247 46.5916 7.60989 46.7208C7.61732 46.8643 7.49848 46.9217 7.36478 46.9289C7.2385 46.9289 7.08252 46.9217 7.08252 46.771C7.08995 46.6347 7.20136 46.5414 7.28307 46.5271Z" fill="#82C342"/>
<path d="M44.6578 46.515C44.7989 46.5293 44.9251 46.5724 44.9176 46.7159C44.9102 46.8737 44.7692 46.9239 44.6281 46.9167C44.5094 46.9167 44.3906 46.8522 44.398 46.7374C44.4055 46.6154 44.502 46.5078 44.6578 46.515Z" fill="#82C342"/>
<path d="M24.7413 46.7198C24.7413 46.8849 24.6521 46.9351 24.4887 46.9351C24.3327 46.9351 24.2585 46.8705 24.2659 46.727C24.2733 46.5835 24.3699 46.5333 24.511 46.5261C24.6596 46.519 24.7487 46.562 24.7413 46.7198Z" fill="#82C342"/>
<path d="M11.5106 47.1504C11.5106 47.1719 11.518 47.2867 11.4809 47.3871C11.4363 47.5163 11.3322 47.6167 11.1762 47.6024C11.0498 47.588 10.9384 47.5234 10.9161 47.3871C10.8863 47.2149 10.8343 47.0356 10.8789 46.8562C10.9161 46.6912 10.9532 46.5118 11.191 46.5262C11.4214 46.5405 11.4883 46.6984 11.5031 46.8921C11.518 46.9495 11.5106 47.0069 11.5106 47.1504Z" fill="#82C342"/>
<path d="M37.0426 46.93C36.9015 46.9372 36.79 46.9013 36.7975 46.7435C36.8049 46.5857 36.9312 46.5354 37.0797 46.5211C37.2357 46.5067 37.3248 46.5928 37.3248 46.722C37.3174 46.8798 37.1837 46.9228 37.0426 46.93Z" fill="#82C342"/>
<path d="M21.605 47.1117C21.5976 47.1835 21.5976 47.2767 21.5753 47.37C21.5233 47.5207 21.4044 47.614 21.241 47.5924C21.0925 47.5709 21.0182 47.4561 21.0182 47.3126C21.0182 47.162 21.0108 47.0041 21.0182 46.8534C21.0256 46.6884 21.0479 46.5377 21.2707 46.5306C21.4713 46.5234 21.553 46.6454 21.5901 46.8104C21.605 46.8893 21.5976 46.9898 21.605 47.1117Z" fill="#82C342"/>
<path d="M30.1132 46.9379C30.1132 46.9236 30.1058 46.8231 30.1355 46.7371C30.18 46.6079 30.2692 46.5146 30.4326 46.5146C30.596 46.5146 30.6702 46.6007 30.7148 46.7371C30.7742 46.9164 30.7594 47.0886 30.7371 47.268C30.7148 47.4473 30.6257 47.6195 30.4326 47.6123C30.2246 47.6052 30.128 47.433 30.1206 47.2393C30.1058 47.1675 30.1132 47.0958 30.1132 46.9379Z" fill="#82C342"/>
<path d="M46.3458 44.5488H3.39844V51.9387H46.3458V44.5488Z" fill="#B1B1B1"/>
<path d="M49.4831 18.3467H46.3904V45.8733H49.4831V18.3467Z" fill="#B1B1B1"/>
<path d="M3.12709 17.4424H0V48.48H3.12709V17.4424Z" fill="#B1B1B1"/>
<path d="M24.7419 51.9928C17.7449 51.9928 10.7554 51.9856 3.75844 52C1.74552 52 0.0668498 50.2924 0.00742776 48.4485C0 48.2333 0 48.0181 0 47.8028C0 37.8444 0 27.8859 0 17.9203C0 17.088 0.170838 16.306 0.705637 15.6316C1.09931 15.1365 1.66382 14.8137 2.18376 14.4621C3.43162 13.6155 4.67949 12.7689 5.93478 11.9223C8.42307 10.2362 10.9114 8.55019 13.3997 6.86414C15.8583 5.19962 18.3094 3.52075 20.768 1.85622C21.4514 1.38987 22.1199 0.894816 22.8403 0.493035C23.8728 -0.0809392 24.9944 -0.145511 26.116 0.25627C27.1113 0.607829 27.8838 1.31812 28.7454 1.88492C30.5652 3.09027 32.3627 4.31713 34.1677 5.544C36.5743 7.17983 38.9734 8.81565 41.38 10.4515C43.4747 11.8721 45.5544 13.3142 47.6713 14.6989C48.8895 15.4953 49.4911 16.5141 49.4837 17.9562C49.4614 28.1083 49.4688 38.2605 49.4763 48.4127C49.4763 49.7902 48.4215 51.426 46.6686 51.8637C46.2749 51.9641 45.8961 51.9856 45.5024 51.9856C38.5798 51.9928 31.6571 51.9928 24.7419 51.9928ZM14.4841 46.3105C14.4916 46.2603 14.4693 46.2316 14.4173 46.2244C14.1424 46.1598 14.0087 46.2244 14.0236 46.5329C14.0533 46.9562 14.0385 47.3867 14.0385 47.8172C14.1499 48.0539 14.3059 47.9965 14.4767 47.8889C14.4767 47.8387 14.4841 47.7956 14.4841 47.7454C14.4841 47.6952 14.4841 47.6521 14.4767 47.6019C14.4841 47.1714 14.4841 46.741 14.4841 46.3105ZM4.15212 34.0561C4.15212 36.5673 4.15212 39.0784 4.15212 41.5824C4.15212 41.7833 4.15954 41.9913 4.19668 42.185C4.24868 42.472 4.42694 42.7016 4.71662 42.7805C5.03602 42.8666 5.36284 42.9384 5.69709 42.9312C7.46489 42.9025 9.22527 42.9671 10.9931 42.8092C12.4489 42.6801 13.8305 42.3788 15.1006 41.6613C16.913 40.6353 17.8266 39.0569 18.1906 37.1197C18.4283 35.8857 18.3391 34.6445 18.3614 33.4033C18.3837 32.1549 18.2797 30.9352 17.9009 29.7298C17.5295 28.5603 16.8759 27.5774 15.8954 26.8026C14.655 25.8124 13.1768 25.4035 11.617 25.2241C10.176 25.0591 8.72761 25.138 7.2792 25.138C6.60327 25.138 5.91992 25.1524 5.24399 25.2672C4.32295 25.4178 4.15954 25.6187 4.14469 26.5299C4.14469 26.7308 4.14469 26.9389 4.14469 27.1398C4.15212 29.4428 4.15212 31.7531 4.15212 34.0561ZM23.4123 39.7385C23.4197 39.7385 23.4197 39.7385 23.4123 39.7385C23.4123 38.8919 23.4271 38.0381 23.4049 37.1915C23.3974 36.8901 23.5163 36.8184 23.7911 36.8256C24.1773 36.8399 24.5562 36.8256 24.9424 36.8256C26.1828 36.8256 27.401 36.7251 28.5894 36.3449C30.2235 35.8211 31.3897 34.831 31.8874 33.2095C32.3553 31.6885 32.3256 30.1388 31.9913 28.6034C31.7017 27.2976 30.9217 26.3147 29.659 25.7407C28.6414 25.2743 27.5421 25.0735 26.428 25.0376C24.5264 24.9802 22.6175 24.9443 20.7234 25.1524C19.9584 25.2385 19.6761 25.5111 19.6687 26.2573C19.639 31.5522 19.7133 36.8471 19.6316 42.1492C19.6241 42.6586 19.847 42.9169 20.3372 42.9312C21.1394 42.9527 21.949 42.9527 22.7512 42.9312C23.2192 42.924 23.4123 42.7088 23.4123 42.2496C23.4197 41.4102 23.4123 40.5707 23.4123 39.7385ZM39.6939 25.0089C38.6837 24.973 37.6216 25.0591 36.5965 25.3533C34.9699 25.8124 33.9374 26.8169 33.566 28.4456C33.3803 29.2778 33.3729 30.1173 33.4546 30.9423C33.67 33.1306 34.6579 34.2714 36.7228 34.8741C37.6216 35.1395 38.5575 35.2902 39.4785 35.4983C40.0802 35.6346 40.6892 35.735 41.2463 36.0292C41.7068 36.2659 41.9742 36.6247 41.9742 37.1413C41.9742 37.5933 41.9891 38.0524 41.9742 38.5044C41.9594 39.1143 41.588 39.5878 40.9938 39.7959C39.6568 40.2551 38.3124 40.09 36.9679 39.8318C36.2326 39.6883 35.5047 39.4874 34.7916 39.2434C34.2717 39.0641 33.8928 39.265 33.7963 39.7241C33.6774 40.2766 33.5735 40.8219 33.4695 41.3743C33.3729 41.8909 33.566 42.1851 34.086 42.3572C35.163 42.7088 36.2772 42.9456 37.3987 43.0532C39.0106 43.2182 40.615 43.211 42.2119 42.8236C43.6901 42.4649 44.7374 41.6685 45.287 40.3125C45.911 38.7771 45.8738 37.1843 45.5544 35.5915C45.4281 34.9458 45.1013 34.3862 44.6111 33.9198C43.6826 33.023 42.4645 32.736 41.2538 32.4849C40.3847 32.3055 39.5082 32.162 38.654 31.954C37.837 31.7531 37.1908 31.3656 37.1611 30.4258C37.1091 28.9478 37.3839 28.2303 39.0403 28.137C40.511 28.0509 41.9371 28.2447 43.3261 28.7038C43.9946 28.9263 44.3214 28.7469 44.5145 28.0796C44.6408 27.6348 44.7151 27.1756 44.8414 26.7308C45.0345 26.0636 44.8934 25.7551 44.2174 25.5829C42.7542 25.2098 41.2686 24.9658 39.6939 25.0089ZM3.40191 51.7991C3.40191 51.8206 3.40191 51.8422 3.40191 51.8709C17.6038 51.8709 31.8057 51.8709 46.0075 51.8709C46.0075 51.8493 46.0075 51.8278 46.0075 51.7991C31.8057 51.7991 17.6038 51.7991 3.40191 51.7991ZM0.111416 48.4844C0.1337 48.4844 0.163411 48.4844 0.185694 48.4844C0.185694 38.1888 0.185694 27.8931 0.185694 17.5903C0.163411 17.5903 0.1337 17.5903 0.111416 17.5903C0.111416 27.8859 0.111416 38.1888 0.111416 48.4844ZM28.0472 47.9678C28.0992 47.9678 28.1438 47.9678 28.1958 47.9678C28.322 47.9607 28.4929 48.0037 28.5152 47.81C28.5374 47.6378 28.4483 47.5517 28.2626 47.5302C28.0398 47.5087 28.0323 47.3293 28.0621 47.1786C28.1066 46.9706 27.8838 46.6764 28.2552 46.5759C28.4037 46.5401 28.4632 46.4683 28.4557 46.332C28.4483 46.21 28.4037 46.1239 28.2626 46.1311C28.0992 46.1311 28.0695 46.0307 28.0472 45.9015C28.0175 45.7078 27.8689 45.6504 27.6981 45.6576C27.5273 45.6719 27.453 45.7724 27.4381 45.9446C27.4158 46.2316 27.2153 46.3248 26.9256 46.21C26.8216 46.1742 26.7176 46.1311 26.6136 46.1096C26.0194 45.9733 25.6629 46.2029 25.544 46.7697C25.4772 47.0638 25.5292 47.3436 25.6035 47.6163C25.648 47.7813 25.7669 47.9104 25.9451 47.9607C26.2348 48.0468 26.5319 48.0252 26.8216 47.9607C26.9776 47.9248 27.0222 47.8243 26.985 47.6952C26.9553 47.566 26.8959 47.4943 26.7251 47.5158C26.1308 47.5876 26.0417 47.5015 26.0714 46.949C26.0937 46.5544 26.2645 46.4468 26.6582 46.6046C26.7696 46.6477 26.8662 46.6836 26.9479 46.5759C27.0147 46.4898 27.0742 46.4038 27.2153 46.4755C27.3341 46.5472 27.4456 46.6118 27.4381 46.7697C27.4307 46.9706 27.4381 47.1786 27.4381 47.3795C27.453 47.8172 27.6015 47.9607 28.0472 47.9678ZM39.3894 46.3033C39.5157 46.8414 39.6791 47.3221 39.8796 47.7885C39.9688 47.9894 40.1099 47.975 40.2733 47.9678C40.3996 47.9607 40.563 48.0109 40.6224 47.8387C40.7709 47.3652 40.9938 46.906 41.0978 46.4181C41.1201 46.2961 41.172 46.1598 40.9938 46.1311C40.8527 46.1024 40.6892 46.0881 40.615 46.2603C40.563 46.3894 40.5258 46.5329 40.4738 46.6692C40.4144 46.8414 40.4367 47.0495 40.2064 47.1858C40.1173 46.906 40.0356 46.6477 39.9539 46.3894C39.9168 46.2603 39.8351 46.0665 39.7162 46.1383C39.3894 46.3248 39.0848 46.0522 38.7803 46.1598C38.6986 46.1885 38.6169 46.1885 38.5278 46.1598C38.2381 46.0594 38.1118 46.167 38.1118 46.4611C38.1192 46.8701 38.1192 47.2719 38.1118 47.6808C38.1044 47.8961 38.1861 47.975 38.4089 47.9822C38.654 47.9822 38.6986 47.8674 38.6837 47.6665C38.6689 47.5015 38.6912 47.3293 38.6837 47.1643C38.6689 46.8486 38.706 46.5831 39.1146 46.5544C39.2408 46.5401 39.2631 46.4038 39.3894 46.3033ZM4.33781 46.7481C4.33038 46.8199 4.33038 46.8916 4.33038 46.9634C4.33038 48.0181 4.33038 48.0252 5.41483 47.9607C5.77137 47.9391 6.04619 47.7813 6.18732 47.4513C6.37301 47.028 6.33588 46.5903 6.23189 46.1598C6.17989 45.9302 6.01648 45.7796 5.80108 45.6576C5.42969 45.4423 5.03602 45.5643 4.64977 45.5284C4.41951 45.5069 4.33781 45.6217 4.33781 45.8226C4.33781 46.1311 4.33781 46.4396 4.33781 46.7481ZM8.40822 47.358C8.40822 47.6808 8.40822 48.0037 8.40822 48.3266C8.40822 48.5346 8.49735 48.6423 8.71276 48.6423C8.91331 48.6423 9.00244 48.5346 8.98016 48.3409C8.93559 48.0539 9.08415 48.0037 9.34412 48.0109C9.86406 48.0252 10.1389 47.7598 10.1537 47.2504C10.1612 47.0925 10.1612 46.9419 10.1537 46.784C10.1315 46.289 9.72293 45.9733 9.21784 46.0737C9.06186 46.1024 8.90588 46.1455 8.74247 46.1239C8.50478 46.0952 8.40079 46.1885 8.40079 46.4253C8.41565 46.7338 8.40822 47.0495 8.40822 47.358ZM35.2521 45.5356C35.2521 45.5284 35.2521 45.5284 35.2521 45.5213C35.2001 45.5213 35.1556 45.5213 35.1036 45.5213C34.6133 45.5213 34.3682 45.7006 34.2865 46.1096C34.2271 46.4181 34.4796 46.7768 34.8585 46.906C34.9847 46.949 35.1259 46.9634 35.2521 46.9992C35.423 47.0495 35.4824 47.1714 35.4601 47.3293C35.4378 47.4871 35.319 47.5517 35.1704 47.5445C35.0144 47.5302 34.851 47.5015 34.695 47.48C34.5316 47.4513 34.3905 47.48 34.3608 47.6593C34.3311 47.8243 34.4128 47.932 34.5911 47.9607C34.9179 48.0109 35.2447 48.0396 35.5789 47.975C35.8018 47.932 35.9652 47.8028 35.9875 47.6163C36.0766 47.0423 36.1286 46.6046 35.3041 46.5186C35.2447 46.5114 35.1778 46.5042 35.1259 46.4898C34.9699 46.4468 34.8956 46.3392 34.903 46.1957C34.9104 46.0594 35.0367 46.002 35.1704 46.002C35.319 46.0091 35.4601 46.0307 35.6087 46.0522C35.7944 46.0881 35.8983 46.0235 35.9206 45.8441C35.9355 45.6863 35.8909 45.55 35.6904 45.5428C35.5492 45.5356 35.4007 45.5356 35.2521 45.5356ZM17.8638 45.5284C17.7746 45.5284 17.6929 45.5356 17.6261 45.5284C17.2398 45.471 17.1358 45.6361 17.1581 45.9876C17.1878 46.5329 17.173 47.0853 17.1655 47.6306C17.1655 47.8315 17.173 47.975 17.4478 47.975C17.7152 47.975 17.7746 47.8602 17.7375 47.645C17.6855 47.3006 17.7746 47.1212 18.198 47.1427C18.5471 47.1571 18.8219 46.949 18.9111 46.619C19.0448 46.1168 18.8888 45.7652 18.5025 45.5787C18.2946 45.4782 18.0643 45.5571 17.8638 45.5284ZM8.14082 46.9419C8.14082 46.3679 7.90313 46.0952 7.40547 46.0665C6.93752 46.0378 6.65527 46.2746 6.55871 46.7697C6.51414 46.9706 6.51414 47.1643 6.55128 47.3723C6.64041 47.8387 6.83353 48.0037 7.32377 48.0181C7.47232 48.0252 7.62088 48.0037 7.762 47.9894C7.94027 47.975 8.11111 47.9391 8.07397 47.6952C8.0294 47.4441 7.85114 47.5517 7.70258 47.5517C7.53174 47.5445 7.24206 47.6665 7.22721 47.4513C7.20492 47.1858 7.50946 47.3293 7.65802 47.3149C7.9477 47.2934 8.23738 47.3149 8.14082 46.9419ZM43.846 47.071C43.846 47.6378 43.9723 47.8817 44.3214 47.9678C44.6185 48.0468 44.9082 48.0109 45.1979 47.9607C45.3613 47.932 45.3836 47.8315 45.3687 47.7024C45.3539 47.5732 45.2647 47.523 45.1385 47.5302C45.0642 47.5374 44.9899 47.566 44.9156 47.5517C44.7671 47.5302 44.4997 47.645 44.5071 47.4082C44.5145 47.2073 44.7671 47.3293 44.9156 47.3006C44.9602 47.2934 45.0122 47.2934 45.0642 47.3006C45.3836 47.3508 45.4801 47.1643 45.4876 46.906C45.5099 46.332 45.1459 46.0163 44.5517 46.0881C44.0169 46.1598 43.846 46.4038 43.846 47.071ZM23.7168 47.0854C23.7317 47.2504 23.6797 47.4369 23.7837 47.6234C23.9917 47.9894 24.3408 48.0898 24.987 47.975C25.1578 47.9463 25.2692 47.8961 25.2469 47.7095C25.2247 47.5158 25.091 47.5302 24.9498 47.5373C24.8013 47.5445 24.6527 47.5589 24.5042 47.5517C24.415 47.5517 24.3185 47.5087 24.3185 47.4154C24.311 47.2934 24.4225 47.3078 24.5042 47.3006C24.675 47.3006 24.8533 47.3006 25.0241 47.3006C25.143 47.3006 25.2767 47.2934 25.2915 47.1714C25.3286 46.8916 25.3732 46.5903 25.1801 46.3464C25.0093 46.1383 24.779 46.0522 24.4967 46.0809C23.8877 46.1526 23.7168 46.3607 23.7168 47.0854ZM31.5754 47.0495C31.5754 47.2432 31.5754 47.4297 31.5754 47.6234C31.5754 47.81 31.5531 47.975 31.8428 47.975C32.1473 47.975 32.1399 47.8028 32.1325 47.6019C32.125 47.3365 32.1325 47.0782 32.1325 46.8127C32.1325 46.662 32.1399 46.5257 32.3627 46.5186C32.5856 46.5114 32.6301 46.6405 32.6301 46.8127C32.6301 47.1212 32.6376 47.4297 32.6301 47.7454C32.6301 47.9894 32.8084 47.9607 32.9644 47.9607C33.1352 47.9607 33.2318 47.9176 33.2169 47.7095C33.1872 47.3867 33.2021 47.0638 33.1946 46.7481C33.1798 46.3535 33.0015 46.1742 32.6153 46.0809C32.3999 46.0235 32.2142 46.2172 32.0508 46.167C31.4863 45.9948 31.5754 46.3535 31.5754 46.6549C31.5754 46.784 31.5754 46.9132 31.5754 47.0495ZM10.3394 47.0351C10.3394 47.7239 10.5771 48.0109 11.1565 48.0109C11.773 48.0109 12.0627 47.7239 12.0701 47.1069C12.0775 46.4468 11.7656 46.0737 11.1862 46.0594C10.644 46.0522 10.3469 46.3966 10.3394 47.0351ZM37.8147 46.7912C37.8593 46.5616 37.7924 46.332 37.5399 46.1813C37.2576 46.0163 36.9382 46.0163 36.656 46.1526C36.396 46.2746 36.2623 46.5042 36.2623 46.7912C36.2623 46.9921 36.2549 47.2001 36.2772 47.401C36.3143 47.7526 36.5148 47.9607 36.8937 48.0037C37.1314 48.0252 37.3616 47.9965 37.5919 47.9607C37.7479 47.9391 37.7998 47.8674 37.7998 47.7239C37.7998 47.5589 37.7033 47.523 37.5622 47.5302C37.4879 47.5374 37.4136 47.5589 37.3393 47.5517C37.1685 47.5373 36.8937 47.6378 36.8937 47.3939C36.8937 47.2145 37.1611 47.3078 37.3022 47.3078C37.8147 47.2934 37.8147 47.3006 37.8147 46.7912ZM22.1199 47.0638C22.1199 46.5544 21.9862 46.2674 21.6965 46.1455C21.2582 45.9589 20.7531 46.0952 20.56 46.4468C20.2926 46.949 20.404 47.7024 20.7754 47.9248C20.8274 47.9535 20.8868 47.9678 20.9463 47.9822C21.7485 48.1687 22.1199 47.8674 22.1199 47.0638ZM31.2708 47.0854C31.2708 47.0495 31.2708 47.0136 31.2708 46.9777C31.308 46.3607 30.9217 46.0881 30.4315 46.0665C29.8893 46.045 29.5773 46.3966 29.5773 47.0064C29.5773 47.114 29.5773 47.2217 29.5847 47.3293C29.6145 47.7024 29.8819 47.9678 30.2607 48.0181C30.8475 48.0898 31.3303 47.8028 31.2708 47.0854ZM12.8129 48.0109C13.3477 48.0252 13.6596 47.8387 13.7116 47.5302C13.7711 47.2217 13.5854 46.9347 13.2734 46.8342C13.1248 46.784 12.8352 46.8701 12.8649 46.6477C12.8946 46.4109 13.1694 46.5616 13.3328 46.5401C13.4517 46.5257 13.5557 46.5186 13.5705 46.3751C13.5928 46.2387 13.5037 46.1813 13.3922 46.1383C13.1026 46.0307 12.8129 46.0307 12.5306 46.167C12.2929 46.2818 12.2409 46.4755 12.2558 46.7051C12.2632 46.9419 12.3449 47.1212 12.5975 47.2001C12.7832 47.2575 13.1248 47.2719 13.0803 47.4656C13.0283 47.6737 12.7237 47.5445 12.5232 47.5015C12.3598 47.4656 12.2632 47.566 12.2409 47.7095C12.2112 47.8459 12.2855 47.9391 12.4341 47.9607C12.5975 47.9822 12.7535 48.0037 12.8129 48.0109ZM42.7542 47.071C42.7393 46.5257 42.8136 46.4755 43.3484 46.6262C43.4524 46.6549 43.5415 46.6549 43.6009 46.5472C43.6603 46.4324 43.6975 46.3248 43.5861 46.2172C43.3187 45.9589 42.561 46.0235 42.3234 46.3248C42.0931 46.619 42.0708 47.4154 42.2936 47.7239C42.4719 47.9822 42.9399 48.0683 43.4152 47.9535C43.5861 47.9104 43.6455 47.8315 43.6232 47.6737C43.6009 47.5015 43.4969 47.4871 43.3261 47.5087C42.8136 47.6091 42.769 47.5589 42.7542 47.071ZM22.5358 47.1786C22.5358 47.9176 22.6918 48.0611 23.3826 47.9678C23.494 47.9535 23.5831 47.932 23.5831 47.81C23.5831 47.7024 23.5608 47.5517 23.4346 47.5589C22.9963 47.5732 23.0929 47.2862 23.0929 47.0495C23.0929 46.8271 23.0112 46.5544 23.3974 46.5329C23.5163 46.5257 23.5311 46.4109 23.5237 46.3105C23.5163 46.1957 23.442 46.1239 23.3306 46.1311C23.13 46.1383 23.078 46.045 23.0855 45.8728C23.0929 45.6863 22.9518 45.6719 22.8106 45.6719C22.6844 45.6719 22.5358 45.6648 22.5358 45.837C22.5358 46.0378 22.4987 46.167 22.2758 46.2387C22.1793 46.2674 22.1941 46.4468 22.2684 46.4827C22.6398 46.6262 22.5135 46.9203 22.5358 47.1786ZM41.2612 47.0854C41.2612 47.3293 41.2686 47.5158 41.2612 47.7095C41.2463 47.932 41.38 47.9607 41.5583 47.9678C41.7514 47.975 41.8628 47.9176 41.8554 47.7095C41.848 47.2719 41.8628 46.8271 41.8554 46.3894C41.848 46.21 41.7217 46.0307 41.8777 45.8441C42.0114 45.6863 41.9074 45.55 41.7811 45.4423C41.6623 45.3491 41.5286 45.3634 41.4023 45.4352C41.2463 45.5356 41.224 45.6791 41.276 45.8441C41.3058 45.9374 41.4617 45.9948 41.3875 46.1239C41.2018 46.4468 41.2835 46.7984 41.2612 47.0854ZM15.0561 47.1356C15.0561 47.9176 15.1229 47.9894 15.7766 47.9607C15.9103 47.9535 16.0737 47.9822 16.0811 47.7885C16.0885 47.6306 16.0068 47.5158 15.8137 47.5302C15.6206 47.5445 15.5537 47.4369 15.5537 47.2647C15.5537 47.1212 15.5537 46.9777 15.5463 46.8342C15.5389 46.6549 15.5983 46.5257 15.8137 46.5257C15.9474 46.5257 16.0365 46.454 16.0291 46.332C16.0291 46.1957 15.9474 46.1024 15.7988 46.1168C15.6057 46.1311 15.576 46.0163 15.5686 45.8728C15.5537 45.6576 15.316 45.5858 15.2343 45.6719C15.0412 45.88 14.9224 46.1598 14.7812 46.4109C14.7738 46.4253 14.7961 46.4683 14.8109 46.4683C15.212 46.5975 14.9966 46.9275 15.0561 47.1356ZM19.2379 47.0423C19.2379 47.2575 19.2453 47.4728 19.2379 47.688C19.2305 47.8817 19.2899 47.9678 19.5053 47.9678C19.7207 47.9678 19.743 47.8602 19.743 47.6952C19.7355 47.5015 19.743 47.3149 19.743 47.1212C19.743 46.8414 19.7801 46.5903 20.1515 46.5544C20.2852 46.5401 20.3446 46.4396 20.3372 46.3248C20.3223 46.1885 20.2332 46.1096 20.0847 46.1168C19.8544 46.1383 19.639 46.21 19.4013 46.1311C19.2602 46.0881 19.2527 46.2531 19.2453 46.3607C19.2379 46.5903 19.2379 46.8199 19.2379 47.0423ZM28.7528 47.0351C28.7528 47.2575 28.7603 47.4871 28.7528 47.7095C28.7454 47.8602 28.7826 47.9535 28.9757 47.9607C29.1688 47.9678 29.2356 47.8889 29.2356 47.7095C29.2282 47.2934 29.2282 46.8773 29.2356 46.4611C29.2356 46.2961 29.1985 46.1957 28.9905 46.1957C28.79 46.1957 28.738 46.289 28.7528 46.4611C28.7603 46.6549 28.7528 46.8486 28.7528 47.0351ZM14.5213 45.6648C14.5361 45.4782 14.395 45.3993 14.2316 45.3921C14.0162 45.385 13.9345 45.5571 13.927 45.7222C13.9196 45.9159 14.0756 45.9733 14.2539 45.9733C14.4618 45.9804 14.5287 45.8657 14.5213 45.6648ZM28.9608 45.3921C28.7826 45.3778 28.7083 45.5069 28.7083 45.6791C28.7083 45.8441 28.7677 45.9733 28.9831 45.9804C29.1985 45.9876 29.2802 45.8657 29.2802 45.7006C29.2728 45.5428 29.2134 45.3921 28.9608 45.3921ZM31.3526 47.9104C31.3897 47.9104 31.4268 47.9104 31.4714 47.9104C31.4714 47.3795 31.4714 46.8486 31.4714 46.3177C31.3154 46.8486 31.36 47.3795 31.3526 47.9104ZM29.4808 46.5759C29.451 46.5759 29.4213 46.5759 29.3916 46.5759C29.3916 47.0208 29.3916 47.4728 29.3916 47.9176C29.503 47.4728 29.503 47.0208 29.4808 46.5759Z" fill="#B1B1B1"/>
<path d="M4.2019 48.9525V47.0617H4.9462C5.15885 47.0617 5.3488 47.0993 5.51605 47.1746C5.6844 47.2491 5.81565 47.3556 5.90979 47.4941C6.00394 47.6318 6.05101 47.7885 6.05101 47.9642V48.0512C6.05101 48.227 6.00449 48.3832 5.91146 48.52C5.81953 48.6568 5.68939 48.7629 5.52103 48.8382C5.35268 48.9135 5.16273 48.9516 4.95118 48.9525H4.2019ZM4.70032 47.3772V48.6395H4.94121C5.13615 48.6395 5.28512 48.5897 5.38812 48.4902C5.49113 48.3906 5.54374 48.2482 5.54595 48.0629V47.9629C5.54595 47.7707 5.49501 47.6253 5.39311 47.5266C5.29121 47.427 5.14224 47.3772 4.9462 47.3772H4.70032Z" fill="#E5E5E5"/>
<path d="M7.21065 48.9785C6.94705 48.9785 6.73217 48.9153 6.56604 48.7889C6.40101 48.6625 6.31849 48.4941 6.31849 48.2837V48.2473C6.31849 48.1062 6.35338 47.9802 6.42316 47.8694C6.49294 47.7577 6.59151 47.672 6.71888 47.6123C6.84736 47.5517 6.99356 47.5214 7.15749 47.5214C7.40337 47.5214 7.59664 47.582 7.7373 47.7032C7.87907 47.8244 7.94996 47.9962 7.94996 48.2187V48.372H6.80527C6.82078 48.4638 6.8673 48.5373 6.94483 48.5928C7.02347 48.6482 7.1226 48.6759 7.24222 48.6759C7.42718 48.6759 7.57172 48.6235 7.67583 48.5187L7.91175 48.7252C7.83976 48.8049 7.74229 48.8672 7.61935 48.9122C7.49641 48.9564 7.36017 48.9785 7.21065 48.9785ZM7.15582 47.8253C7.06057 47.8253 6.98304 47.8504 6.92323 47.9006C6.86453 47.9508 6.82687 48.0227 6.81026 48.1162H7.47813V48.0863C7.47592 48.0032 7.44712 47.9391 7.39174 47.8941C7.33636 47.8482 7.25772 47.8253 7.15582 47.8253Z" fill="#E5E5E5"/>
<path d="M9.84226 48.2629C9.84226 48.4793 9.77913 48.6529 9.65287 48.7837C9.52771 48.9135 9.35825 48.9785 9.14449 48.9785C8.96284 48.9785 8.81609 48.9291 8.70422 48.8304V49.4927H8.22409V47.5474H8.66933L8.68595 47.685C8.80224 47.5759 8.95398 47.5214 9.14116 47.5214C9.36268 47.5214 9.53491 47.5854 9.65785 47.7136C9.78079 47.8417 9.84226 48.0183 9.84226 48.2434V48.2629ZM9.36213 48.2356C9.36213 48.1049 9.33222 48.004 9.27241 47.933C9.21371 47.8621 9.12787 47.8266 9.0149 47.8266C8.86427 47.8266 8.76071 47.8716 8.70422 47.9616V48.5369C8.76293 48.6296 8.86759 48.6759 9.01822 48.6759C9.24749 48.6759 9.36213 48.5291 9.36213 48.2356Z" fill="#E5E5E5"/>
<path d="M10.0665 48.2369C10.0665 48.0975 10.1009 47.9733 10.1696 47.8642C10.2382 47.7551 10.3368 47.6707 10.4653 47.611C10.5949 47.5512 10.7449 47.5214 10.9155 47.5214C11.1581 47.5214 11.3558 47.5794 11.5086 47.6954C11.6626 47.8114 11.7484 47.969 11.7661 48.1681L11.7695 48.2642C11.7695 48.4798 11.6925 48.6529 11.5385 48.7837C11.3846 48.9135 11.178 48.9785 10.9188 48.9785C10.6597 48.9785 10.4525 48.9135 10.2975 48.7837C10.1435 48.6538 10.0665 48.4772 10.0665 48.2538V48.2369ZM10.5467 48.2642C10.5467 48.3975 10.5788 48.4997 10.643 48.5707C10.7073 48.6408 10.7992 48.6759 10.9188 48.6759C11.0351 48.6759 11.1259 48.6412 11.1913 48.572C11.2566 48.5019 11.2893 48.3902 11.2893 48.2369C11.2893 48.1062 11.2566 48.0049 11.1913 47.933C11.1259 47.8612 11.034 47.8253 10.9155 47.8253C10.7981 47.8253 10.7073 47.8612 10.643 47.933C10.5788 48.004 10.5467 48.1144 10.5467 48.2642Z" fill="#E5E5E5"/>
<path d="M13.0387 48.5642C13.0387 48.5183 13.0094 48.4824 12.9507 48.4564C12.8931 48.4296 12.8001 48.4058 12.6716 48.385C12.2441 48.3148 12.0303 48.1729 12.0303 47.959C12.0303 47.8344 12.0962 47.7305 12.228 47.6473C12.3609 47.5634 12.5342 47.5214 12.748 47.5214C12.9762 47.5214 13.1584 47.5634 13.2946 47.6473C13.4319 47.7313 13.5006 47.8404 13.5006 47.9746H13.0205C13.0205 47.9209 12.9983 47.8768 12.954 47.8421C12.9097 47.8066 12.8405 47.7889 12.7463 47.7889C12.6655 47.7889 12.6029 47.8032 12.5586 47.8318C12.5143 47.8603 12.4922 47.8967 12.4922 47.9408C12.4922 47.9824 12.5171 48.0162 12.5669 48.0421C12.6179 48.0672 12.7031 48.0893 12.8228 48.1084C12.9424 48.1265 13.0432 48.1473 13.1251 48.1707C13.3788 48.2434 13.5056 48.3694 13.5056 48.5486C13.5056 48.6767 13.4353 48.7806 13.2946 48.8603C13.1539 48.9391 12.9723 48.9785 12.7497 48.9785C12.599 48.9785 12.465 48.9577 12.3476 48.9161C12.2313 48.8737 12.1399 48.8161 12.0735 48.7434C12.007 48.6698 11.9738 48.5906 11.9738 48.5057H12.429C12.4334 48.5724 12.465 48.6235 12.5237 48.659C12.5824 48.6945 12.6611 48.7122 12.7596 48.7122C12.8516 48.7122 12.9208 48.6988 12.9673 48.672C13.0149 48.6443 13.0387 48.6083 13.0387 48.5642Z" fill="#E5E5E5"/>
<path d="M14.323 48.9525H13.8412V47.5474H14.323V48.9525ZM13.8129 47.1837C13.8129 47.1275 13.8368 47.0811 13.8844 47.0448C13.9331 47.0084 13.999 46.9902 14.0821 46.9902C14.164 46.9902 14.2294 47.0084 14.2781 47.0448C14.3269 47.0811 14.3512 47.1275 14.3512 47.1837C14.3512 47.2409 14.3263 47.2876 14.2765 47.324C14.2277 47.3603 14.1629 47.3785 14.0821 47.3785C14.0012 47.3785 13.9359 47.3603 13.886 47.324C13.8373 47.2876 13.8129 47.2409 13.8129 47.1837Z" fill="#E5E5E5"/>
<path d="M15.2949 47.2019V47.5474H15.6022V47.8227H15.2949V48.5239C15.2949 48.5759 15.3076 48.6131 15.3331 48.6356C15.3586 48.6581 15.4073 48.6694 15.4793 48.6694C15.5325 48.6694 15.5795 48.6663 15.6205 48.6603V48.9447C15.5264 48.9672 15.4295 48.9785 15.3298 48.9785C14.9931 48.9785 14.8214 48.8456 14.8147 48.5798V47.8227H14.5523V47.5474H14.8147V47.2019H15.2949Z" fill="#E5E5E5"/>
<path d="M17.247 48.2863V48.9525H16.7486V47.0617H17.6922C17.8739 47.0617 18.0334 47.0876 18.1707 47.1396C18.3092 47.1915 18.4155 47.2655 18.4897 47.3616C18.5639 47.4569 18.601 47.5655 18.601 47.6876C18.601 47.8729 18.5196 48.0192 18.3568 48.1265C18.1951 48.233 17.9708 48.2863 17.6839 48.2863H17.247ZM17.247 47.9707H17.6922C17.824 47.9707 17.9243 47.9465 17.993 47.898C18.0627 47.8495 18.0976 47.7802 18.0976 47.6902C18.0976 47.5976 18.0627 47.5227 17.993 47.4655C17.9232 47.4084 17.8268 47.379 17.7039 47.3772H17.247V47.9707Z" fill="#E5E5E5"/>
<path d="M19.9235 47.8993C19.8581 47.8924 19.8005 47.8889 19.7507 47.8889C19.569 47.8889 19.45 47.9369 19.3935 48.033V48.9525H18.9134V47.5474H19.3669L19.3802 47.7149C19.4766 47.5859 19.61 47.5214 19.7806 47.5214C19.8338 47.5214 19.8836 47.527 19.9301 47.5383L19.9235 47.8993Z" fill="#E5E5E5"/>
<path d="M20.0215 48.2369C20.0215 48.0975 20.0558 47.9733 20.1245 47.8642C20.1932 47.7551 20.2917 47.6707 20.4202 47.611C20.5498 47.5512 20.6999 47.5214 20.8705 47.5214C21.113 47.5214 21.3107 47.5794 21.4636 47.6954C21.6175 47.8114 21.7034 47.969 21.7211 48.1681L21.7244 48.2642C21.7244 48.4798 21.6474 48.6529 21.4935 48.7837C21.3395 48.9135 21.1329 48.9785 20.8738 48.9785C20.6146 48.9785 20.4075 48.9135 20.2524 48.7837C20.0985 48.6538 20.0215 48.4772 20.0215 48.2538V48.2369ZM20.5016 48.2642C20.5016 48.3975 20.5337 48.4997 20.598 48.5707C20.6622 48.6408 20.7542 48.6759 20.8738 48.6759C20.9901 48.6759 21.0809 48.6412 21.1462 48.572C21.2116 48.5019 21.2443 48.3902 21.2443 48.2369C21.2443 48.1062 21.2116 48.0049 21.1462 47.933C21.0809 47.8612 20.989 47.8253 20.8705 47.8253C20.753 47.8253 20.6622 47.8612 20.598 47.933C20.5337 48.004 20.5016 48.1144 20.5016 48.2642Z" fill="#E5E5E5"/>
<path d="M22.595 47.2019V47.5474H22.9023V47.8227H22.595V48.5239C22.595 48.5759 22.6077 48.6131 22.6332 48.6356C22.6586 48.6581 22.7074 48.6694 22.7794 48.6694C22.8325 48.6694 22.8796 48.6663 22.9206 48.6603V48.9447C22.8264 48.9672 22.7295 48.9785 22.6298 48.9785C22.2931 48.9785 22.1215 48.8456 22.1148 48.5798V47.8227H21.8523V47.5474H22.1148V47.2019H22.595Z" fill="#E5E5E5"/>
<path d="M23.9972 48.9785C23.7335 48.9785 23.5187 48.9153 23.3525 48.7889C23.1875 48.6625 23.105 48.4941 23.105 48.2837V48.2473C23.105 48.1062 23.1399 47.9802 23.2097 47.8694C23.2794 47.7577 23.378 47.672 23.5054 47.6123C23.6339 47.5517 23.7801 47.5214 23.944 47.5214C24.1899 47.5214 24.3831 47.582 24.5238 47.7032C24.6656 47.8244 24.7365 47.9962 24.7365 48.2187V48.372H23.5918C23.6073 48.4638 23.6538 48.5373 23.7313 48.5928C23.81 48.6482 23.9091 48.6759 24.0287 48.6759C24.2137 48.6759 24.3582 48.6235 24.4623 48.5187L24.6983 48.7252C24.6263 48.8049 24.5288 48.8672 24.4059 48.9122C24.2829 48.9564 24.1467 48.9785 23.9972 48.9785ZM23.9423 47.8253C23.8471 47.8253 23.7695 47.8504 23.7097 47.9006C23.651 47.9508 23.6134 48.0227 23.5968 48.1162H24.2646V48.0863C24.2624 48.0032 24.2336 47.9391 24.1782 47.8941C24.1229 47.8482 24.0442 47.8253 23.9423 47.8253Z" fill="#E5E5E5"/>
<path d="M25.7582 48.6759C25.8468 48.6759 25.9188 48.6568 25.9742 48.6187C26.0296 48.5806 26.0584 48.53 26.0606 48.4668H26.5108C26.5097 48.562 26.4765 48.6495 26.4111 48.7291C26.3458 48.8079 26.2561 48.8694 26.142 48.9135C26.029 48.9568 25.9039 48.9785 25.7665 48.9785C25.5096 48.9785 25.3069 48.9148 25.1585 48.7876C25.01 48.6594 24.9358 48.4828 24.9358 48.2577V48.233C24.9358 48.0166 25.0095 47.8439 25.1568 47.7149C25.3041 47.5859 25.5062 47.5214 25.7632 47.5214C25.988 47.5214 26.168 47.5716 26.3031 47.672C26.4394 47.7716 26.5086 47.9045 26.5108 48.0707H26.0606C26.0584 47.998 26.0296 47.9391 25.9742 47.8941C25.9188 47.8482 25.8457 47.8253 25.7549 47.8253C25.643 47.8253 25.5583 47.8573 25.5007 47.9214C25.4442 47.9846 25.416 48.0876 25.416 48.2304V48.2694C25.416 48.414 25.4442 48.5179 25.5007 48.5811C25.5572 48.6443 25.643 48.6759 25.7582 48.6759Z" fill="#E5E5E5"/>
<path d="M27.3598 47.2019V47.5474H27.6671V47.8227H27.3598V48.5239C27.3598 48.5759 27.3725 48.6131 27.398 48.6356C27.4235 48.6581 27.4722 48.6694 27.5442 48.6694C27.5973 48.6694 27.6444 48.6663 27.6854 48.6603V48.9447C27.5913 48.9672 27.4943 48.9785 27.3947 48.9785C27.058 48.9785 26.8863 48.8456 26.8796 48.5798V47.8227H26.6171V47.5474H26.8796V47.2019H27.3598Z" fill="#E5E5E5"/>
<path d="M28.4413 48.9525H27.9595V47.5474H28.4413V48.9525ZM27.9313 47.1837C27.9313 47.1275 27.9551 47.0811 28.0027 47.0448C28.0515 47.0084 28.1174 46.9902 28.2004 46.9902C28.2824 46.9902 28.3477 47.0084 28.3965 47.0448C28.4452 47.0811 28.4696 47.1275 28.4696 47.1837C28.4696 47.2409 28.4446 47.2876 28.3948 47.324C28.3461 47.3603 28.2813 47.3785 28.2004 47.3785C28.1196 47.3785 28.0542 47.3603 28.0044 47.324C27.9557 47.2876 27.9313 47.2409 27.9313 47.1837Z" fill="#E5E5E5"/>
<path d="M28.7636 48.2369C28.7636 48.0975 28.798 47.9733 28.8666 47.8642C28.9353 47.7551 29.0339 47.6707 29.1624 47.611C29.2919 47.5512 29.442 47.5214 29.6126 47.5214C29.8552 47.5214 30.0529 47.5794 30.2057 47.6954C30.3597 47.8114 30.4455 47.969 30.4632 48.1681L30.4665 48.2642C30.4665 48.4798 30.3896 48.6529 30.2356 48.7837C30.0817 48.9135 29.8751 48.9785 29.6159 48.9785C29.3567 48.9785 29.1496 48.9135 28.9946 48.7837C28.8406 48.6538 28.7636 48.4772 28.7636 48.2538V48.2369ZM29.2438 48.2642C29.2438 48.3975 29.2759 48.4997 29.3401 48.5707C29.4044 48.6408 29.4963 48.6759 29.6159 48.6759C29.7322 48.6759 29.823 48.6412 29.8884 48.572C29.9537 48.5019 29.9864 48.3902 29.9864 48.2369C29.9864 48.1062 29.9537 48.0049 29.8884 47.933C29.823 47.8612 29.7311 47.8253 29.6126 47.8253C29.4952 47.8253 29.4044 47.8612 29.3401 47.933C29.2759 48.004 29.2438 48.1144 29.2438 48.2642Z" fill="#E5E5E5"/>
<path d="M31.2042 47.5474L31.2191 47.7097C31.3476 47.5841 31.5198 47.5214 31.7358 47.5214C31.9263 47.5214 32.0681 47.5651 32.1611 47.6525C32.2542 47.74 32.3018 47.8707 32.304 48.0447V48.9525H31.8239V48.0538C31.8239 47.9742 31.8017 47.9166 31.7574 47.8811C31.7131 47.8447 31.6395 47.8266 31.5365 47.8266C31.4013 47.8266 31.3 47.8716 31.2324 47.9616V48.9525H30.7523V47.5474H31.2042Z" fill="#E5E5E5"/>
<path d="M34.8027 48.4564C34.8027 48.3828 34.7695 48.3265 34.703 48.2876C34.6366 48.2478 34.517 48.2062 34.3442 48.1629C34.1714 48.1188 34.0346 48.0755 33.9338 48.033C33.6591 47.917 33.5218 47.7608 33.5218 47.5642C33.5218 47.4621 33.5583 47.3712 33.6315 47.2915C33.7057 47.211 33.8114 47.1482 33.9488 47.1032C34.0872 47.0582 34.2423 47.0357 34.414 47.0357C34.5867 47.0357 34.7407 47.0604 34.8758 47.1097C35.0109 47.1582 35.1156 47.227 35.1898 47.3162C35.2651 47.4054 35.3028 47.5067 35.3028 47.6201H34.8044C34.8044 47.5335 34.7695 47.4664 34.6997 47.4188C34.6299 47.3703 34.5319 47.3461 34.4056 47.3461C34.2838 47.3461 34.1891 47.3664 34.1216 47.4071C34.054 47.4469 34.0202 47.4997 34.0202 47.5655C34.0202 47.627 34.0595 47.6785 34.1382 47.7201C34.2179 47.7616 34.3348 47.8006 34.4887 47.8369C34.7723 47.9036 34.9788 47.9863 35.1084 48.085C35.238 48.1837 35.3028 48.3066 35.3028 48.4538C35.3028 48.6174 35.2236 48.746 35.0652 48.8395C34.9068 48.9321 34.6936 48.9785 34.4256 48.9785C34.2395 48.9785 34.0701 48.952 33.9172 48.8992C33.7644 48.8456 33.6475 48.7724 33.5667 48.6798C33.4869 48.5871 33.447 48.4798 33.447 48.3577H33.9471C33.9471 48.5664 34.1066 48.6707 34.4256 48.6707C34.5441 48.6707 34.6366 48.6521 34.703 48.6148C34.7695 48.5767 34.8027 48.5239 34.8027 48.4564Z" fill="#E5E5E5"/>
<path d="M36.4375 48.9785C36.1739 48.9785 35.959 48.9153 35.7929 48.7889C35.6279 48.6625 35.5454 48.4941 35.5454 48.2837V48.2473C35.5454 48.1062 35.5802 47.9802 35.65 47.8694C35.7198 47.7577 35.8184 47.672 35.9457 47.6123C36.0742 47.5517 36.2204 47.5214 36.3843 47.5214C36.6302 47.5214 36.8235 47.582 36.9642 47.7032C37.1059 47.8244 37.1768 47.9962 37.1768 48.2187V48.372H36.0321C36.0476 48.4638 36.0942 48.5373 36.1717 48.5928C36.2503 48.6482 36.3495 48.6759 36.4691 48.6759C36.654 48.6759 36.7986 48.6235 36.9027 48.5187L37.1386 48.7252C37.0666 48.8049 36.9691 48.8672 36.8462 48.9122C36.7233 48.9564 36.587 48.9785 36.4375 48.9785ZM36.3827 47.8253C36.2874 47.8253 36.2099 47.8504 36.1501 47.9006C36.0914 47.9508 36.0537 48.0227 36.0371 48.1162H36.705V48.0863C36.7028 48.0032 36.674 47.9391 36.6186 47.8941C36.5632 47.8482 36.4846 47.8253 36.3827 47.8253Z" fill="#E5E5E5"/>
<path d="M38.4611 47.8993C38.3957 47.8924 38.3381 47.8889 38.2883 47.8889C38.1066 47.8889 37.9876 47.9369 37.9311 48.033V48.9525H37.4509V47.5474H37.9045L37.9178 47.7149C38.0142 47.5859 38.1476 47.5214 38.3182 47.5214C38.3713 47.5214 38.4212 47.527 38.4677 47.5383L38.4611 47.8993Z" fill="#E5E5E5"/>
<path d="M39.3964 48.4941L39.7303 47.5474H40.2321L39.6257 48.9525H39.1671L38.5607 47.5474H39.0625L39.3964 48.4941Z" fill="#E5E5E5"/>
<path d="M40.9515 48.9525H40.4697V47.5474H40.9515V48.9525ZM40.4414 47.1837C40.4414 47.1275 40.4652 47.0811 40.5129 47.0448C40.5616 47.0084 40.6275 46.9902 40.7106 46.9902C40.7925 46.9902 40.8579 47.0084 40.9066 47.0448C40.9553 47.0811 40.9797 47.1275 40.9797 47.1837C40.9797 47.2409 40.9548 47.2876 40.9049 47.324C40.8562 47.3603 40.7914 47.3785 40.7106 47.3785C40.6297 47.3785 40.5644 47.3603 40.5145 47.324C40.4658 47.2876 40.4414 47.2409 40.4414 47.1837Z" fill="#E5E5E5"/>
<path d="M42.0961 48.6759C42.1847 48.6759 42.2567 48.6568 42.3121 48.6187C42.3675 48.5806 42.3963 48.53 42.3985 48.4668H42.8487C42.8476 48.562 42.8144 48.6495 42.7491 48.7291C42.6837 48.8079 42.594 48.8694 42.4799 48.9135C42.3669 48.9568 42.2418 48.9785 42.1045 48.9785C41.8475 48.9785 41.6448 48.9148 41.4964 48.7876C41.348 48.6594 41.2738 48.4828 41.2738 48.2577V48.233C41.2738 48.0166 41.3474 47.8439 41.4947 47.7149C41.642 47.5859 41.8442 47.5214 42.1011 47.5214C42.326 47.5214 42.506 47.5716 42.6411 47.672C42.7773 47.7716 42.8465 47.9045 42.8487 48.0707H42.3985C42.3963 47.998 42.3675 47.9391 42.3121 47.8941C42.2567 47.8482 42.1836 47.8253 42.0928 47.8253C41.981 47.8253 41.8962 47.8573 41.8386 47.9214C41.7821 47.9846 41.7539 48.0876 41.7539 48.2304V48.2694C41.7539 48.414 41.7821 48.5179 41.8386 48.5811C41.8951 48.6443 41.981 48.6759 42.0961 48.6759Z" fill="#E5E5E5"/>
<path d="M43.9502 48.9785C43.6866 48.9785 43.4718 48.9153 43.3056 48.7889C43.1406 48.6625 43.0581 48.4941 43.0581 48.2837V48.2473C43.0581 48.1062 43.093 47.9802 43.1627 47.8694C43.2325 47.7577 43.3311 47.672 43.4585 47.6123C43.5869 47.5517 43.7331 47.5214 43.8971 47.5214C44.143 47.5214 44.3362 47.582 44.4769 47.7032C44.6187 47.8244 44.6895 47.9962 44.6895 48.2187V48.372H43.5449C43.5604 48.4638 43.6069 48.5373 43.6844 48.5928C43.7631 48.6482 43.8622 48.6759 43.9818 48.6759C44.1668 48.6759 44.3113 48.6235 44.4154 48.5187L44.6513 48.7252C44.5793 48.8049 44.4819 48.8672 44.3589 48.9122C44.236 48.9564 44.0998 48.9785 43.9502 48.9785ZM43.8954 47.8253C43.8002 47.8253 43.7226 47.8504 43.6628 47.9006C43.6041 47.9508 43.5665 48.0227 43.5498 48.1162H44.2177V48.0863C44.2155 48.0032 44.1867 47.9391 44.1313 47.8941C44.0759 47.8482 43.9973 47.8253 43.8954 47.8253Z" fill="#E5E5E5"/>
</svg>
