<svg width="99" height="43" viewBox="0 0 99 43" fill="none" xmlns="http://www.w3.org/2000/svg">
<g clip-path="url(#clip0_35384_58550)">
<path d="M52.1387 22.1038C52.1686 18.9893 52.8357 16.3121 54.5294 13.9593C56.4555 11.2822 59.0935 9.73621 62.2936 9.15553C64.9991 8.66536 67.6447 8.90667 70.1778 10.0152C73.3704 11.4104 75.5588 13.7934 76.683 17.104C77.7472 20.2336 77.7771 23.4009 76.7279 26.538C75.4764 30.2709 72.9058 32.7218 69.2035 33.9284C66.0484 34.954 62.8632 34.9088 59.768 33.7022C55.5936 32.0733 53.1804 28.9361 52.371 24.5321C52.3035 24.1625 52.2586 23.7855 52.2211 23.416C52.1761 22.8881 52.1537 22.3753 52.1387 22.1038ZM70.4476 21.9454C70.4401 20.3618 70.2677 18.8083 69.6757 17.3302C68.6489 14.7888 66.513 13.5445 63.86 13.9819C61.814 14.3137 60.5924 15.6485 59.8729 17.5112C59.2434 19.1476 59.131 20.8595 59.176 22.5864C59.2134 23.8609 59.4008 25.1127 59.8729 26.3043C60.7423 28.4686 62.4135 29.5998 64.7818 29.6375C67.0526 29.6752 68.8213 28.5063 69.6981 26.3721C70.2902 24.9544 70.4401 23.4612 70.4476 21.9454Z" fill="#B1B1B1"/>
<path d="M49.6319 13.2276C49.6319 13.9968 49.6244 14.7585 49.6394 15.5277C49.6469 15.7766 49.5719 15.8671 49.3246 15.8444C49.0923 15.8218 48.8525 15.8294 48.6126 15.8444C47.6683 15.9048 46.7465 15.9123 46.0346 15.1205C43.8687 13.9214 41.6354 13.5896 39.3271 14.6529C37.8882 15.3241 37.0188 16.5382 36.4867 18.0088C35.8047 19.8941 35.7448 21.8397 35.9846 23.808C36.1045 24.8109 36.3593 25.7838 36.8314 26.6812C37.8732 28.6419 39.5594 29.494 41.7103 29.5242C43.7713 29.5544 45.6748 29.1019 47.2337 27.6314C47.3311 27.5409 47.4285 27.5409 47.5409 27.5409C48.178 27.5409 48.815 27.5484 49.452 27.5333C49.6544 27.5258 49.7293 27.5786 49.7293 27.8048C49.7218 29.2226 49.7143 30.6478 49.7293 32.0656C49.7293 32.3295 49.5719 32.4125 49.407 32.5105C47.8632 33.4532 46.1994 34.0791 44.4158 34.3657C41.6728 34.8031 38.9599 34.6824 36.3218 33.7473C32.6121 32.4276 30.2963 29.7881 29.3296 25.9648C28.6101 23.1217 28.6026 20.2636 29.4794 17.4507C30.5586 13.9893 32.762 11.4705 36.097 10.1056C40.5112 8.30323 44.9404 8.48422 49.2946 10.46C49.5494 10.5731 49.6319 10.724 49.6244 11.003C49.6244 11.7496 49.6319 12.4886 49.6319 13.2276Z" fill="#B1B1B1"/>
<path d="M24.3044 20.165C24.3044 23.0532 24.3044 25.9491 24.3044 28.8374C24.3044 29.8026 24.7991 30.2928 25.7509 30.3003C26.1631 30.3003 26.5752 30.3079 26.9874 30.2928C27.2273 30.2853 27.2797 30.3682 27.2797 30.5945C27.2722 31.703 27.2647 32.804 27.2797 33.9126C27.2872 34.2218 27.1898 34.2821 26.905 34.2821C23.6075 34.2746 20.3099 34.2746 17.0124 34.2746C16.248 34.2746 15.491 34.267 14.7266 34.2821C14.4793 34.2897 14.4118 34.2142 14.4118 33.9654C14.4268 32.8493 14.4268 31.7256 14.4118 30.6095C14.4118 30.3531 14.4868 30.2853 14.7266 30.2928C15.1388 30.3079 15.551 30.3003 15.9632 30.3003C16.825 30.3003 17.3346 29.7875 17.3346 28.9203C17.3346 24.2674 17.3346 19.622 17.3346 14.9691C17.3346 14.5845 17.2222 14.2602 16.9824 13.9661C16.7351 13.672 16.4428 13.4985 16.0456 13.5136C15.5435 13.5287 15.0489 13.5061 14.5467 13.5211C14.2919 13.5287 14.202 13.4608 14.2095 13.1893C14.2245 12.0054 14.2245 10.8289 14.2095 9.64496C14.202 9.36594 14.2769 9.29053 14.5617 9.29053C16.4353 9.30561 18.3089 9.29807 20.1825 9.29807C21.1193 9.29807 22.0561 9.29807 22.9929 9.29807C23.6075 9.29807 23.8997 9.51676 24.0871 10.1125C24.252 10.6329 24.2969 11.1683 24.2969 11.7113C24.3119 14.5317 24.3044 17.3445 24.3044 20.165Z" fill="#B1B1B1"/>
<path d="M83.2248 26.8848C85.3981 26.8772 87.1294 28.5891 87.1294 30.7459C87.1294 32.8575 85.4131 34.5542 83.2547 34.5618C81.0813 34.5693 79.3576 32.8801 79.3501 30.7384C79.3426 28.6042 81.0664 26.8848 83.2248 26.8848Z" fill="#B1B1B1"/>
<path d="M20.7591 0.000102951C22.865 0.0151854 24.5138 1.66671 24.4988 3.74054C24.4838 5.7993 22.8125 7.40557 20.7141 7.39049C18.6531 7.37541 16.9819 5.7088 17.0044 3.6953C17.0194 1.62901 18.6906 -0.0149795 20.7591 0.000102951Z" fill="#B1B1B1"/>
<path d="M50.2447 41.6126C50.2447 41.2732 50.2372 40.9339 50.2447 40.5945C50.2447 40.4965 50.1773 40.3381 50.3197 40.3004C50.4546 40.2702 50.6419 40.2325 50.7393 40.3683C50.8368 40.504 50.8967 40.4965 51.0241 40.4286C51.4288 40.2401 51.8485 40.1119 52.2232 40.4965C52.3132 40.587 52.3806 40.504 52.4481 40.4663C52.5755 40.406 52.6954 40.3381 52.8228 40.3004C53.5048 40.1119 53.857 40.3834 53.8645 41.0847C53.8645 41.6126 53.857 42.1405 53.872 42.6684C53.8795 42.8946 53.797 42.9323 53.5947 42.9323C53.3923 42.9323 53.2724 42.9097 53.2799 42.6533C53.3024 42.1782 53.2874 41.7031 53.2874 41.2204C53.2874 40.9867 53.2799 40.7529 52.9427 40.7529C52.583 40.7529 52.3431 40.9414 52.3431 41.2431C52.3431 41.7182 52.3281 42.2008 52.3506 42.6759C52.3581 42.9248 52.2232 42.9248 52.0509 42.9248C51.856 42.9323 51.7511 42.9021 51.7586 42.6608C51.7736 42.2008 51.7661 41.7332 51.7661 41.2657C51.7661 41.0093 51.7886 40.7378 51.4063 40.7453C51.0166 40.7604 50.8368 40.9339 50.8368 41.3034C50.8368 41.7408 50.8218 42.1857 50.8443 42.6231C50.8518 42.8569 50.7768 42.9248 50.552 42.9172C50.3496 42.9097 50.2297 42.8946 50.2447 42.6382C50.2672 42.3215 50.2447 41.967 50.2447 41.6126Z" fill="#B1B1B1"/>
<path d="M49.6941 41.8387C49.6941 42.1027 49.6866 42.3666 49.6941 42.6305C49.7016 42.8341 49.6866 42.9548 49.4243 42.9473C49.177 42.9473 49.102 42.8794 49.1095 42.6305C49.1245 42.163 49.117 41.703 49.117 41.2354C49.117 40.9941 49.0946 40.7754 48.7723 40.7679C48.4276 40.7679 48.1653 40.9639 48.1653 41.2581C48.1653 41.7331 48.1503 42.2158 48.1727 42.6909C48.1802 42.9397 48.0603 42.9397 47.873 42.9473C47.6856 42.9473 47.5657 42.9322 47.5732 42.6909C47.5882 42.1856 47.5732 41.6879 47.5807 41.1826C47.5807 40.9338 47.5132 40.7302 47.2285 40.783C46.9811 40.8282 46.6439 40.798 46.6514 41.2128C46.6589 41.703 46.6364 42.1932 46.6589 42.6833C46.6739 42.9623 46.5165 42.9397 46.3291 42.9473C46.1268 42.9548 46.0444 42.9096 46.0518 42.6833C46.0668 41.9895 46.0518 41.3033 46.0593 40.6095C46.0593 40.5039 45.9919 40.3531 46.1268 40.3154C46.2617 40.2777 46.4715 40.2325 46.5465 40.3757C46.6739 40.602 46.7713 40.4587 46.8987 40.4135C47.2959 40.2702 47.6931 40.1344 48.0378 40.5115C48.1278 40.602 48.1877 40.5341 48.2627 40.4964C48.3976 40.4285 48.5325 40.3531 48.6749 40.323C49.3494 40.1495 49.6791 40.4135 49.6941 41.0997C49.7016 41.341 49.7016 41.5899 49.6941 41.8387Z" fill="#B1B1B1"/>
<path d="M24.3868 41.5974C24.3868 41.2732 24.3793 40.9413 24.3868 40.6171C24.3868 40.5115 24.3269 40.3531 24.4468 40.3079C24.5817 40.2626 24.7915 40.2249 24.8665 40.3607C24.9864 40.5869 25.0913 40.4587 25.2187 40.4059C25.6084 40.2475 26.0056 40.1269 26.3578 40.4889C26.4403 40.5794 26.5077 40.519 26.5902 40.4813C26.7326 40.4134 26.8824 40.3305 27.0323 40.2928C27.6918 40.142 28.0066 40.3984 28.0141 41.0771C28.0141 41.5899 27.9991 42.1102 28.0216 42.6231C28.0291 42.8644 27.9616 42.9398 27.7143 42.9473C27.4295 42.9549 27.4145 42.8191 27.422 42.608C27.4295 42.1329 27.422 41.6502 27.4295 41.1751C27.4295 40.9489 27.3921 40.7754 27.1148 40.7679C26.785 40.7603 26.5002 40.9564 26.5002 41.2053C26.4927 41.6955 26.4852 42.1857 26.5002 42.6759C26.5077 42.9021 26.4178 42.9473 26.2154 42.9473C26.0281 42.9398 25.8782 42.9549 25.8932 42.6834C25.9157 42.1857 25.8932 41.6804 25.9007 41.1751C25.9082 40.9413 25.8407 40.7453 25.5784 40.783C25.3311 40.8207 24.9789 40.798 24.9639 41.1827C24.9414 41.6728 24.9489 42.163 24.9639 42.6532C24.9714 42.8795 24.9039 42.9549 24.6716 42.9549C24.4393 42.9549 24.3643 42.887 24.3793 42.6532C24.4018 42.2988 24.3868 41.9519 24.3868 41.5974Z" fill="#B1B1B1"/>
<path d="M79.0524 41.8321C79.0524 42.1111 79.0374 42.3826 79.0599 42.6616C79.0749 42.903 78.9775 42.9482 78.7601 42.9557C78.5203 42.9633 78.4604 42.8803 78.4679 42.6541C78.4828 42.1187 78.4754 41.5757 78.4754 41.0327C78.4754 40.897 78.5128 40.7461 78.288 40.7537C78.1381 40.7537 78.1531 40.633 78.1606 40.535C78.1606 40.4445 78.1306 40.3012 78.2805 40.3087C78.4604 40.3163 78.4679 40.2183 78.4828 40.075C78.5503 39.5546 78.9025 39.3133 79.4046 39.4189C79.547 39.449 79.622 39.5018 79.622 39.6677C79.622 39.8336 79.562 39.894 79.4046 39.8864C79.3447 39.8789 79.2772 39.894 79.2173 39.9091C79.0824 39.9468 79.0599 40.0599 79.0599 40.173C79.0599 40.3314 79.1798 40.2937 79.2772 40.3012C79.3897 40.3088 79.5021 40.3163 79.6145 40.3163C79.8468 40.3163 80.0192 40.3163 80.0342 39.9769C80.0492 39.5546 80.5738 39.2907 80.971 39.434C81.1134 39.4867 81.1059 39.5923 81.1134 39.7054C81.1209 39.8261 81.0759 39.894 80.941 39.894C80.881 39.894 80.8136 39.9015 80.7611 39.9166C80.6262 39.9543 80.6112 40.0674 80.6037 40.1881C80.6037 40.3465 80.7237 40.3163 80.8211 40.3163C80.971 40.3163 81.1134 40.2861 81.1209 40.5274C81.1283 40.7763 81.0009 40.7989 80.8211 40.7763C80.6262 40.7537 80.6037 40.8593 80.6037 41.0252C80.6112 41.5757 80.5963 42.1262 80.6112 42.6843C80.6187 42.918 80.5438 42.9859 80.3115 42.9784C80.0941 42.9784 80.0042 42.9331 80.0117 42.6918C80.0267 42.1564 80.0042 41.6134 80.0267 41.0704C80.0342 40.8366 79.9592 40.7763 79.7344 40.7688C79.0674 40.7537 79.0674 40.7386 79.0749 41.4022C79.0524 41.5304 79.0524 41.6813 79.0524 41.8321Z" fill="#B1B1B1"/>
<path d="M77.9286 41.2128C77.9286 42.3817 77.1641 43.1057 76.0849 42.9473C75.1406 42.8116 74.5935 41.8237 74.8408 40.6699C75.0357 39.7574 75.92 39.2144 76.7969 39.4708C77.5239 39.682 77.9286 40.3079 77.9286 41.2128ZM75.4179 41.1751C75.4254 41.4165 75.4329 41.6502 75.5228 41.8765C75.6652 42.2535 75.965 42.4722 76.3397 42.4798C76.7295 42.4873 77.0517 42.2686 77.1941 41.8689C77.3665 41.3787 77.359 40.881 77.1492 40.4059C76.9918 40.0666 76.722 39.8931 76.3472 39.9007C75.9875 39.9082 75.7402 40.0741 75.5828 40.4059C75.4554 40.6548 75.4329 40.9112 75.4179 41.1751Z" fill="#B1B1B1"/>
<path d="M40.869 41.2881C40.899 41.6802 40.9214 42.1628 41.4236 42.3966C41.7908 42.5701 42.158 42.4871 42.4802 42.2533C42.5927 42.1704 42.7425 41.9969 42.8475 42.1779C42.9299 42.3287 42.9449 42.555 42.7276 42.7058C41.8507 43.3317 40.5842 42.8868 40.3069 41.8461C40.1945 41.4238 40.187 41.0015 40.2994 40.5792C40.5617 39.5611 41.7758 39.0634 42.6751 39.5913C42.9149 39.7345 42.8774 39.9382 42.825 40.1116C42.78 40.2549 42.6226 40.1795 42.5027 40.1267C41.5285 39.6365 40.8615 40.0814 40.869 41.2881Z" fill="#B1B1B1"/>
<path d="M30.5266 41.9068C30.5266 42.1481 30.5266 42.3819 30.5266 42.6232C30.5266 42.9249 30.3542 43.0606 30.1219 42.9022C29.9421 42.774 29.8296 42.8344 29.6648 42.8872C29.305 43.0154 28.9453 43.0229 28.638 42.759C28.1809 42.3593 28.3607 41.6202 28.9603 41.4015C29.1701 41.3261 29.38 41.3563 29.5898 41.3412C29.7097 41.3336 29.9121 41.4769 29.9196 41.1979C29.9271 40.9792 29.8746 40.7907 29.6198 40.753C29.365 40.7152 29.1252 40.7529 28.8928 40.8736C28.7954 40.9264 28.6455 41.0546 28.593 40.8585C28.5631 40.7303 28.4806 40.5267 28.6905 40.4362C29.1551 40.2326 29.6273 40.1873 30.1069 40.3759C30.3992 40.489 30.4966 40.7529 30.5116 41.0395C30.5341 41.3336 30.5266 41.6202 30.5266 41.9068ZM29.5448 41.7409C29.1926 41.7409 28.9828 41.8842 28.9828 42.1406C28.9828 42.4271 29.1626 42.5327 29.4174 42.5327C29.7322 42.5327 29.9121 42.3291 29.9346 42.035C29.957 41.7107 29.7247 41.771 29.5448 41.7409Z" fill="#B1B1B1"/>
<path d="M86.1931 41.7548C86.0058 41.7548 85.8184 41.7699 85.6311 41.7548C85.3463 41.7322 85.3088 41.8528 85.3987 42.0866C85.5336 42.4486 85.9158 42.5994 86.373 42.4561C86.4404 42.4335 86.5079 42.3958 86.5753 42.3656C86.7027 42.3053 86.8526 42.147 86.9426 42.3656C87.0175 42.5542 86.9575 42.7352 86.7327 42.8181C86.1931 43.0142 85.6461 43.0821 85.1664 42.705C84.6943 42.3279 84.6493 41.7774 84.7692 41.2269C84.9191 40.5256 85.4587 40.1787 86.1557 40.2843C86.7252 40.3672 87.1749 41.0535 87.04 41.6115C87.0025 41.7548 86.9201 41.7473 86.8226 41.7473C86.6203 41.7548 86.403 41.7548 86.1931 41.7548ZM85.8859 41.3476C85.9458 41.3476 86.0133 41.3627 86.0732 41.3476C86.2006 41.3099 86.4105 41.4607 86.4404 41.242C86.4629 41.061 86.3805 40.8649 86.1931 40.7669C85.9758 40.6538 85.7585 40.6764 85.5711 40.8423C85.4362 40.9554 85.3538 41.1213 85.3838 41.2722C85.4212 41.4381 85.6161 41.3174 85.736 41.3476C85.7884 41.3551 85.8334 41.3476 85.8859 41.3476Z" fill="#B1B1B1"/>
<path d="M67.8017 41.7555C67.6144 41.7555 67.427 41.763 67.2396 41.7555C66.9698 41.7328 66.9548 41.8535 67.0373 42.0722C67.1947 42.4869 67.6293 42.6302 68.139 42.4191C68.2813 42.3587 68.4687 42.1023 68.5961 42.3814C68.716 42.6453 68.5212 42.7961 68.2813 42.864C67.7343 43.0223 67.1797 43.0902 66.7375 42.6378C66.2879 42.1777 66.2804 41.5971 66.4827 41.024C66.7 40.4282 67.2771 40.1568 67.9141 40.3076C68.4087 40.4282 68.746 40.9938 68.686 41.5745C68.671 41.7328 68.6036 41.763 68.4687 41.7555C68.2514 41.7479 68.0265 41.7555 67.8017 41.7555ZM67.5244 41.3482C67.5844 41.3482 67.6518 41.3633 67.7118 41.3482C67.8317 41.3105 68.0565 41.4689 68.0715 41.2351C68.0865 41.0391 68.019 40.8354 67.7942 40.7525C67.5619 40.662 67.3521 40.6922 67.1797 40.8732C67.0748 40.9863 66.9773 41.1446 67.0148 41.2728C67.0598 41.4387 67.2471 41.3181 67.3745 41.3482C67.4195 41.3558 67.472 41.3482 67.5244 41.3482Z" fill="#B1B1B1"/>
<path d="M63.7869 41.6124C63.7869 41.273 63.7794 40.9337 63.7869 40.5943C63.7869 40.4887 63.727 40.3379 63.8694 40.3002C64.0118 40.2625 64.2141 40.2248 64.2891 40.3605C64.4015 40.5868 64.5064 40.4812 64.6338 40.4133C64.7312 40.3605 64.8437 40.3228 64.9486 40.3002C65.6531 40.1343 65.9978 40.3982 65.9978 41.1297C66.0053 41.6425 65.9828 42.1553 66.0053 42.6757C66.0203 42.9472 65.8779 42.9396 65.6831 42.9472C65.4882 42.9547 65.3908 42.9094 65.3983 42.6832C65.4132 42.1855 65.3983 41.6802 65.4058 41.175C65.4058 40.9186 65.3083 40.7376 65.0385 40.7828C64.7762 40.8281 64.409 40.7904 64.3865 41.1901C64.3565 41.6802 64.364 42.1704 64.3865 42.6606C64.394 42.9019 64.3116 42.9547 64.0867 42.9547C63.8844 42.9472 63.757 42.9396 63.7719 42.6757C63.8019 42.3212 63.7869 41.9668 63.7869 41.6124Z" fill="#B1B1B1"/>
<path d="M36.5631 41.6122C36.5631 41.2729 36.5556 40.9335 36.5631 40.5942C36.5631 40.4886 36.5031 40.3378 36.653 40.3076C36.7879 40.2775 36.9827 40.2322 37.0652 40.383C37.1701 40.564 37.26 40.5112 37.3875 40.4358C37.5523 40.3453 37.7322 40.2925 37.9196 40.2775C38.4741 40.2247 38.7514 40.4509 38.7664 41.0165C38.7814 41.5821 38.7589 42.1476 38.7739 42.7132C38.7814 42.9771 38.624 42.947 38.4592 42.9545C38.2793 42.9621 38.1519 42.947 38.1594 42.7057C38.1744 42.2004 38.1594 41.7027 38.1669 41.1975C38.1669 40.9486 38.0994 40.7827 37.8146 40.7827C37.4699 40.7827 37.1476 40.9863 37.1476 41.2201C37.1401 41.7103 37.1326 42.2004 37.1476 42.6906C37.1551 42.9168 37.0652 42.9621 36.8628 42.9621C36.6605 42.9621 36.5331 42.947 36.5481 42.683C36.578 42.3211 36.5631 41.9666 36.5631 41.6122Z" fill="#B1B1B1"/>
<path d="M15.6726 41.6124C15.6726 41.273 15.6651 40.9336 15.6726 40.5943C15.6726 40.4887 15.6052 40.3379 15.755 40.3002C15.8899 40.27 16.0848 40.2247 16.1747 40.368C16.2797 40.5415 16.3621 40.5038 16.4895 40.4284C16.5869 40.3756 16.6918 40.3303 16.7968 40.3002C17.5237 40.1192 17.8685 40.3906 17.8685 41.1448C17.8685 41.6576 17.861 42.178 17.876 42.6908C17.8835 42.9472 17.7411 42.9321 17.5687 42.9396C17.3813 42.9472 17.2689 42.9246 17.2764 42.6832C17.2914 42.193 17.2764 41.7029 17.2839 41.2127C17.2839 40.9563 17.2314 40.7602 16.9242 40.7677C16.542 40.7677 16.2722 40.9638 16.2722 41.2579C16.2647 41.7104 16.2647 42.1629 16.2722 42.6154C16.2797 42.8341 16.2572 42.9547 15.9799 42.9547C15.6876 42.9547 15.6576 42.8341 15.6651 42.5927C15.6876 42.2685 15.6726 41.9442 15.6726 41.6124Z" fill="#B1B1B1"/>
<path d="M33.6658 41.6358C33.6658 40.8213 34.1529 40.2783 34.8948 40.2633C35.6593 40.2557 36.1764 40.7987 36.1764 41.6207C36.1839 42.4125 35.6743 42.9631 34.9248 42.9631C34.1754 42.9781 33.6658 42.4427 33.6658 41.6358ZM34.2728 41.4925C34.2503 42.224 34.5651 42.586 35.0672 42.4804C35.3895 42.4125 35.5693 42.126 35.5768 41.6584C35.5843 41.1531 35.4045 40.8213 35.0747 40.7459C34.7525 40.6705 34.4752 40.8138 34.3553 41.1305C34.3028 41.2738 34.2878 41.4322 34.2728 41.4925Z" fill="#B1B1B1"/>
<path d="M45.6708 41.6573C45.6558 42.4491 45.1311 42.9845 44.3817 42.9694C43.6322 42.9543 43.1376 42.4038 43.1451 41.6045C43.1526 40.7976 43.6922 40.2471 44.4491 40.2697C45.1836 40.2923 45.6857 40.8655 45.6708 41.6573ZM43.7522 41.6723C43.7597 41.7251 43.7597 41.8232 43.7821 41.9212C43.8571 42.3058 44.0744 42.4943 44.4117 42.4943C44.7564 42.4943 44.9438 42.3058 45.0337 41.9137C45.0937 41.6346 45.0787 41.3632 44.9588 41.1068C44.7789 40.692 44.2693 40.6015 43.9695 40.9258C43.7896 41.1219 43.7597 41.3707 43.7522 41.6723Z" fill="#B1B1B1"/>
<path d="M19.6794 41.635C19.6794 40.8206 20.1966 40.2626 20.9535 40.2701C21.6879 40.2776 22.1976 40.8281 22.1976 41.6275C22.1976 42.4268 21.6954 42.9698 20.946 42.9698C20.1891 42.9698 19.6869 42.4344 19.6794 41.635ZM20.2865 41.6199C20.2715 41.7858 20.309 41.9442 20.3689 42.1026C20.4664 42.3665 20.6612 42.5022 20.946 42.5022C21.2308 42.5022 21.4331 42.3665 21.5231 42.1101C21.643 41.7858 21.643 41.4465 21.5081 41.1147C21.4107 40.8734 21.2158 40.7452 20.9535 40.7452C20.6837 40.7452 20.5038 40.8734 20.3989 41.1147C20.3165 41.2655 20.2715 41.439 20.2865 41.6199Z" fill="#B1B1B1"/>
<path d="M63.3901 41.6275C63.3901 42.442 62.903 42.9699 62.146 42.9699C61.3891 42.9699 60.8944 42.4495 60.9019 41.6351C60.9019 40.798 61.3966 40.2626 62.161 40.2701C62.8955 40.2701 63.3901 40.8131 63.3901 41.6275ZM62.7906 41.537C62.7906 41.5219 62.7906 41.4239 62.7756 41.3259C62.7081 40.9564 62.4833 40.7377 62.1535 40.7377C61.8238 40.7377 61.5914 40.9337 61.524 41.3108C61.4715 41.5823 61.4715 41.8613 61.5839 42.1252C61.6964 42.3816 61.8987 42.5023 62.176 42.4948C62.4383 42.4797 62.6182 42.3515 62.7156 42.1102C62.7831 41.9518 62.7981 41.7934 62.7906 41.537Z" fill="#B1B1B1"/>
<path d="M72.5384 40.2773C72.8007 40.2849 73.003 40.3075 73.1904 40.3905C73.4152 40.4885 73.3703 40.6921 73.3253 40.8429C73.2728 41.0013 73.1155 40.9183 73.0105 40.858C72.8307 40.76 72.6358 40.7374 72.4335 40.7524C72.2836 40.7675 72.1637 40.8279 72.1412 40.9938C72.1187 41.1672 72.2461 41.2351 72.3885 41.2728C72.5609 41.3105 72.7332 41.3331 72.8981 41.3784C73.3028 41.4839 73.4902 41.7403 73.4902 42.14C73.4827 42.5246 73.2728 42.8263 72.8981 42.9168C72.5309 43.0073 72.1562 42.9997 71.7964 42.8489C71.6615 42.7886 71.5791 42.7056 71.5791 42.5397C71.5791 42.2758 71.654 42.1702 71.9014 42.3361C72.1187 42.4869 72.3585 42.5246 72.6133 42.4869C72.7707 42.4643 72.8981 42.3889 72.9131 42.2079C72.9281 42.0118 72.7932 41.944 72.6433 41.9062C72.5009 41.8685 72.351 41.8535 72.2011 41.8158C71.774 41.7026 71.5641 41.4387 71.5941 41.039C71.6166 40.6469 71.8714 40.3754 72.2761 40.3075C72.3735 40.2773 72.4859 40.2773 72.5384 40.2773Z" fill="#B1B1B1"/>
<path d="M56.3801 40.2773C56.6349 40.2849 56.8298 40.3151 57.0171 40.3829C57.257 40.4659 57.2195 40.677 57.1745 40.8203C57.1146 41.0164 56.9572 40.9033 56.8448 40.8505C56.6724 40.7675 56.485 40.7374 56.2977 40.7524C56.1403 40.7675 55.9904 40.8203 55.9829 41.0089C55.9679 41.1823 56.1103 41.2426 56.2452 41.2728C56.4026 41.3105 56.5675 41.3256 56.7249 41.3708C57.1595 41.484 57.3394 41.7177 57.3244 42.1476C57.3169 42.5548 57.0921 42.8414 56.6949 42.9243C56.3351 42.9998 55.9754 42.9847 55.6306 42.8338C55.4883 42.7735 55.4358 42.6755 55.4358 42.5171C55.4358 42.2683 55.5182 42.1778 55.7431 42.321C55.9754 42.4719 56.2302 42.5247 56.4925 42.4719C56.6499 42.4417 56.7773 42.3512 56.7773 42.1702C56.7773 42.0043 56.6499 41.9364 56.515 41.8987C56.3801 41.861 56.2452 41.8459 56.1103 41.8158C55.6232 41.7027 55.4133 41.4387 55.4433 41.0089C55.4733 40.6016 55.7506 40.3377 56.2152 40.2924C56.2827 40.2773 56.3576 40.2773 56.3801 40.2773Z" fill="#B1B1B1"/>
<path d="M58.5518 40.2773C58.7916 40.2924 58.979 40.3151 59.1588 40.3754C59.4137 40.4583 59.3912 40.6695 59.3387 40.8354C59.2713 41.0315 59.1139 40.9033 59.0015 40.8505C58.7991 40.7524 58.5968 40.7374 58.3794 40.7751C58.2445 40.7977 58.1471 40.8806 58.1471 41.0315C58.1471 41.1672 58.237 41.2426 58.3495 41.2728C58.5143 41.318 58.6942 41.3407 58.8591 41.3784C59.2788 41.4764 59.4811 41.7102 59.4886 42.1023C59.5036 42.5322 59.2862 42.8414 58.8816 42.9319C58.5218 43.0148 58.1621 42.9997 57.8174 42.864C57.66 42.8037 57.5925 42.7056 57.5925 42.5246C57.5925 42.2607 57.69 42.2004 57.9073 42.3437C58.1246 42.4869 58.3644 42.5322 58.6193 42.502C58.7841 42.4794 58.9115 42.3964 58.9265 42.223C58.949 42.042 58.8141 41.959 58.6567 41.9138C58.5368 41.8836 58.4094 41.861 58.2895 41.8384C57.7949 41.7253 57.5775 41.4839 57.6 41.0541C57.615 40.6242 57.8998 40.3528 58.3869 40.3075C58.4619 40.2849 58.5368 40.2773 58.5518 40.2773Z" fill="#B1B1B1"/>
<path d="M82.3999 41.6351C82.3999 40.5944 83.2992 39.976 84.251 40.3531C84.5283 40.4586 84.5583 40.6698 84.4759 40.8583C84.3784 41.0846 84.2136 40.9111 84.0712 40.8433C83.5391 40.5793 83.0594 40.8508 82.9995 41.4541C82.9245 42.163 83.2543 42.5777 83.8238 42.4797C83.9288 42.4646 84.0412 42.4194 84.1311 42.3591C84.2585 42.2761 84.4084 42.1554 84.4908 42.344C84.5583 42.5023 84.5433 42.6909 84.326 42.8191C83.4042 43.3243 82.3999 42.721 82.3999 41.6351Z" fill="#B1B1B1"/>
<path d="M31.1242 41.6496C31.1242 41.446 31.1242 41.2499 31.1242 41.0463C31.1242 40.903 31.1617 40.7521 30.9219 40.7295C30.7945 40.7144 30.7795 40.3223 30.8994 40.3148C31.2142 40.2921 31.1317 40.0734 31.1168 39.9075C31.0943 39.636 31.2217 39.6134 31.439 39.6059C31.6863 39.5983 31.7538 39.6964 31.7163 39.9151C31.6788 40.1866 31.7463 40.3525 32.0685 40.2921C32.2409 40.262 32.2709 40.3675 32.2709 40.5184C32.2709 40.6617 32.2484 40.7823 32.076 40.7446C31.7238 40.6843 31.7013 40.8804 31.7163 41.1518C31.7313 41.4761 31.7238 41.8004 31.7163 42.1322C31.7088 42.3735 31.7913 42.5244 32.0611 42.4942C32.2259 42.4791 32.3159 42.5168 32.3159 42.7129C32.3159 42.9014 32.2184 42.9316 32.0611 42.9542C31.4015 43.0372 31.1317 42.8034 31.1242 42.1398C31.1242 41.9738 31.1242 41.8079 31.1242 41.6496Z" fill="#B1B1B1"/>
<path d="M18.4806 41.8387C18.4806 41.5748 18.4806 41.3108 18.4806 41.0469C18.4806 40.9036 18.5255 40.7452 18.2782 40.7377C18.1358 40.7377 18.1883 40.5869 18.1808 40.4964C18.1733 40.4134 18.1658 40.2928 18.2932 40.3003C18.5105 40.3079 18.4731 40.157 18.4955 40.0213C18.5705 39.5387 19.0501 39.2596 19.4998 39.4255C19.6497 39.4783 19.6347 39.5764 19.6422 39.6895C19.6497 39.8177 19.5972 39.878 19.4698 39.8705C19.3949 39.8705 19.3199 39.878 19.245 39.8931C19.1101 39.9233 19.0876 40.0288 19.0801 40.1495C19.0801 40.3079 19.185 40.2852 19.2825 40.2852C19.4398 40.2852 19.6047 40.2475 19.6047 40.5115C19.6047 40.7754 19.4398 40.7528 19.2825 40.7377C19.0726 40.7151 19.0726 40.8433 19.0726 40.9941C19.0801 41.5446 19.0651 42.0951 19.0801 42.6532C19.0876 42.902 18.9977 42.9397 18.7803 42.9397C18.5705 42.9397 18.4581 42.9096 18.4731 42.6532C18.4955 42.3892 18.4806 42.1102 18.4806 41.8387Z" fill="#B1B1B1"/>
<path d="M14.4398 41.2053C14.4398 40.7 14.4548 40.2023 14.4323 39.697C14.4173 39.4105 14.5897 39.4557 14.7696 39.4482C14.9569 39.4406 15.0693 39.4557 15.0618 39.7046C15.0468 40.7076 15.0468 41.7105 15.0618 42.7135C15.0618 42.9775 14.9119 42.9473 14.7471 42.9473C14.5822 42.9473 14.4248 42.9775 14.4323 42.7135C14.4548 42.2083 14.4398 41.703 14.4398 41.2053Z" fill="#B1B1B1"/>
<path d="M69.0749 41.6121C69.0749 41.2728 69.0675 40.9334 69.0749 40.5941C69.0749 40.496 69.0075 40.3452 69.1574 40.3075C69.2848 40.2773 69.4796 40.2396 69.5471 40.3528C69.682 40.5941 69.7869 40.4583 69.9218 40.3829C70.0342 40.3226 70.1466 40.2849 70.2815 40.2849C70.4389 40.2773 70.5513 40.3075 70.5363 40.5036C70.5213 40.6469 70.5813 40.7826 70.334 40.8128C69.6895 40.8882 69.667 40.9334 69.667 41.582C69.667 41.959 69.6595 42.3361 69.667 42.7132C69.6745 42.9846 69.5021 42.9318 69.3447 42.9394C69.1649 42.9469 69.0675 42.9168 69.0749 42.6981C69.0824 42.3436 69.0749 41.9741 69.0749 41.6121Z" fill="#B1B1B1"/>
<path d="M22.5881 41.5978C22.5881 41.2585 22.5806 40.9191 22.5881 40.5873C22.5881 40.4893 22.5207 40.3384 22.6856 40.3083C22.813 40.2857 23.0078 40.2404 23.0678 40.3686C23.1802 40.5948 23.2701 40.4968 23.3975 40.4063C23.51 40.3309 23.6449 40.3007 23.7872 40.2932C23.9521 40.2857 24.0496 40.3234 24.0346 40.5194C24.0271 40.6627 24.0645 40.7909 23.8247 40.8211C23.1952 40.8965 23.1802 40.9342 23.1802 41.5676C23.1802 41.9447 23.1652 42.3218 23.1877 42.6913C23.2027 42.9703 23.0453 42.9477 22.8579 42.9552C22.6631 42.9628 22.5657 42.9251 22.5732 42.6913C22.6031 42.3218 22.5881 41.9598 22.5881 41.5978Z" fill="#B1B1B1"/>
<path d="M59.8894 41.6194C59.8894 41.265 59.8894 40.9181 59.8894 40.5636C59.8894 40.4203 59.8744 40.277 60.0917 40.2921C60.2491 40.3072 60.4589 40.2695 60.4589 40.5033C60.4739 41.2725 60.4889 42.0342 60.4814 42.8034C60.4814 43.0523 60.2491 42.909 60.1292 42.9392C59.9943 42.9693 59.8894 42.9316 59.8894 42.7506C59.8894 42.366 59.8894 41.9889 59.8894 41.6194Z" fill="#B1B1B1"/>
<path d="M81.3865 41.6129C81.3865 41.2886 81.3865 40.9644 81.3865 40.6401C81.3865 40.4742 81.3266 40.2856 81.6263 40.2932C81.8812 40.3007 81.9861 40.4063 81.9861 40.6552C81.9861 41.0171 81.9861 41.3791 81.9861 41.7411C81.9861 42.0277 81.9711 42.3142 81.9861 42.6008C82.0011 42.8346 81.9711 42.9552 81.6788 42.9628C81.364 42.9703 81.379 42.8119 81.379 42.5932C81.394 42.2614 81.3865 41.9372 81.3865 41.6129Z" fill="#B1B1B1"/>
<path d="M32.6546 41.6127C32.6546 41.2734 32.6546 40.934 32.6546 40.6022C32.6546 40.4288 32.6321 40.278 32.8944 40.293C33.1118 40.3081 33.2617 40.3534 33.2542 40.6098C33.2467 40.9566 33.2542 41.3111 33.2542 41.658C33.2542 41.9822 33.2392 42.3065 33.2542 42.6308C33.2692 42.8721 33.2017 42.9475 32.9469 42.955C32.6846 42.955 32.6321 42.857 32.6471 42.6232C32.6696 42.2839 32.6546 41.9445 32.6546 41.6127Z" fill="#B1B1B1"/>
<path d="M54.4268 41.6277C54.4268 41.2733 54.4268 40.9264 54.4268 40.572C54.4268 40.4438 54.3818 40.2779 54.6066 40.293C54.779 40.308 54.9888 40.2703 54.9963 40.5267C55.0113 41.2808 55.0038 42.0274 55.0038 42.7815C55.0038 43.0228 54.8165 42.9248 54.704 42.9323C54.5766 42.9474 54.4193 42.9776 54.4268 42.7513C54.4343 42.3818 54.4268 42.0048 54.4268 41.6277Z" fill="#B1B1B1"/>
<path d="M71.5415 39.8253C71.534 40.142 71.4216 40.3758 71.1218 40.4814C71.0319 40.5115 70.9195 40.5869 70.8595 40.4663C70.8221 40.3758 70.8071 40.24 70.942 40.1722C71.0394 40.1269 71.1443 40.0968 70.9944 39.9761C70.852 39.8554 70.8071 39.7046 70.9195 39.5462C71.0019 39.418 71.1368 39.3803 71.2792 39.4256C71.4891 39.4859 71.534 39.6518 71.5415 39.8253Z" fill="#B1B1B1"/>
<path d="M81.6884 40.1198C81.4936 40.0745 81.3586 39.984 81.3586 39.7729C81.3661 39.5466 81.5011 39.4335 81.7184 39.4486C81.9208 39.4637 82.0332 39.5994 82.0182 39.7955C82.0107 40.0066 81.8683 40.0971 81.6884 40.1198Z" fill="#B1B1B1"/>
<path d="M33.3045 39.7801C33.282 39.9912 33.1546 40.1119 32.9598 40.1119C32.7649 40.1119 32.63 39.9912 32.6375 39.7725C32.6375 39.5614 32.7649 39.4482 32.9672 39.4482C33.1771 39.4558 33.2745 39.584 33.3045 39.7801Z" fill="#B1B1B1"/>
<path d="M60.1904 40.1192C60.003 40.0815 59.8531 39.9835 59.8606 39.7723C59.8681 39.5687 59.9955 39.4405 60.1979 39.4481C60.4002 39.4481 60.5276 39.5763 60.5276 39.7799C60.5276 39.991 60.3777 40.0815 60.1904 40.1192Z" fill="#B1B1B1"/>
<path d="M54.6989 39.4478C54.9087 39.4553 55.0361 39.5609 55.0511 39.7645C55.0661 39.9756 54.9312 40.1038 54.7363 40.1114C54.5415 40.1264 54.3991 40.0058 54.3916 39.7946C54.3767 39.591 54.4966 39.4779 54.6989 39.4478Z" fill="#B1B1B1"/>
</g>
<defs>
<clipPath id="clip0_35384_58550">
<rect width="99" height="43" fill="white"/>
</clipPath>
</defs>
</svg>
