<svg width="150" height="22" viewBox="0 0 150 22" fill="none" xmlns="http://www.w3.org/2000/svg">
<path d="M12.0167 5.0762C12.0167 5.98962 11.807 6.82817 11.3878 7.59184C10.9685 8.34055 10.3246 8.947 9.45611 9.41119C8.58762 9.87539 7.50949 10.1075 6.22172 10.1075H3.84084V15.7677H0V0H6.22172C7.47954 0 8.5427 0.217124 9.41119 0.651371C10.2797 1.08562 10.9311 1.68458 11.3653 2.44826C11.7996 3.21193 12.0167 4.08792 12.0167 5.0762ZM5.92972 7.05278C6.66345 7.05278 7.21001 6.88058 7.56938 6.53617C7.92876 6.19177 8.10845 5.70511 8.10845 5.0762C8.10845 4.44729 7.92876 3.96064 7.56938 3.61623C7.21001 3.27183 6.66345 3.09963 5.92972 3.09963H3.84084V7.05278H5.92972Z" fill="black"/>
<path d="M17.6325 5.32328C18.0817 4.63447 18.6432 4.0954 19.3171 3.70608C19.9909 3.30178 20.7396 3.09963 21.5632 3.09963V7.16508H20.5075C19.5492 7.16508 18.8304 7.37472 18.3512 7.79399C17.8721 8.19829 17.6325 8.91705 17.6325 9.95026V15.7677H13.7916V3.2344H17.6325V5.32328Z" fill="black"/>
<path d="M28.8795 15.9474C27.6516 15.9474 26.5436 15.6853 25.5553 15.1612C24.582 14.6371 23.8108 13.8884 23.2418 12.9151C22.6877 11.9418 22.4107 10.8038 22.4107 9.50104C22.4107 8.21327 22.6952 7.08273 23.2642 6.10941C23.8333 5.12113 24.6119 4.36494 25.6002 3.84084C26.5885 3.31675 27.6966 3.05471 28.9244 3.05471C30.1523 3.05471 31.2604 3.31675 32.2487 3.84084C33.237 4.36494 34.0156 5.12113 34.5846 6.10941C35.1536 7.08273 35.4381 8.21327 35.4381 9.50104C35.4381 10.7888 35.1461 11.9268 34.5622 12.9151C33.9931 13.8884 33.207 14.6371 32.2037 15.1612C31.2155 15.6853 30.1074 15.9474 28.8795 15.9474ZM28.8795 12.6231C29.6132 12.6231 30.2347 12.3536 30.7438 11.8145C31.2679 11.2755 31.5299 10.5043 31.5299 9.50104C31.5299 8.49778 31.2754 7.72661 30.7662 7.18755C30.2721 6.64848 29.6582 6.37895 28.9244 6.37895C28.1757 6.37895 27.5543 6.64848 27.0602 7.18755C26.566 7.71164 26.3189 8.4828 26.3189 9.50104C26.3189 10.5043 26.5585 11.2755 27.0377 11.8145C27.5318 12.3536 28.1458 12.6231 28.8795 12.6231Z" fill="black"/>
<path d="M41.092 5.00882C41.4664 4.42483 41.983 3.95315 42.6418 3.59377C43.3007 3.23439 44.0719 3.05471 44.9553 3.05471C45.9885 3.05471 46.9244 3.31675 47.763 3.84084C48.6015 4.36494 49.2604 5.11364 49.7395 6.08695C50.2337 7.06027 50.4807 8.19081 50.4807 9.47858C50.4807 10.7663 50.2337 11.9044 49.7395 12.8927C49.2604 13.866 48.6015 14.6222 47.763 15.1612C46.9244 15.6853 45.9885 15.9474 44.9553 15.9474C44.0868 15.9474 43.3157 15.7677 42.6418 15.4083C41.983 15.0489 41.4664 14.5847 41.092 14.0157V21.7423H37.2512V3.2344H41.092V5.00882ZM46.5725 9.47858C46.5725 8.52024 46.303 7.77153 45.7639 7.23247C45.2398 6.67843 44.5885 6.40141 43.8098 6.40141C43.0461 6.40141 42.3948 6.67843 41.8557 7.23247C41.3316 7.78651 41.0696 8.5427 41.0696 9.50104C41.0696 10.4594 41.3316 11.2156 41.8557 11.7696C42.3948 12.3236 43.0461 12.6007 43.8098 12.6007C44.5735 12.6007 45.2249 12.3236 45.7639 11.7696C46.303 11.2006 46.5725 10.4369 46.5725 9.47858Z" fill="black"/>
<path d="M64.0857 9.29889C64.0857 9.65826 64.0632 10.0326 64.0183 10.4219H55.3258C55.3857 11.2006 55.6328 11.7996 56.0671 12.2188C56.5163 12.6231 57.0628 12.8253 57.7067 12.8253C58.6651 12.8253 59.3314 12.421 59.7058 11.6124H63.7937C63.584 12.436 63.2022 13.1772 62.6482 13.836C62.1091 14.4949 61.4278 15.0115 60.6042 15.3858C59.7806 15.7602 58.8597 15.9474 57.8415 15.9474C56.6136 15.9474 55.5205 15.6853 54.5622 15.1612C53.6038 14.6371 52.8551 13.8884 52.3161 12.9151C51.777 11.9418 51.5075 10.8038 51.5075 9.50104C51.5075 8.19829 51.7695 7.06027 52.2936 6.08695C52.8327 5.11364 53.5814 4.36494 54.5397 3.84084C55.498 3.31675 56.5986 3.05471 57.8415 3.05471C59.0544 3.05471 60.1325 3.30927 61.0759 3.81838C62.0192 4.3275 62.753 5.05374 63.2771 5.99711C63.8161 6.94047 64.0857 8.04107 64.0857 9.29889ZM60.155 8.28814C60.155 7.62928 59.9304 7.10519 59.4811 6.71586C59.0319 6.32654 58.4704 6.13187 57.7966 6.13187C57.1527 6.13187 56.6061 6.31905 56.1569 6.6934C55.7227 7.06775 55.4531 7.59933 55.3483 8.28814H60.155Z" fill="black"/>
<path d="M69.7281 5.32328C70.1774 4.63447 70.7389 4.0954 71.4127 3.70608C72.0865 3.30178 72.8353 3.09963 73.6588 3.09963V7.16508H72.6032C71.6448 7.16508 70.9261 7.37472 70.4469 7.79399C69.9677 8.19829 69.7281 8.91705 69.7281 9.95026V15.7677H65.8873V3.2344H69.7281V5.32328Z" fill="black"/>
<path d="M82.2555 12.5108V15.7677H80.3013C78.9088 15.7677 77.8231 15.4308 77.0445 14.7569C76.2658 14.0681 75.8765 12.9526 75.8765 11.4102V6.42387H74.3492V3.2344H75.8765V0.179689H79.7173V3.2344H82.233V6.42387H79.7173V11.4552C79.7173 11.8295 79.8072 12.099 79.9869 12.2637C80.1666 12.4285 80.4661 12.5108 80.8853 12.5108H82.2555Z" fill="black"/>
<path d="M96.9731 3.2344L89.1117 21.7199H84.9789L87.8539 15.3409L82.7552 3.2344H87.0453L89.9427 11.0733L92.8178 3.2344H96.9731Z" fill="black"/>
<path d="M101.978 12.8028H107.009V15.7677H98.1374V0H101.978V12.8028Z" fill="black"/>
<path d="M140.611 5.00882C140.986 4.42483 141.502 3.95315 142.161 3.59377C142.82 3.23439 143.591 3.05471 144.475 3.05471C145.508 3.05471 146.444 3.31675 147.282 3.84084C148.121 4.36494 148.78 5.11364 149.259 6.08695C149.753 7.06027 150 8.19081 150 9.47858C150 10.7663 149.753 11.9044 149.259 12.8927C148.78 13.866 148.121 14.6222 147.282 15.1612C146.444 15.6853 145.508 15.9474 144.475 15.9474C143.606 15.9474 142.835 15.7677 142.161 15.4083C141.502 15.0489 140.986 14.5847 140.611 14.0157V21.7423H136.77V3.2344H140.611V5.00882ZM146.092 9.47858C146.092 8.52024 145.822 7.77153 145.283 7.23247C144.759 6.67843 144.108 6.40141 143.329 6.40141C142.565 6.40141 141.914 6.67843 141.375 7.23247C140.851 7.78651 140.589 8.5427 140.589 9.50104C140.589 10.4594 140.851 11.2156 141.375 11.7696C141.914 12.3236 142.565 12.6007 143.329 12.6007C144.093 12.6007 144.744 12.3236 145.283 11.7696C145.822 11.2006 146.092 10.4369 146.092 9.47858Z" fill="black"/>
<path d="M108.416 9.42434C108.416 9.31557 108.419 9.20775 108.425 9.10088C108.548 6.8404 110.035 4.70921 112.183 3.72948C113.461 3.14179 114.903 2.95955 116.298 3.20956C117.693 3.45958 118.967 4.12865 119.932 5.11832C120.104 5.29126 120.259 5.47603 120.412 5.66366C120.455 5.7175 120.455 5.75176 120.403 5.8007C119.579 6.5803 118.757 7.36126 117.937 8.14358C117.886 8.19171 117.863 8.19865 117.824 8.12727C117.258 7.07004 116.031 6.37867 114.776 6.50757C112.459 6.74618 111.089 9.56669 112.699 11.2924C113.274 11.9075 113.914 12.4627 114.518 13.0504C114.69 13.2156 114.861 13.3767 115.033 13.5399C115.079 13.5851 115.103 13.5851 115.151 13.5399C118.163 10.6738 121.176 7.80844 124.19 4.94374C124.827 4.33914 125.586 3.86349 126.421 3.54552C126.736 3.42694 127.061 3.33229 127.391 3.26245C127.957 3.13691 128.538 3.08355 129.119 3.10378C133.741 3.27183 136.847 7.98451 134.957 12.0095C134.715 12.5276 134.399 13.0116 134.018 13.4481C132.653 15.0127 130.447 15.9411 128.302 15.7367C127.206 15.6319 126.186 15.3105 125.259 14.7337C124.694 14.3824 124.187 13.9541 123.753 13.4624C123.677 13.3771 123.613 13.2825 123.538 13.1977C123.487 13.1406 123.495 13.1034 123.548 13.052C124.027 12.6007 124.505 12.1478 124.981 11.6934C125.319 11.3717 125.657 11.0497 125.994 10.7275C126.054 10.6696 126.083 10.6427 126.137 10.7442C126.509 11.4356 127.081 11.923 127.847 12.1894C128.809 12.523 129.931 12.3472 130.743 11.7652C131.609 11.1456 132.07 10.0647 131.941 9.05153C131.817 8.08199 131.155 7.46568 130.475 6.80817C129.966 6.31423 129.448 5.83211 128.938 5.34265C128.888 5.29411 128.866 5.29493 128.816 5.34265C127.595 6.50457 126.372 7.66541 125.149 8.82515C123.919 9.99088 122.687 11.155 121.453 12.3174C120.833 12.904 120.221 13.5003 119.588 14.0738C119.067 14.5423 118.465 14.9219 117.808 15.1959C117.382 15.378 116.938 15.5169 116.482 15.6103C115.822 15.7437 115.157 15.8012 114.486 15.7355C113.341 15.6242 112.281 15.2799 111.328 14.6591C109.539 13.4954 108.421 11.4817 108.416 9.42434Z" fill="black"/>
</svg>
