<svg width="101" height="36" viewBox="0 0 101 36" fill="none" xmlns="http://www.w3.org/2000/svg">
<path d="M96.5253 36.0001C65.5655 36.0001 34.6057 36.0001 3.62508 36.0001C3.60426 35.959 3.62508 35.9384 3.6459 35.9179C3.72918 35.8562 3.81246 35.8562 3.89574 35.8562C4.02067 35.8562 4.16641 35.8562 4.29133 35.8562C34.7931 35.8562 65.3157 35.8562 95.8174 35.8562C96.0465 35.8562 96.2755 35.7946 96.4837 35.9179C96.5462 35.9384 96.5461 35.959 96.5253 36.0001Z" fill="#B1B1B1"/>
<path d="M100.026 32.5519H99.9846C99.88 32.5108 99.88 32.4081 99.8591 32.3259C99.8591 32.2026 99.8591 32.0999 99.8591 31.9766C99.8591 22.6683 99.8591 13.3601 99.8591 4.05191C99.8591 3.92862 99.8591 3.82588 99.8591 3.70259C99.8591 3.6204 99.88 3.51766 99.9637 3.47656C99.9846 3.47656 99.9846 3.47656 100.006 3.47656C100.026 13.1957 100.026 22.8738 100.026 32.5519Z" fill="#B1B1B1"/>
<path fill-rule="evenodd" clip-rule="evenodd" d="M0.5 32.1031V32.4742C0.666701 34.3711 2.16701 35.8969 4.06324 36H4.43832H96.645H97.0409C98.833 35.8763 100.375 34.3505 100.5 32.5979C100.479 32.5567 100.479 32.5155 100.479 32.4742V4.02062V3.42268C100.354 1.6701 98.8747 0.206186 97.0201 0H96.5617H4.37581H4.02157C2.12534 0.185567 0.666701 1.64948 0.5 3.52577V3.91753V32.1031ZM7.37262 21.3702H50.0751C62.2133 21.3702 74.3516 21.3702 86.4898 21.3908H92.8609C95.0678 21.3908 96.7751 19.7059 96.7751 17.5072V7.19216C96.7751 6.55517 96.671 5.95928 96.3587 5.40449C95.5675 3.96613 94.3391 3.30859 92.6943 3.30859H7.97641H7.31016C5.01992 3.32914 3.37512 4.97298 3.37512 7.21271V17.4456C3.37512 19.7264 5.06156 21.3702 7.37262 21.3702Z" fill="#B1B1B1"/>
<path d="M66.4602 28.6891C66.4602 27.9699 66.4602 27.2507 66.4602 26.5521C66.4602 26.1206 66.6892 25.8945 67.1265 25.8945C68.0634 25.8945 69.0003 25.8945 69.958 25.8945C70.3744 25.8945 70.6243 26.1206 70.6243 26.4699C70.6243 26.8192 70.3744 27.0452 69.958 27.0452C69.2501 27.0452 68.5631 27.0452 67.8552 27.0452C67.6678 27.0452 67.6053 27.1069 67.6261 27.2918C67.647 27.4973 67.647 27.7233 67.6261 27.9288C67.6261 28.0932 67.6678 28.1343 67.8343 28.1343C68.2924 28.1137 68.7296 28.1343 69.1877 28.1343C69.6249 28.1343 69.8955 28.3603 69.8955 28.7096C69.8955 29.0589 69.6249 29.2849 69.2085 29.2849C68.7504 29.2849 68.2924 29.2849 67.8343 29.2849C67.6886 29.2849 67.647 29.326 67.647 29.4699C67.647 29.7164 67.6678 29.9425 67.647 30.189C67.647 30.3534 67.7094 30.3945 67.8552 30.3945C68.5631 30.3945 69.2709 30.3945 69.9788 30.3945C70.3952 30.3945 70.6451 30.6 70.6451 30.9699C70.6451 31.3192 70.3952 31.5247 69.9996 31.5247C69.0419 31.5247 68.105 31.5247 67.1473 31.5247C66.7309 31.5247 66.5018 31.2986 66.5018 30.8877C66.4602 30.1069 66.4602 29.4082 66.4602 28.6891Z" fill="white"/>
<path d="M47.8709 28.6685C47.8709 27.9493 47.8709 27.2301 47.8709 26.5315C47.8709 26.1206 48.0791 25.8945 48.4955 25.8945C49.4533 25.8945 50.4318 25.8945 51.3895 25.8945C51.7643 25.8945 52.0142 26.1411 52.0142 26.4493C52.0142 26.7781 51.7643 27.0247 51.3895 27.0247C50.6608 27.0247 49.9321 27.0247 49.2242 27.0247C49.0785 27.0247 48.9952 27.0452 49.016 27.2301C49.0369 27.4562 49.0369 27.6822 49.016 27.8877C48.9952 28.0521 49.0577 28.1137 49.2242 28.1137C49.7239 28.0932 50.2028 28.1137 50.7025 28.1137C50.9731 28.1137 51.1605 28.2781 51.2438 28.5247C51.3063 28.7507 51.2438 28.9973 51.0356 29.1411C50.9107 29.2438 50.7649 29.2644 50.6192 29.2644C50.1612 29.2644 49.7031 29.2644 49.2451 29.2644C49.0577 29.2644 48.9952 29.326 49.016 29.4904C49.0369 29.6959 49.0369 29.9014 49.016 30.1069C48.9952 30.2918 49.0577 30.3534 49.2659 30.3534C49.9738 30.3329 50.6817 30.3534 51.3895 30.3534C51.7643 30.3534 52.035 30.5795 52.035 30.9288C52.035 31.2575 51.7643 31.4836 51.4104 31.4836C50.4526 31.4836 49.4741 31.4836 48.5164 31.4836C48.1208 31.4836 47.8917 31.2575 47.8917 30.8466C47.8501 30.1069 47.8709 29.3877 47.8709 28.6685Z" fill="white"/>
<path d="M56.4434 25.8945C57.0889 25.8945 57.651 26.1 58.1507 26.4699C58.4422 26.6959 58.5046 27.0041 58.3173 27.2918C58.1299 27.5589 57.7968 27.6 57.4844 27.3945C56.7349 26.8808 55.8813 26.9219 55.2775 27.5178C54.6529 28.1137 54.5904 29.1 55.1318 29.737C55.6939 30.4151 56.6725 30.5589 57.4012 30.0658C57.7343 29.8397 57.9633 29.8192 58.1923 30.0041C58.5046 30.2507 58.4838 30.6616 58.1715 30.9082C57.2971 31.5863 56.0687 31.6685 55.0901 31.1548C54.0908 30.6 53.5078 29.511 53.6327 28.4219C53.7993 26.963 54.986 25.8945 56.4434 25.8945Z" fill="white"/>
<path d="M43.2071 29.0178C43.2071 28.4219 43.2071 27.826 43.2071 27.2507C43.2071 27.0863 43.1654 27.0247 42.9989 27.0247C42.7282 27.0452 42.4575 27.0247 42.2077 27.0247C41.8537 27.0247 41.5831 26.7781 41.6039 26.4493C41.6039 26.1411 41.8537 25.8945 42.2077 25.8945C43.2695 25.8945 44.3314 25.8945 45.3932 25.8945C45.7471 25.8945 45.997 26.1411 45.997 26.4493C45.997 26.7575 45.7471 27.0041 45.414 27.0247C45.1642 27.0247 44.8935 27.0452 44.6437 27.0247C44.4146 27.0041 44.373 27.0863 44.373 27.2918C44.373 28.463 44.373 29.6342 44.373 30.8055C44.373 31.0315 44.3105 31.2164 44.1231 31.3397C43.9358 31.463 43.7276 31.4836 43.5402 31.3808C43.332 31.2781 43.2279 31.0932 43.2279 30.8671C43.2071 30.2712 43.2071 29.6343 43.2071 29.0178Z" fill="white"/>
<path d="M61.6946 29.0384C61.6946 28.463 61.6946 27.8671 61.6946 27.2918C61.6946 27.0863 61.6738 26.9836 61.4239 27.0247C61.1741 27.0452 60.9243 27.0247 60.6744 27.0247C60.3205 27.0247 60.0498 26.7575 60.0498 26.4493C60.0498 26.1411 60.3205 25.8945 60.6536 25.8945C61.7154 25.8945 62.7773 25.8945 63.8391 25.8945C64.193 25.8945 64.4429 26.1411 64.4429 26.4493C64.4429 26.7781 64.2139 27.0041 63.8599 27.0247C63.5893 27.0247 63.3186 27.0452 63.0271 27.0247C62.8397 27.0041 62.8189 27.0863 62.8189 27.2507C62.8189 28.463 62.8189 29.6548 62.8189 30.8671C62.8189 31.1754 62.6523 31.3808 62.3817 31.4425C62.1318 31.5041 61.882 31.4014 61.7362 31.1754C61.6738 31.0726 61.653 30.9493 61.653 30.826C61.6946 30.2302 61.6946 29.6343 61.6946 29.0384Z" fill="white"/>
<path d="M71.8545 12.2843C71.8545 11.7089 71.8545 11.1336 71.8545 10.5582C71.8545 10.3322 71.917 10.1678 72.1252 10.0651C72.3334 9.98289 72.5207 10.024 72.6457 10.2295C72.7081 10.3117 72.7498 10.2706 72.8122 10.25C73.6034 9.88015 74.3321 9.96234 74.9775 10.5788C75.1025 10.7021 75.1441 10.5993 75.2066 10.5377C75.7271 10.0651 76.3309 9.92124 76.9763 10.1267C77.6425 10.3322 78.059 10.8048 78.2255 11.4829C78.288 11.7089 78.2672 11.9349 78.2672 12.161C78.2672 12.7774 78.2672 13.4144 78.2672 14.0308C78.2672 14.3391 78.1006 14.524 77.8508 14.5445C77.5801 14.5445 77.4135 14.3596 77.4135 14.0308C77.4135 13.3322 77.4135 12.613 77.4135 11.9144C77.4135 11.3185 77.0179 10.9075 76.4558 10.9075C75.9145 10.9075 75.4981 11.3391 75.4981 11.9144C75.4981 12.6541 75.4981 13.3733 75.4981 14.113C75.4981 14.3185 75.3939 14.4829 75.1857 14.5445C74.9984 14.6062 74.8318 14.5445 74.7277 14.4007C74.6444 14.298 74.6444 14.1952 74.6444 14.0719C74.6444 13.3527 74.6444 12.6336 74.6444 11.8938C74.6444 11.4007 74.3321 11.0308 73.8741 10.9281C73.4577 10.8459 73.0204 11.0514 72.8122 11.4418C72.7289 11.6062 72.7081 11.7911 72.7081 11.976C72.7081 12.6747 72.7081 13.3528 72.7081 14.0514C72.7081 14.3596 72.5624 14.5651 72.2917 14.5651C72.0211 14.5651 71.8545 14.3801 71.8545 14.0514C71.8545 13.4555 71.8545 12.8801 71.8545 12.2843Z" fill="#B1B1B1"/>
<path d="M89.5936 11.5526C90.0308 11.1417 90.4264 10.7924 90.8428 10.4225C90.9469 10.3198 91.051 10.217 91.176 10.1348C91.3633 9.99099 91.6132 10.0321 91.7589 10.1965C91.9047 10.3814 91.9047 10.6074 91.7173 10.7718C91.3842 11.08 91.0302 11.4088 90.6971 11.717C90.5722 11.8198 90.5722 11.8814 90.6763 12.0047C91.1968 12.58 91.7173 13.1759 92.2586 13.7513C92.3627 13.854 92.4668 13.9773 92.446 14.1417C92.4252 14.3266 92.3419 14.4499 92.1753 14.5115C91.988 14.5732 91.8214 14.5321 91.6757 14.3883C91.2176 13.8746 90.7387 13.3609 90.2807 12.8472C90.2182 12.7855 90.1766 12.7239 90.1141 12.6622C90.0308 12.6006 89.9892 12.4362 89.8851 12.4773C89.7394 12.5595 89.5936 12.6417 89.5936 12.8677C89.6144 13.2581 89.5936 13.6485 89.5936 14.0184C89.5936 14.3472 89.4271 14.5321 89.1564 14.5321C88.8857 14.5321 88.74 14.3472 88.74 14.0389C88.74 12.2307 88.74 10.4225 88.74 8.61428C88.74 8.30607 88.9066 8.12113 89.1564 8.10059C89.4271 8.10059 89.5936 8.28552 89.5936 8.61428C89.5936 9.49784 89.5936 10.3814 89.5936 11.2444C89.5936 11.3472 89.5936 11.4293 89.5936 11.5526Z" fill="#B1B1B1"/>
<path d="M69.13 12.9912C69.5048 12.1076 69.8588 11.2446 70.2335 10.4021C70.296 10.2377 70.3585 10.0939 70.5667 10.0733C70.7332 10.0528 70.879 10.0733 71.0039 10.1966C71.1288 10.3405 71.1496 10.5049 71.0663 10.6898C70.7332 11.4706 70.4001 12.272 70.067 13.0528C69.6506 14.0596 69.2341 15.046 68.7969 16.0528C68.7761 16.1144 68.7553 16.1555 68.7344 16.2172C68.6095 16.4638 68.3805 16.5665 68.1515 16.4638C67.9225 16.361 67.8392 16.135 67.9433 15.8884C68.1515 15.3747 68.3805 14.861 68.5887 14.3473C68.6512 14.224 68.6512 14.1007 68.5887 13.9775C68.1307 12.909 67.6726 11.8199 67.2354 10.7514C67.0688 10.361 67.2978 10.0323 67.6518 10.0939C67.8392 10.1144 67.9433 10.2583 68.0266 10.4227C68.3597 11.2035 68.6928 12.0049 69.0259 12.7857C69.0468 12.8268 69.0884 12.8884 69.13 12.9912Z" fill="#B1B1B1"/>
<path d="M64.4629 12.0839C64.4629 11.7962 64.4421 11.5086 64.4629 11.2209C64.4837 10.9949 64.4004 10.9332 64.1922 10.9538C64.109 10.9743 64.0465 10.9538 63.9632 10.9538C63.7342 10.9332 63.5884 10.7688 63.5676 10.5428C63.5676 10.3373 63.7134 10.1524 63.9424 10.1113C63.9632 10.1113 63.984 10.1113 64.0257 10.1113C64.4629 10.0908 64.4629 10.0908 64.4629 9.63871C64.4629 9.2894 64.4629 8.94008 64.4629 8.61131C64.4629 8.3031 64.6503 8.11816 64.9001 8.11816C65.15 8.11816 65.3165 8.3031 65.3165 8.59077C65.3165 9.04282 65.3165 9.47433 65.3165 9.92638C65.3165 10.0702 65.3582 10.1319 65.5039 10.1113C65.6913 10.0908 65.8787 10.1113 66.0869 10.1113C66.3576 10.1113 66.5241 10.2757 66.5241 10.5223C66.5241 10.7688 66.3576 10.9538 66.0869 10.9538C65.8787 10.9538 65.6913 10.9538 65.4831 10.9538C65.3582 10.9538 65.3165 10.9949 65.3165 11.1182C65.3165 11.7141 65.3165 12.3099 65.3165 12.8853C65.3374 13.4401 65.5456 13.6456 66.1077 13.6867C66.3992 13.7072 66.5866 13.9127 66.5449 14.1798C66.5033 14.4058 66.3575 14.5291 66.1285 14.5291C65.2957 14.5291 64.5462 14.2414 64.4629 13.1524C64.4629 12.8031 64.4837 12.4538 64.4629 12.0839C64.4837 12.0839 64.4837 12.0839 64.4629 12.0839Z" fill="#B1B1B1"/>
<path d="M60.405 10.5239C60.988 10.0924 61.6543 9.96914 62.3622 10.113C62.4663 10.1335 62.5912 10.1746 62.6953 10.2363C62.9451 10.3595 63.0284 10.565 62.9243 10.7911C62.8202 11.0171 62.612 11.0993 62.3414 11.0171C61.5502 10.75 60.8006 11.0582 60.4883 11.7568C60.4051 11.9417 60.3634 12.1472 60.3634 12.3527C60.3634 12.9075 60.3634 13.4623 60.3634 14.0376C60.3634 14.3664 60.1968 14.5719 59.947 14.5719C59.6763 14.5719 59.5098 14.3869 59.5098 14.0376C59.5098 12.9075 59.5098 11.7774 59.5098 10.6678C59.5098 10.2979 59.6347 10.113 59.8845 10.0924C60.1552 10.0308 60.3009 10.1541 60.405 10.5239Z" fill="#B1B1B1"/>
<path d="M40.9382 10.5204C41.542 10.0683 42.2082 9.96558 42.9161 10.1094C43.041 10.13 43.166 10.1711 43.2909 10.2533C43.4991 10.3971 43.5615 10.6026 43.4574 10.808C43.3533 11.0135 43.1451 11.0957 42.9161 11.0135C42.5205 10.8697 42.1249 10.8491 41.7294 11.0546C41.188 11.3217 40.9382 11.7532 40.9174 12.3491C40.9174 12.9245 40.9174 13.4998 40.9174 14.0752C40.9174 14.3834 40.7508 14.5683 40.5009 14.5683C40.2303 14.5683 40.0637 14.3834 40.0637 14.0752C40.0637 12.9039 40.0637 11.7327 40.0637 10.582C40.0637 10.2943 40.1886 10.1094 40.4385 10.0889C40.7092 10.0272 40.8757 10.1711 40.9382 10.5204Z" fill="#B1B1B1"/>
<path d="M85.409 10.5204C86.0128 10.0683 86.6791 9.96558 87.387 10.1094C87.5119 10.13 87.6369 10.1711 87.7618 10.2532C87.97 10.3971 88.0324 10.6026 87.9283 10.808C87.8242 11.0135 87.616 11.0957 87.387 11.0135C86.9914 10.8697 86.5958 10.8491 86.2002 11.0546C85.6797 11.3217 85.409 11.7327 85.3882 12.308C85.3882 12.9039 85.3882 13.4998 85.3882 14.1163C85.3882 14.3423 85.2841 14.4861 85.0551 14.5478C84.8469 14.6094 84.6803 14.5067 84.5762 14.3217C84.5138 14.2395 84.5346 14.1368 84.5346 14.0341C84.5346 12.8834 84.5346 11.7327 84.5346 10.582C84.5346 10.2532 84.6595 10.0889 84.9094 10.0683C85.18 10.0272 85.3258 10.1711 85.409 10.5204Z" fill="#B1B1B1"/>
<path d="M31.7406 11.3441C31.7406 12.3099 31.7406 13.2757 31.7406 14.262C31.7406 14.4058 31.7406 14.5496 31.5734 14.5496C31.3853 14.5496 31.3853 14.4058 31.3853 14.262C31.3853 12.3099 31.3853 10.3578 31.3853 8.42634C31.3853 8.28251 31.3853 8.13867 31.5734 8.13867C31.7615 8.13867 31.7615 8.28251 31.7615 8.42634C31.7406 9.39209 31.7406 10.3578 31.7406 11.3441Z" fill="#B1B1B1"/>
<path fill-rule="evenodd" clip-rule="evenodd" d="M40.2717 28.6891C40.2925 27.148 39.0225 25.8945 37.461 25.8945C35.8786 25.8945 34.6294 27.1274 34.6294 28.6891C34.6294 30.2302 35.8786 31.4836 37.461 31.4836C39.0225 31.4836 40.2717 30.2302 40.2717 28.6891ZM39.1279 28.6829C39.1279 27.7377 38.3992 27.0186 37.4622 27.0186C36.5253 27.0186 35.7758 27.7377 35.7758 28.6624C35.755 29.587 36.5045 30.3268 37.4414 30.3268C38.3783 30.3268 39.1279 29.6076 39.1279 28.6829Z" fill="white"/>
<path fill-rule="evenodd" clip-rule="evenodd" d="M72.7097 26.5966V28.6719V30.85C72.7097 31.2404 72.9387 31.487 73.2927 31.487C73.3968 31.487 73.5009 31.4883 73.605 31.4896C73.9173 31.4934 74.2296 31.4973 74.5419 31.4664C75.9577 31.3637 77.0612 30.213 77.1236 28.7952C77.1861 27.398 76.1659 26.1651 74.7709 25.9391C74.4281 25.8775 74.0968 25.8851 73.7598 25.8928C73.6466 25.8954 73.5328 25.898 73.4176 25.898C72.9179 25.898 72.7097 26.1034 72.7097 26.5966ZM73.8498 27.2455V28.6838C73.8498 29.0537 73.8498 29.4236 73.8289 29.814C73.8289 30.3688 73.8289 30.3688 74.3911 30.3277C75.557 30.266 76.3065 29.0126 75.786 27.9852C75.4529 27.2866 74.8491 26.9784 74.0788 27.0195C73.9122 27.0195 73.8498 27.0606 73.8498 27.2455Z" fill="white"/>
<path fill-rule="evenodd" clip-rule="evenodd" d="M28.7191 26.5315V28.6685V28.6687C28.7191 29.3878 28.7191 30.1069 28.6982 30.826C28.6982 31.2164 28.9273 31.463 29.2812 31.463C29.6352 31.463 29.8642 31.2164 29.8642 30.826V29.6959C29.8642 29.6839 29.8634 29.6711 29.8626 29.658C29.8592 29.6038 29.8555 29.5441 29.9058 29.511C30.0099 29.4288 30.4888 29.5315 30.5721 29.6548C30.8131 30.0117 31.0433 30.3793 31.2704 30.7421C31.3572 30.8806 31.4435 31.0185 31.5298 31.1548C31.738 31.4836 32.0711 31.5658 32.3626 31.3808C32.6541 31.1959 32.6958 30.8671 32.5084 30.5589C32.2585 30.148 32.0087 29.737 31.738 29.3466C31.6339 29.2027 31.6339 29.1411 31.7797 29.0178C32.321 28.5247 32.5084 27.7644 32.2585 27.1069C32.0087 26.3877 31.3424 25.9151 30.5929 25.8945H29.3437C28.9273 25.9151 28.7191 26.1206 28.7191 26.5315ZM30.5413 27.0174C29.8542 26.9968 29.8542 26.9968 29.8542 27.6749C29.8542 28.3941 29.8542 28.3941 30.5621 28.353C30.9369 28.3324 31.2076 28.0448 31.2076 27.6749C31.2076 27.305 30.9161 27.0379 30.5413 27.0174H30.5413Z" fill="white"/>
<path fill-rule="evenodd" clip-rule="evenodd" d="M23.0304 26.5315V28.6685C23.0304 28.8541 23.029 29.0384 23.0277 29.222C23.0238 29.7704 23.02 30.313 23.0512 30.8671C23.0512 31.2164 23.301 31.463 23.6133 31.463C23.9256 31.4836 24.1963 31.2164 24.1963 30.8671V30.148C24.1963 29.9434 24.1963 29.8406 24.2477 29.789C24.2995 29.737 24.4036 29.737 24.6127 29.737C25.6954 29.737 26.5698 28.8945 26.5698 27.826C26.5698 26.7781 25.7162 25.9151 24.6335 25.8945H23.6758C23.2386 25.8945 23.0304 26.1 23.0304 26.5315ZM24.1796 27.6193C24.1773 27.6878 24.175 27.7563 24.175 27.8248V28.1741C24.175 28.6467 24.175 28.6467 24.6747 28.6056L24.6747 28.6056C25.0495 28.5645 25.3618 28.2768 25.4034 27.9275C25.4659 27.5371 25.2368 27.1878 24.8621 27.0645C24.7578 27.0259 24.6534 27.0276 24.5542 27.0292C24.495 27.0302 24.4377 27.0311 24.3832 27.0234C24.2166 27.0029 24.1542 27.044 24.175 27.2084C24.1889 27.3453 24.1843 27.4823 24.1796 27.6193Z" fill="white"/>
<path fill-rule="evenodd" clip-rule="evenodd" d="M35.6492 15.8841V14.0759C35.681 14.0994 35.7067 14.117 35.7287 14.132C35.7643 14.1562 35.79 14.1738 35.8158 14.1992C36.5861 14.6923 37.6063 14.6718 38.335 14.1786C39.147 13.6444 39.501 12.7197 39.2927 11.7951C39.0429 10.6855 38.0227 9.98685 36.836 10.069C35.7533 10.1512 34.8372 11.0553 34.7956 12.1649C34.7643 13.1201 34.7682 14.0868 34.7721 15.0564C34.7734 15.3801 34.7747 15.704 34.7747 16.0279C34.7747 16.0896 34.7747 16.1718 34.8164 16.2334C34.8997 16.3978 35.0662 16.48 35.2536 16.4594C35.4618 16.4389 35.5867 16.3362 35.6284 16.1512C35.6492 16.069 35.6492 15.9663 35.6492 15.8841V15.8841ZM35.6446 12.2801C35.6238 13.0609 36.2692 13.6979 37.0604 13.6979C37.8307 13.6979 38.4762 13.0609 38.4762 12.3006C38.497 11.5198 37.8307 10.8828 37.0604 10.8828C36.29 10.8828 35.6446 11.5198 35.6446 12.2801Z" fill="#B1B1B1"/>
<path fill-rule="evenodd" clip-rule="evenodd" d="M49.7998 16.0103V14.0993C49.8622 14.1199 49.883 14.1199 49.9039 14.1199C50.6742 14.6336 51.507 14.7157 52.319 14.2637C53.131 13.8116 53.5266 13.113 53.5058 12.1678C53.485 11.0582 52.5064 10.0925 51.3613 10.0308C49.9663 9.96918 48.9878 11.0582 48.9669 12.0445C48.9357 13.0456 48.9396 14.0351 48.9435 15.0303C48.9448 15.363 48.9461 15.6963 48.9461 16.0308C48.9461 16.2363 49.0294 16.3801 49.2376 16.4418C49.5291 16.5445 49.7998 16.339 49.7998 16.0103ZM51.2387 10.9109C50.4475 10.8903 49.8021 11.5273 49.8021 12.3081C49.8021 13.0684 50.4475 13.7054 51.2179 13.7054C51.9882 13.7054 52.6545 13.0684 52.6545 12.3081C52.6545 11.5478 52.0091 10.9109 51.2387 10.9109Z" fill="#B1B1B1"/>
<path fill-rule="evenodd" clip-rule="evenodd" d="M82.972 10.0858C82.7846 10.168 82.7221 10.3118 82.7013 10.5173C81.6186 9.81865 80.4111 9.92139 79.5991 10.7844C78.8496 11.6063 78.7871 12.8392 79.4742 13.7022C80.1404 14.5652 81.4521 14.9556 82.6805 14.1337C82.7846 14.483 82.9511 14.6063 83.2218 14.5652C83.4508 14.5241 83.5758 14.3392 83.5758 13.9899V13.1269V10.5378C83.5758 10.168 83.2843 9.94194 82.972 10.0858ZM79.8774 12.3045C79.8566 13.0648 80.5229 13.7223 81.2932 13.7223C82.0636 13.7223 82.7299 13.0648 82.7299 12.3045C82.7299 11.5442 82.0844 10.9072 81.3141 10.9072C80.5229 10.9072 79.8774 11.5237 79.8774 12.3045Z" fill="#B1B1B1"/>
<path fill-rule="evenodd" clip-rule="evenodd" d="M17.6079 10C17.3789 10.0205 17.2332 10.1438 17.1707 10.4521C15.859 9.77397 14.7972 9.89726 14.0268 10.8219C13.3606 11.6027 13.319 12.7945 13.9436 13.5959C14.2559 14.0068 14.6723 14.3151 15.1928 14.4383C15.9007 14.6233 16.5669 14.4794 17.1707 14.0479C17.254 14.3767 17.4206 14.5205 17.6704 14.5C17.9202 14.4794 18.0452 14.2945 18.0452 13.9657V10.5137C18.0452 10.1849 17.8786 10 17.6079 10ZM15.7803 10.8408C15.01 10.8408 14.3645 11.4778 14.3645 12.2381C14.3645 13.0189 14.9892 13.6559 15.7803 13.6559C16.5507 13.6559 17.1961 13.0189 17.1961 12.2586C17.2169 11.4778 16.5715 10.8408 15.7803 10.8408Z" fill="#B1B1B1"/>
<path fill-rule="evenodd" clip-rule="evenodd" d="M24.2987 13.7651C24.9441 14.5253 26.2142 14.9158 27.4426 14.0938C27.5259 14.4226 27.6716 14.5664 27.9423 14.5664C28.1713 14.5459 28.3379 14.3815 28.3379 14.1555V10.4569C28.3379 10.2514 28.1713 10.087 27.9631 10.0664C27.7341 10.0459 27.5883 10.1486 27.505 10.3541C27.4946 10.3849 27.4894 10.4106 27.4842 10.4363C27.479 10.462 27.4738 10.4877 27.4634 10.5185C26.2142 9.69658 24.9441 10.087 24.2779 10.8884C23.5908 11.7308 23.5908 12.9432 24.2987 13.7651ZM24.613 12.305C24.613 13.0652 25.2585 13.7022 26.0288 13.7022C26.82 13.7022 27.4654 13.0652 27.4446 12.305C27.4446 11.5447 26.7992 10.9077 26.0288 10.9077C25.2585 10.8872 24.613 11.5241 24.613 12.305Z" fill="#B1B1B1"/>
<path fill-rule="evenodd" clip-rule="evenodd" d="M56.7174 13.6862C56.0303 13.7889 55.3016 13.3369 55.1767 12.7205C55.26 12.7205 55.3432 12.7205 55.4265 12.6999H58.2581C58.6745 12.6999 58.8202 12.5355 58.7994 12.1451C58.6953 10.8711 57.7168 10.0081 56.4259 10.0287C55.4682 10.0492 54.5937 10.7068 54.323 11.6109C54.0316 12.5766 54.4063 13.604 55.26 14.1588C56.0511 14.6725 57.1754 14.6314 57.9041 14.0561C58.1332 13.8917 58.1956 13.604 58.0499 13.4191C57.8833 13.2342 57.6335 13.2136 57.3836 13.3985C57.1754 13.5629 56.9672 13.6451 56.7174 13.6862ZM55.2775 11.8807H57.8384C57.6718 11.3259 57.1513 10.9355 56.5683 10.8944C55.9854 10.8739 55.4024 11.2232 55.1942 11.7163L55.1942 11.7163C55.1526 11.7985 55.1109 11.8807 55.2775 11.8807Z" fill="#B1B1B1"/>
<path fill-rule="evenodd" clip-rule="evenodd" d="M20.992 13.6579C20.305 13.7606 19.5763 13.3086 19.4513 12.6921C19.5346 12.6921 19.6179 12.6921 19.7012 12.6716H22.5327C22.9491 12.6716 23.0949 12.5072 23.0741 12.1168C22.97 10.8428 21.9914 9.97981 20.7006 10.0004C19.7428 10.0209 18.8684 10.6784 18.5977 11.5825C18.3062 12.5483 18.681 13.5757 19.5346 14.1305C20.3258 14.6442 21.4501 14.6031 22.1788 14.0278C22.4078 13.8634 22.4703 13.5757 22.3245 13.3908C22.158 13.2058 21.9081 13.1853 21.6583 13.3702C21.4501 13.5346 21.2419 13.6168 20.992 13.6579ZM19.5522 11.8524H22.113C21.9465 11.2976 21.426 10.9072 20.843 10.8661C20.26 10.8455 19.6771 11.1949 19.4689 11.688L19.4689 11.688C19.4272 11.7702 19.3856 11.8524 19.5522 11.8524Z" fill="#B1B1B1"/>
<path fill-rule="evenodd" clip-rule="evenodd" d="M48.2262 12.3091C48.2262 11.0351 47.2476 10.0488 45.9567 10.0488C44.6659 10.0488 43.6873 11.0351 43.6665 12.3091C43.6665 13.542 44.6659 14.5488 45.9359 14.5488C47.206 14.5694 48.2262 13.5625 48.2262 12.3091ZM45.9542 13.7008C46.7245 13.7008 47.37 13.0638 47.37 12.3035C47.37 11.5432 46.7454 10.9062 45.9542 10.9062C45.163 10.9062 44.5176 11.5227 44.5176 12.3035C44.5176 13.0638 45.163 13.7008 45.9542 13.7008Z" fill="#B1B1B1"/>
<path d="M9.5 14V11.0794M9.5 10V11.0794M9.5 11.0794L10.0988 10.5471C10.3573 10.3174 10.691 10.1905 11.0368 10.1905H11.2385C11.3728 10.1905 11.5061 10.2119 11.6336 10.2539V10.2539C12.1507 10.4245 12.5 10.9075 12.5 11.452V11.619V12.2857V14" stroke="#B1B1B1" stroke-width="0.9" stroke-linecap="round" stroke-linejoin="round"/>
</svg>
