<svg width="100" height="36" viewBox="0 0 100 36" fill="none" xmlns="http://www.w3.org/2000/svg">
<path d="M57.8454 23.8162C57.917 23.5409 57.9496 23.2657 57.8975 22.9815C57.8129 22.5093 57.5437 22.1781 57.166 21.9275C56.8859 21.7418 56.5842 21.6008 56.2716 21.4844C55.4315 21.1667 54.5611 20.9563 53.6949 20.7348C53.6537 20.7236 53.6081 20.7258 53.5755 20.69C53.1761 20.3499 52.742 20.059 52.3208 19.7479C50.378 18.3158 48.4395 16.8814 46.4967 15.4515C45.878 14.9972 45.2594 14.543 44.6429 14.0842C44.5778 14.035 44.517 13.9835 44.4605 13.9253C44.3954 13.7105 44.3954 13.4845 44.3867 13.2652C44.3455 12.2761 44.4388 11.3027 44.7232 10.3517C45.0922 9.11418 45.763 8.08034 46.7268 7.25237C47.7753 6.35056 48.9996 5.8135 50.3086 5.47113C51.1573 5.24959 52.0191 5.1198 52.8939 5.05491C53.7318 4.99225 54.5719 4.98106 55.4077 5.03253C56.9098 5.12204 58.3729 5.41518 59.7579 6.04623C60.7217 6.48483 61.5878 7.06664 62.3063 7.86775C63.1117 8.76509 63.6196 9.81907 63.8693 11.0118C63.9626 11.4571 64.006 11.9091 64.0364 12.3611C64.0516 12.5849 64.0429 12.5872 63.8324 12.5872C63.3266 12.5872 62.8186 12.5872 62.3128 12.5872C60.65 12.5872 58.9851 12.5872 57.3223 12.5872C57.2723 12.5872 57.2202 12.5827 57.1703 12.5872C57.0705 12.5961 57.027 12.5446 57.014 12.4462C56.988 12.2604 56.9337 12.0837 56.8621 11.9114C56.5668 11.2065 56.0437 10.7656 55.3404 10.5575C54.4069 10.2823 53.4735 10.2733 52.5509 10.6157C52.2145 10.741 51.9127 10.9312 51.674 11.2132C51.1986 11.7726 51.2138 12.6319 51.8454 13.1018C52.1233 13.31 52.4316 13.4532 52.7528 13.5718C53.4887 13.8425 54.2528 14.0126 55.0104 14.1961C56.0849 14.4557 57.166 14.6929 58.2296 15.0039C59.3172 15.3217 60.3809 15.6999 61.3816 16.2504C62.1652 16.68 62.8794 17.2081 63.485 17.8839C64.2491 18.7387 64.7245 19.7435 64.9568 20.8758C65.0892 21.5202 65.1413 22.1737 65.124 22.8293C65.074 24.6844 64.4901 26.3292 63.2723 27.7166C63.2593 27.7322 63.2376 27.7434 63.2224 27.7568C62.8403 27.5308 62.4973 27.2466 62.1392 26.9848C60.7173 25.942 59.2998 24.8903 57.8758 23.8497C57.865 23.8363 57.8563 23.8251 57.8454 23.8162Z" fill="#B1B1B1"/>
<path d="M57.8468 23.8191C57.938 23.799 57.9966 23.8639 58.0596 23.9109C58.8085 24.4636 59.5574 25.0208 60.3063 25.5735C60.8403 25.9674 61.3765 26.3567 61.9105 26.7484C62.3164 27.046 62.7202 27.3436 63.1239 27.6412C63.1652 27.6725 63.2021 27.7083 63.2238 27.7576C62.7267 28.3372 62.1362 28.8026 61.498 29.2054C60.3888 29.9058 59.1797 30.3422 57.9119 30.6197C56.5379 30.9217 55.1464 30.9889 53.7484 30.924C52.1312 30.8479 50.5444 30.5838 49.0206 29.9953C47.7593 29.5075 46.6132 28.8272 45.6646 27.8314C44.6487 26.764 44.017 25.4885 43.7348 24.0228C43.6479 23.5685 43.6067 23.1098 43.5763 22.6488C43.5611 22.4071 43.5633 22.4004 43.8042 22.4004C45.975 22.4004 48.1457 22.4004 50.3143 22.4004C50.4163 22.4004 50.5162 22.3982 50.6182 22.4004C50.7919 22.4026 50.7941 22.4026 50.8288 22.575C50.8657 22.7719 50.9069 22.9688 50.9699 23.159C51.2738 24.0586 51.8859 24.6404 52.7325 24.9783C53.2296 25.1752 53.7463 25.2647 54.2759 25.3095C54.8577 25.3587 55.4308 25.3319 55.9995 25.2021C56.3403 25.126 56.6659 25.0051 56.972 24.8284C57.3736 24.5956 57.6862 24.2756 57.8468 23.8191Z" fill="#B1B1B1"/>
<path d="M31.8367 5.46154C31.6891 5.63833 31.4894 5.74798 31.3092 5.88C30.6515 6.37454 29.9807 6.85342 29.3186 7.34125C28.5089 7.93873 27.7058 8.54068 26.8961 9.13816C26.3686 9.52753 25.8389 9.91242 25.3114 10.3018C24.5191 10.8858 23.729 11.4699 22.9388 12.0539C22.6219 12.2867 22.3071 12.5239 21.9858 12.7499C21.8816 12.8215 21.8361 12.9043 21.8491 13.0274C21.8512 13.0497 21.8491 13.0721 21.8491 13.0945C21.8491 18.7829 21.8491 24.4712 21.8491 30.1596C21.8491 30.22 21.8513 30.2782 21.8513 30.3386C21.8187 30.3296 21.8078 30.305 21.8078 30.2737C21.8078 30.1998 21.8057 30.1238 21.8057 30.0499C21.8057 24.4802 21.8057 18.9104 21.8057 13.3429C21.8057 10.8008 21.81 8.25873 21.81 5.71665C21.81 5.70098 21.81 5.68756 21.81 5.67189C21.8122 5.45483 21.8122 5.45259 22.0271 5.45259C23.857 5.45259 25.687 5.45259 27.5169 5.45259C28.8975 5.45259 30.2803 5.45259 31.6609 5.45259C31.7195 5.45036 31.7781 5.45707 31.8367 5.46154Z" fill="#B1B1B1"/>
<path d="M0.0152856 28.921C0.130335 28.8875 0.210653 28.8024 0.303995 28.7331C0.831487 28.3437 1.36115 27.9588 1.88864 27.5694C2.68097 26.9854 3.46895 26.4013 4.26127 25.8173C4.98196 25.2847 5.70482 24.7566 6.42551 24.224C6.63173 24.0741 6.83578 23.9219 7.042 23.772C7.04634 23.8458 7.05285 23.9197 7.05285 23.9935C7.05285 26.0276 7.05285 28.0595 7.05285 30.0936C7.05285 30.1316 7.04851 30.1697 7.05285 30.2055C7.06805 30.3286 7.00727 30.3621 6.9009 30.3509C6.85097 30.3465 6.79888 30.3509 6.74895 30.3509C4.59557 30.3509 2.44218 30.3509 0.2888 30.3509C0.23019 30.3509 0.17375 30.3487 0.11514 30.3509C0.0348223 30.3554 -0.00208039 30.3241 9.03551e-05 30.2368C0.0109441 29.7982 -0.0107634 29.3596 0.0152856 28.921Z" fill="#B1B1B1"/>
<path d="M42.9047 13.349C42.9026 13.1857 42.8961 13.0223 42.8982 12.8567C42.9004 12.765 42.8678 12.709 42.7919 12.6553C42.0864 12.1406 41.383 11.6215 40.6797 11.1001C39.7246 10.3952 38.7716 9.68583 37.8165 8.98094C37.1609 8.49759 36.501 8.01647 35.8433 7.53312C35.0292 6.93117 34.2152 6.32921 33.4034 5.72502C33.2948 5.64446 33.1559 5.59747 33.0864 5.46321C33.7159 5.4453 34.3433 5.4453 34.9706 5.4923C35.5415 5.53705 36.1059 5.61313 36.6638 5.73174C37.8708 5.98908 39.0126 6.41201 40.0415 7.12585C41.5719 8.18654 42.5097 9.64555 42.8179 11.5275C42.9004 12.0355 42.9178 12.5479 42.9351 13.0626C42.9416 13.1588 42.9525 13.2595 42.9047 13.349Z" fill="#B1B1B1"/>
<path d="M44.4617 13.9243C44.6744 13.9914 44.8264 14.157 45.0022 14.2824C45.458 14.6068 45.9052 14.9447 46.3546 15.2782C47.097 15.8286 47.8372 16.3814 48.5818 16.9296C49.1092 17.319 49.6389 17.7039 50.1664 18.091C50.9566 18.6728 51.7467 19.2591 52.5369 19.8432C52.8885 20.1027 53.2402 20.3601 53.594 20.6174C53.6656 20.6689 53.6201 20.6756 53.5745 20.689C53.0448 20.5771 52.5238 20.425 52.0029 20.2795C50.95 19.9886 49.9103 19.6552 48.9095 19.2032C48.0065 18.7937 47.1512 18.3014 46.4045 17.6278C45.3538 16.6812 44.7026 15.5019 44.4725 14.081C44.4638 14.0295 44.4638 13.9758 44.4617 13.9243Z" fill="#B1B1B1"/>
<path d="M71.4304 30.9816C70.8877 30.9838 70.4254 30.9122 69.989 30.7131C69.1989 30.3528 68.7734 29.7106 68.6497 28.8445C68.6106 28.5648 68.6193 28.5626 68.8841 28.5648C68.9992 28.5671 69.1359 28.5178 69.2228 28.5894C69.3096 28.6611 69.2814 28.8087 69.3053 28.9251C69.4247 29.4778 69.696 29.9231 70.2061 30.1671C70.8856 30.4938 71.5889 30.5408 72.2879 30.2521C73.052 29.9388 73.2582 29.178 73.0585 28.4798C72.9955 28.2583 72.8544 28.0904 72.6656 27.9606C72.3638 27.7548 72.023 27.6585 71.6779 27.5735C71.2915 27.4773 70.9029 27.399 70.5165 27.3027C70.256 27.2378 70.0021 27.1506 69.7633 27.0253C69.2488 26.7545 68.9428 26.3427 68.8972 25.7318C68.8559 25.1679 69.0057 24.689 69.4051 24.2974C69.6092 24.0983 69.8436 23.9551 70.1084 23.8656C70.9311 23.5903 71.7495 23.5903 72.5288 24.0043C73.141 24.3288 73.4383 24.8972 73.5512 25.5797C73.5751 25.7206 73.5556 25.7385 73.4231 25.743C73.2994 25.7475 73.1779 25.7408 73.0541 25.743C72.9847 25.7453 72.9456 25.7162 72.9369 25.6446C72.9304 25.5931 72.9152 25.5439 72.9022 25.4924C72.7719 24.9553 72.4724 24.5615 71.9579 24.3825C71.3392 24.1676 70.7162 24.1721 70.1258 24.4876C69.6113 24.7629 69.4529 25.2283 69.5267 25.7609C69.5636 26.016 69.6982 26.2152 69.9044 26.3651C70.1149 26.5173 70.3537 26.6046 70.5969 26.6762C71.0549 26.8104 71.5303 26.8709 71.9926 26.9939C72.3421 27.0879 72.6873 27.1953 72.9999 27.3945C73.4883 27.7033 73.7379 28.1553 73.7705 28.7394C73.7943 29.1399 73.7466 29.5293 73.5512 29.8851C73.2538 30.4244 72.7871 30.7265 72.2206 30.8809C71.9405 30.957 71.654 30.995 71.4304 30.9816Z" fill="#B1B1B1"/>
<path d="M91.994 26.5763C92.1503 26.3615 92.2936 26.1578 92.4998 26.0124C93.0186 25.6498 93.5787 25.5559 94.1713 25.7684C94.6728 25.9497 94.9484 26.3436 95.044 26.8739C95.0743 27.035 95.083 27.1984 95.083 27.364C95.0809 28.4314 95.0809 29.4966 95.0809 30.564C95.0809 30.6244 95.0787 30.6826 95.0809 30.743C95.0809 30.8168 95.044 30.8437 94.9745 30.8526C94.5165 30.9131 94.4882 30.8907 94.4882 30.4185C94.4882 29.4048 94.4882 28.3889 94.4882 27.3752C94.4882 27.2409 94.4904 27.1089 94.46 26.9746C94.3537 26.5136 94.078 26.2451 93.6199 26.1981C92.7994 26.1131 92.1547 26.6815 92.1373 27.4893C92.1178 28.503 92.1308 29.5189 92.1286 30.5326C92.1286 30.8951 92.1677 30.8526 91.8139 30.8526C91.5013 30.8526 91.5317 30.8795 91.5317 30.5684C91.5317 29.5234 91.5317 28.4806 91.5317 27.4356C91.5317 27.2946 91.5273 27.1536 91.5056 27.0126C91.3906 26.2854 90.7719 26.1175 90.3139 26.2138C89.6127 26.3615 89.1569 26.9343 89.1525 27.6795C89.1482 28.5142 89.1525 29.3511 89.1525 30.1858C89.1525 30.3357 89.1525 30.4834 89.1525 30.6333C89.1504 30.8526 89.1504 30.8571 88.9376 30.8526C88.5078 30.8482 88.5751 30.913 88.5729 30.4744C88.5708 29.0199 88.5708 27.5654 88.5708 26.1108C88.5708 26.0661 88.5708 26.0213 88.5708 25.9766C88.5751 25.7841 88.5751 25.7819 88.7661 25.7796C88.853 25.7774 88.9398 25.7819 89.0266 25.7796C89.1221 25.7752 89.1525 25.8222 89.1525 25.9139C89.1504 26.0996 89.1525 26.2831 89.1525 26.4845C89.2459 26.4756 89.2676 26.4017 89.3023 26.3547C89.7517 25.7707 90.3399 25.5693 91.0368 25.708C91.4231 25.7864 91.7205 26.0168 91.9072 26.3838C91.9333 26.4398 91.9571 26.498 91.994 26.5763Z" fill="#B1B1B1"/>
<path d="M79.8077 26.5129C79.888 26.3876 79.9879 26.2847 80.0899 26.1818C80.6195 25.638 81.5985 25.506 82.2519 25.8483C82.6709 26.0676 82.901 26.4257 82.9813 26.8934C83.0095 27.0634 83.0182 27.2335 83.0182 27.4058C83.016 28.4575 83.0182 29.5071 83.0182 30.5588C83.0182 30.6192 83.016 30.6774 83.0182 30.7378C83.0182 30.8117 82.9878 30.8497 82.914 30.8497C82.7838 30.8497 82.6535 30.8497 82.5233 30.8497C82.4538 30.8497 82.4147 30.8184 82.4169 30.7423C82.4169 30.6819 82.4169 30.6237 82.4169 30.5633C82.4169 29.4981 82.4169 28.4307 82.4169 27.3655C82.4169 27.2693 82.4169 27.1708 82.4039 27.0746C82.3279 26.5443 82.0001 26.2869 81.5703 26.2086C80.9625 26.1012 80.3178 26.3608 79.9922 26.8687C79.8402 27.1059 79.7686 27.3678 79.7686 27.6497C79.7686 28.6254 79.7686 29.6033 79.7686 30.5789C79.7686 30.8654 79.7947 30.8497 79.5146 30.8475C79.1174 30.843 79.1695 30.9012 79.1695 30.4939C79.1673 28.377 79.1695 26.2601 79.1695 24.1432C79.1695 24.0827 79.1717 24.0246 79.1695 23.9641C79.1651 23.8612 79.2086 23.8232 79.3106 23.8165C79.7708 23.7851 79.7708 23.7829 79.7708 24.2551C79.7708 25.0002 79.7708 25.7454 79.7708 26.4906C79.7816 26.4973 79.7947 26.5062 79.8077 26.5129Z" fill="#B1B1B1"/>
<path d="M97.9479 16.7901C98.2583 16.7879 98.5384 16.8259 98.8054 16.9244C99.3784 17.1325 99.6889 17.5711 99.8104 18.1664C99.8386 18.3051 99.8213 18.3208 99.6889 18.3297C99.6671 18.3319 99.6454 18.3297 99.6237 18.3297C99.5087 18.3275 99.3828 18.3543 99.2808 18.314C99.1592 18.2671 99.2004 18.1082 99.157 18.003C99.0441 17.7166 98.8531 17.5152 98.5709 17.4122C98.1824 17.2713 97.7873 17.2713 97.3987 17.3966C97.0123 17.5196 96.817 17.8061 96.817 18.1887C96.817 18.4438 96.9277 18.6296 97.1339 18.7616C97.3011 18.869 97.4877 18.9339 97.6766 18.9831C98.0326 19.0771 98.3929 19.1599 98.7489 19.2561C98.9725 19.3166 99.1918 19.3949 99.3936 19.5157C99.767 19.7395 99.9645 20.0752 99.9949 20.516C100.049 21.288 99.6997 21.8519 98.9899 22.0981C98.33 22.3263 97.6636 22.3129 97.021 22.0242C96.4414 21.7669 96.1245 21.2902 96.042 20.6525C96.0203 20.4824 96.029 20.4757 96.1983 20.4757C96.3286 20.4735 96.4718 20.4444 96.5847 20.4914C96.715 20.5451 96.6715 20.7241 96.7128 20.8449C96.8387 21.203 97.0644 21.4581 97.4139 21.5856C97.8503 21.7468 98.2931 21.7557 98.7337 21.6125C99.1852 21.467 99.4088 21.1135 99.3915 20.6279C99.3806 20.3571 99.2634 20.1602 99.0355 20.0282C98.7858 19.8849 98.5123 19.8133 98.2388 19.744C97.9154 19.6612 97.5898 19.594 97.275 19.4844C97.1035 19.424 96.9385 19.3501 96.7801 19.2584C96.0333 18.8354 96.092 17.7949 96.5131 17.3406C96.7692 17.0631 97.084 16.9132 97.4378 16.8394C97.6136 16.8036 97.7938 16.7767 97.9479 16.7901Z" fill="#B1B1B1"/>
<path d="M93.5266 16.7899C93.8023 16.7832 94.0737 16.8213 94.3363 16.913C94.9398 17.1211 95.2545 17.5776 95.3739 18.202C95.3913 18.2892 95.3653 18.3273 95.2784 18.3273C95.1482 18.325 95.0179 18.325 94.8877 18.3273C94.8182 18.3295 94.7792 18.3004 94.7705 18.2266C94.7683 18.2042 94.7596 18.1841 94.7531 18.1617C94.6532 17.7029 94.3645 17.4411 93.9282 17.3516C93.5831 17.28 93.2379 17.28 92.9036 17.412C92.6127 17.5262 92.4195 17.732 92.3783 18.0632C92.3414 18.3564 92.4304 18.5913 92.6779 18.7524C92.8949 18.8934 93.1402 18.9606 93.3855 19.0255C93.722 19.115 94.0585 19.191 94.3949 19.2828C94.5273 19.3186 94.6554 19.3723 94.7813 19.4282C95.3761 19.6923 95.6257 20.2003 95.5433 20.9007C95.4803 21.4333 95.1851 21.8002 94.7184 22.024C94.2951 22.2277 93.8436 22.2746 93.3834 22.2321C93.1381 22.2098 92.8971 22.1628 92.667 22.0688C92.031 21.8047 91.6836 21.3147 91.5838 20.6232C91.5686 20.5203 91.5947 20.4643 91.7054 20.4733C91.7206 20.4755 91.7336 20.4733 91.7488 20.4733C91.879 20.4755 92.0223 20.4442 92.1352 20.4889C92.2719 20.5426 92.222 20.7239 92.2654 20.8447C92.3805 21.1603 92.5672 21.4086 92.8689 21.5429C93.3682 21.7644 93.8826 21.7756 94.3884 21.572C94.7661 21.4221 94.968 21.073 94.9528 20.6545C94.942 20.3815 94.8313 20.1689 94.5946 20.0324C94.3971 19.9183 94.1844 19.8512 93.9673 19.793C93.6243 19.7012 93.2813 19.6162 92.9383 19.5222C92.743 19.4685 92.5563 19.3857 92.3761 19.2873C91.5252 18.8241 91.625 17.6403 92.2394 17.1793C92.5672 16.9332 92.9362 16.8302 93.3313 16.7967C93.3964 16.7855 93.4615 16.7899 93.5266 16.7899Z" fill="#B1B1B1"/>
<path d="M95.8088 6.89254C95.9782 6.89254 96.1431 6.89701 96.3059 6.8903C96.4188 6.88582 96.4297 6.97533 96.4579 7.04694C96.612 7.47211 96.764 7.89952 96.9181 8.32469C97.248 9.24665 97.5932 10.1641 97.8971 11.095C97.9036 11.1152 97.9145 11.1353 97.9253 11.1599C97.9861 11.1152 97.9883 11.048 98.0078 10.9876C98.4268 9.67182 98.8978 8.37393 99.345 7.06932C99.408 6.88358 99.3689 6.89254 99.586 6.8903C99.7162 6.8903 99.8443 6.8903 99.9854 6.8903C99.9528 7.09393 99.8703 7.25953 99.8096 7.43183C99.2234 9.05868 98.6352 10.6833 98.0447 12.3079C97.9883 12.4601 97.9232 12.61 97.8515 12.7577C97.5975 13.2925 97.1612 13.4939 96.6055 13.4603C96.2191 13.4357 96.2126 13.4245 96.2169 13.0352C96.2169 12.9837 96.2169 12.9322 96.2169 12.8651C96.3363 12.8852 96.4405 12.9031 96.5426 12.9166C96.9268 12.968 97.2111 12.8203 97.3805 12.4668C97.4673 12.2877 97.5259 12.0931 97.5975 11.9073C97.6366 11.8044 97.591 11.7171 97.5585 11.6276C97.1634 10.5714 96.7683 9.51518 96.3732 8.45896C96.2017 8.00022 96.0303 7.54148 95.8588 7.08274C95.8349 7.02904 95.811 6.97533 95.8088 6.89254Z" fill="#B1B1B1"/>
<path d="M78.5396 27.2809C78.4766 27.319 78.4332 27.31 78.3898 27.31C78.2595 27.31 78.1184 27.3391 78.0012 27.2966C77.8666 27.2474 77.897 27.0661 77.8449 26.9498C77.63 26.4664 77.2588 26.2292 76.7574 26.1867C76.2581 26.1442 75.8066 26.2449 75.4484 26.6365C75.2921 26.8065 75.1749 27.0057 75.1011 27.225C74.8406 28.0015 74.8319 28.778 75.1576 29.5344C75.4115 30.1251 75.8609 30.4429 76.5012 30.4518C76.8355 30.4563 77.1481 30.3981 77.426 30.1945C77.7386 29.964 77.9079 29.6418 77.9773 29.2636C78.0012 29.1293 78.0468 29.0823 78.1727 29.098C78.2161 29.1047 78.2595 29.098 78.303 29.098C78.5917 29.098 78.5895 29.098 78.5244 29.4023C78.3854 30.0647 78.0446 30.5727 77.4195 30.8188C76.3819 31.2261 75.0186 30.9441 74.515 29.5388C74.1938 28.6415 74.2133 27.7397 74.617 26.867C75.0599 25.9092 75.9868 25.5512 76.8855 25.6742C77.0721 25.7011 77.2567 25.7369 77.4325 25.8108C78.0729 26.0838 78.4158 26.5895 78.5396 27.2809Z" fill="#B1B1B1"/>
<path d="M95.3264 11.288C95.3654 11.4312 95.3416 11.5722 95.3437 11.7109C95.3459 11.7758 95.3003 11.8005 95.2482 11.8139C94.9465 11.8855 94.6469 11.9056 94.3538 11.7848C94.0955 11.6774 93.9566 11.4715 93.9153 11.194C93.9002 11.0911 93.9023 10.9859 93.9023 10.8807C93.9023 9.80662 93.9023 8.73251 93.9023 7.66062C93.9023 7.60916 93.9002 7.55545 93.9023 7.50398C93.9067 7.41671 93.8676 7.38538 93.7851 7.38538C93.618 7.38762 93.453 7.38762 93.2858 7.38538C93.1035 7.38314 93.1773 7.23545 93.1816 7.15266C93.186 7.06315 93.0926 6.9065 93.2837 6.89755C93.4269 6.89084 93.5724 6.89755 93.7178 6.89531C93.898 6.89308 93.9002 6.89308 93.9002 6.71182C93.9023 6.34707 93.9002 5.98008 93.9002 5.61532C93.9002 5.34903 93.885 5.37365 94.1324 5.37365C94.4732 5.37141 94.4732 5.37141 94.4732 5.72721C94.4732 6.06287 94.4711 6.39853 94.4732 6.7342C94.4754 6.89084 94.4776 6.89308 94.6317 6.89531C94.8271 6.89755 95.0224 6.89979 95.2178 6.89531C95.3198 6.89308 95.3589 6.92888 95.3567 7.03629C95.3502 7.47042 95.3915 7.37867 95.0333 7.38762C94.8813 7.39209 94.7294 7.38986 94.5774 7.38762C94.5058 7.38762 94.4689 7.41671 94.4732 7.49279C94.4754 7.53755 94.4732 7.5823 94.4732 7.62706C94.4732 8.68551 94.4797 9.74397 94.4689 10.8024C94.4646 11.2656 94.6512 11.3753 95.0398 11.3372C95.1353 11.3261 95.2265 11.3037 95.3264 11.288Z" fill="#B1B1B1"/>
<path d="M86.6189 17.4894C86.4083 17.4603 86.2086 17.4759 86.0132 17.5319C85.4315 17.6997 84.9908 18.2591 84.9322 18.9014C84.9235 19.0043 84.9213 19.1095 84.9213 19.2147C84.9213 20.0874 84.9213 20.9579 84.9213 21.8306C84.9213 21.8821 84.9192 21.9358 84.9213 21.9872C84.9235 22.0745 84.8801 22.1058 84.802 22.1036C84.6782 22.1013 84.5567 22.1013 84.4329 22.1036C84.3526 22.1058 84.3092 22.0745 84.3135 21.9872C84.3157 21.9358 84.3135 21.8821 84.3135 21.8306C84.3135 20.2731 84.3135 18.7156 84.3135 17.1604C84.3135 17.1447 84.3135 17.1313 84.3135 17.1157C84.3157 16.8964 84.3157 16.8941 84.5263 16.8964C84.6478 16.8986 84.7976 16.8427 84.8823 16.9254C84.9778 17.0172 84.9127 17.1783 84.9192 17.3103C84.9257 17.467 84.9213 17.6214 84.9213 17.7959C85.0125 17.7646 85.0299 17.6863 85.0668 17.6303C85.4011 17.1559 85.8374 16.8762 86.417 16.8628C86.4604 16.8628 86.5038 16.865 86.5472 16.8673C86.608 16.8717 86.6384 16.9053 86.6362 16.968C86.6297 17.1403 86.6536 17.3103 86.6189 17.4894Z" fill="#B1B1B1"/>
<path d="M74.3291 7.74512C74.4789 7.57281 74.5961 7.40274 74.7481 7.264C75.0541 6.98652 75.4123 6.85449 75.8182 6.85449C75.9289 6.85449 75.9789 6.89925 75.9702 7.01337C75.968 7.02904 75.9702 7.04246 75.9702 7.05813C75.9615 7.17673 76.0136 7.31547 75.9463 7.40722C75.879 7.5012 75.7444 7.43183 75.6402 7.44078C74.9499 7.5012 74.3921 8.08749 74.3356 8.82595C74.3269 8.94455 74.3269 9.06315 74.3269 9.18399C74.3269 10.003 74.3269 10.822 74.3269 11.6433C74.3269 11.8245 74.3248 11.8245 74.1468 11.829C74.0447 11.8312 73.9449 11.8268 73.8429 11.829C73.7712 11.829 73.7365 11.7954 73.7408 11.7216C73.743 11.6768 73.7408 11.6321 73.7408 11.5873C73.7408 10.1059 73.7408 8.62231 73.7408 7.14092C73.7408 6.88135 73.7235 6.89925 73.9731 6.89925C74.3269 6.89925 74.3269 6.89925 74.3269 7.264C74.3291 7.42064 74.3291 7.58176 74.3291 7.74512Z" fill="#B1B1B1"/>
<path d="M91.1177 7.73695C91.1655 7.66758 91.2132 7.59821 91.2632 7.52884C91.5801 7.09919 91.9969 6.86646 92.5244 6.85527C92.7002 6.8508 92.7045 6.85975 92.7089 7.04101C92.7089 7.05667 92.7089 7.0701 92.7089 7.08576C92.7002 7.19541 92.7501 7.32744 92.6828 7.41024C92.6177 7.49079 92.4918 7.43261 92.3941 7.43933C91.7082 7.48856 91.1416 8.08604 91.0873 8.82225C91.0787 8.94086 91.0786 9.06169 91.0786 9.18029C91.0786 9.9926 91.0786 10.8049 91.0786 11.6172C91.0786 11.8231 91.0765 11.8231 90.8768 11.8253C90.7834 11.8253 90.6879 11.8231 90.5946 11.8253C90.5208 11.8253 90.4904 11.7917 90.4925 11.7157C90.4947 11.6709 90.4925 11.6262 90.4925 11.5814C90.4925 10.0978 90.4925 8.61414 90.4925 7.13052C90.4925 7.10814 90.4925 7.08576 90.4925 7.06338C90.4969 6.89779 90.4969 6.89332 90.6662 6.89332C90.7943 6.89555 90.9549 6.83737 91.0439 6.92017C91.1373 7.00744 91.0721 7.17527 91.0786 7.30506C91.0852 7.4438 91.0808 7.5803 91.0808 7.71904C91.0917 7.73023 91.1047 7.73247 91.1177 7.73695Z" fill="#B1B1B1"/>
<path d="M43.2859 29.9496C43.0732 29.8198 42.9994 29.6028 42.9429 29.3768C42.8301 28.9337 42.804 28.4794 42.7801 28.0252C42.7237 26.9533 42.7107 25.8792 42.6065 24.8095C42.537 24.0979 42.4372 23.3908 42.2526 22.6971C41.9314 21.4842 41.3192 20.475 40.3098 19.7433C39.9364 19.4725 39.5305 19.2577 39.1072 19.0809C39.0551 19.0585 38.9857 19.0495 38.99 18.9712C38.9943 18.9086 39.0551 18.8974 39.0985 18.875C39.1181 18.8638 39.1376 18.8571 39.1572 18.8459C39.8062 18.5237 40.4118 18.1365 40.9502 17.6398C42.1875 16.4963 42.8279 15.0596 42.9082 13.3522C42.9429 13.1978 42.9104 13.0412 42.9256 12.8868C42.9408 12.7413 42.8756 12.6541 42.7671 12.5713C42.3243 12.2378 41.8749 11.9089 41.4299 11.5799C39.0725 9.84346 36.7129 8.1092 34.3576 6.37047C33.9408 6.06166 33.5414 5.73048 33.0921 5.4709C32.6731 5.44628 32.252 5.44628 31.833 5.46866C31.7288 5.52013 31.6268 5.5716 31.5313 5.64097C30.0248 6.75089 28.5183 7.85858 27.014 8.97074C25.3685 10.1881 23.7209 11.4009 22.069 12.6093C21.8932 12.7391 21.8215 12.8801 21.8215 13.1106C21.828 18.7765 21.8259 24.4425 21.828 30.1085C21.828 30.1891 21.8042 30.2719 21.8498 30.3479C21.9366 30.3502 22.0234 30.3546 22.1102 30.3546C24.2658 30.3546 26.4214 30.3546 28.5791 30.3546C28.629 30.3546 28.6811 30.3502 28.731 30.3546C28.8374 30.3636 28.8982 30.3323 28.883 30.207C28.8765 30.1555 28.883 30.1018 28.883 30.0503C28.883 27.365 28.883 24.6797 28.883 21.9944C28.883 21.934 28.8873 21.8758 28.883 21.8154C28.8743 21.7058 28.9242 21.6677 29.0241 21.6767C29.074 21.6811 29.1261 21.6767 29.176 21.6767C30.1529 21.6767 31.1297 21.6767 32.1066 21.6767C32.4322 21.6767 32.7578 21.7013 33.0769 21.7595C33.9256 21.9161 34.5704 22.3704 34.9785 23.1648C35.1369 23.4758 35.2585 23.8025 35.354 24.1382C35.6253 25.0892 35.7078 26.0694 35.7838 27.0495C35.8381 27.77 35.8685 28.4928 35.964 29.2089C36.0052 29.511 36.0573 29.8131 36.1832 30.0928C36.2614 30.2696 36.3742 30.3546 36.5848 30.3546C38.7556 30.3457 40.9263 30.3502 43.0971 30.3502C43.147 30.3502 43.1991 30.3502 43.249 30.3502C43.2772 30.3502 43.3076 30.3479 43.3272 30.3211C43.3597 30.2786 43.338 29.9809 43.2859 29.9496ZM35.7035 14.6591C35.5385 15.2924 35.1782 15.7645 34.6181 16.0711C34.1167 16.3464 33.5718 16.4672 33.0096 16.4761C32.0762 16.4918 31.1427 16.4829 30.2093 16.4851C29.8251 16.4851 29.443 16.4851 29.0588 16.4851C28.8808 16.4851 28.8786 16.4829 28.8786 16.3016C28.8786 15.4736 28.8786 14.6457 28.8786 13.8177C28.8786 13.0188 28.8786 12.2222 28.8786 11.4233C28.8786 11.3718 28.8808 11.3181 28.8786 11.2667C28.8765 11.1883 28.9155 11.1615 28.9872 11.1637C29.0306 11.166 29.074 11.1637 29.1174 11.1637C30.3265 11.1637 31.5335 11.1593 32.7426 11.166C33.3026 11.1682 33.854 11.2353 34.375 11.4681C35.2498 11.8597 35.6991 12.5646 35.7816 13.529C35.8142 13.9072 35.8012 14.2876 35.7035 14.6591Z" fill="#B1B1B1"/>
<path d="M20.5422 12.4586C20.3555 11.4068 20.0104 10.4155 19.4525 9.51146C18.2499 7.55567 16.5155 6.3719 14.3512 5.82141C13.2724 5.54617 12.174 5.44995 11.0647 5.45219C7.46995 5.45666 3.87519 5.45442 0.280426 5.45442C-0.0256501 5.45442 0.00474047 5.4231 0.00474047 5.74533C0.00474047 13.3872 0.00474047 21.0291 0.00474047 28.6733C0.00474047 28.7561 0.0112527 28.8366 0.0155942 28.9194C0.115449 28.9776 0.178401 28.8948 0.245694 28.8478C0.410671 28.727 0.573477 28.6062 0.738455 28.4853C2.76811 26.9972 4.78691 25.4957 6.81656 24.0053C6.90339 23.9405 6.99456 23.8778 7.04449 23.7726C7.04666 23.5041 7.051 23.2356 7.05317 22.9693C7.05534 22.7589 7.05751 22.7544 7.25939 22.7567C7.71525 22.7589 8.16894 22.7679 8.62479 22.7746C9.86864 22.7903 11.1146 22.7544 12.3585 22.7522C12.4301 22.7522 12.4475 22.7522 12.5669 22.7522C12.48 22.656 12.365 22.6896 12.2608 22.6896C11.119 22.6873 9.97717 22.6873 8.83536 22.6873C8.77675 22.6873 8.71597 22.7007 8.64216 22.6672C9.66676 21.9153 10.674 21.1791 11.6769 20.4339C14.5097 18.3304 17.3599 16.2538 20.1927 14.1503C20.362 14.025 20.5509 13.9243 20.6833 13.7498C20.6877 13.3089 20.6182 12.8815 20.5422 12.4586ZM13.3809 15.6272C12.9989 16.4395 12.3476 16.8848 11.501 17.0571C11.2861 17.0997 11.0712 17.1086 10.8542 17.1064C10.305 17.1041 9.75576 17.1064 9.20438 17.1064C8.55316 17.1064 7.90193 17.1064 7.25288 17.1064C7.05534 17.1064 7.05317 17.1041 7.05317 16.8938C7.05317 15.164 7.05317 13.4342 7.05317 11.7045C7.05317 11.6597 7.05317 11.6149 7.05534 11.5702C7.05968 11.5098 7.09007 11.474 7.15085 11.4717C7.20078 11.4695 7.25288 11.4695 7.30281 11.4695C8.46633 11.4695 9.63202 11.465 10.7955 11.4717C11.2753 11.474 11.7463 11.5433 12.1913 11.7403C13.0379 12.114 13.5003 12.7875 13.6392 13.7095C13.7391 14.3741 13.6653 15.0186 13.3809 15.6272Z" fill="#B1B1B1"/>
<path d="M73.6081 21.3286C73.5799 21.069 73.556 20.8094 73.5495 20.5499C73.543 20.3261 73.5191 20.1046 73.4887 19.883C73.4041 19.2922 73.1653 18.8156 72.5271 18.6053C72.6703 18.5381 72.7615 18.4978 72.8527 18.4531C73.3389 18.2069 73.6038 17.7974 73.6884 17.2514C73.7297 16.9851 73.7297 16.7166 73.6863 16.4503C73.569 15.7432 73.1957 15.2554 72.5249 15.0293C72.2622 14.9398 71.9887 14.9085 71.713 14.9085C70.7665 14.9085 69.8179 14.9085 68.8714 14.9085C68.5892 14.9085 68.6196 14.8794 68.6196 15.1748C68.6196 17.3879 68.6196 19.6033 68.6196 21.8164C68.6196 21.8679 68.6218 21.9216 68.6196 21.9731C68.6153 22.0693 68.6609 22.1051 68.7499 22.1029C68.8736 22.0984 68.9952 22.1051 69.1189 22.1006C69.2687 22.0961 69.2687 22.0939 69.2752 21.9328C69.2774 21.8813 69.2752 21.8276 69.2752 21.7761C69.2752 20.8811 69.2752 19.9882 69.2752 19.0931C69.2752 18.8939 69.2774 18.8917 69.464 18.8917C70.15 18.8917 70.8382 18.8939 71.5241 18.8939C71.6783 18.8939 71.8281 18.9163 71.9757 18.9476C72.3686 19.0327 72.6356 19.2699 72.7615 19.6682C72.8136 19.8315 72.8527 19.9994 72.8635 20.1694C72.8939 20.5924 72.92 21.0176 72.9504 21.4405C72.9634 21.6106 72.9808 21.7829 73.0372 21.944C73.0611 22.0156 73.0958 22.0961 73.1783 22.0984C73.391 22.1029 73.606 22.123 73.8404 22.0827C73.6798 21.841 73.6363 21.5859 73.6081 21.3286ZM72.2014 18.2114C72.0104 18.2786 71.8107 18.3121 71.6066 18.3121C70.8924 18.3121 70.1761 18.3121 69.4619 18.3121C69.2752 18.3121 69.273 18.3099 69.273 18.113C69.2709 17.7102 69.273 17.3096 69.273 16.9068C69.273 16.4973 69.2709 16.0878 69.273 15.6783C69.273 15.5082 69.2774 15.5037 69.4445 15.5037C70.1804 15.5015 70.9185 15.4993 71.6544 15.506C71.8129 15.506 71.9713 15.5261 72.1255 15.5642C72.6226 15.6828 72.9156 15.996 73.0003 16.5174C73.0415 16.7703 73.0437 17.0187 72.9981 17.2716C72.9135 17.7482 72.6399 18.0548 72.2014 18.2114Z" fill="#B1B1B1"/>
<path d="M83.3858 14.9086C83.2859 14.9153 83.1839 14.9086 83.0819 14.9109C82.9321 14.9153 82.9299 14.9153 82.9299 15.0764C82.9278 15.6068 82.9299 16.1349 82.9299 16.6652C82.9299 17.0076 82.9299 17.35 82.9299 17.7125C82.8496 17.6767 82.8322 17.623 82.804 17.5827C82.4458 17.0636 81.9509 16.8107 81.3431 16.795C80.4596 16.7704 79.7997 17.1777 79.422 17.9922C78.977 18.9477 78.9791 19.9435 79.3612 20.9214C79.6564 21.6778 80.21 22.1343 81.0088 22.2283C81.7338 22.3133 82.3525 22.1074 82.8084 21.4876C82.8366 21.4495 82.8496 21.3914 82.9278 21.3936C82.9278 21.5144 82.9278 21.6308 82.9278 21.7494C82.9278 22.1097 82.9278 22.1097 83.2664 22.1074C83.5681 22.1074 83.5377 22.1365 83.5377 21.8367C83.5377 19.6213 83.5377 17.4082 83.5377 15.1928C83.5377 15.1481 83.5334 15.1033 83.5377 15.0585C83.5529 14.931 83.4922 14.9019 83.3858 14.9086ZM82.7997 20.6305C82.4545 21.5771 81.6318 21.8367 80.9241 21.6688C80.5182 21.5726 80.2338 21.3108 80.0341 20.9438C79.8344 20.5791 79.7606 20.1763 79.7302 19.7668C79.702 19.3707 79.7411 18.9791 79.8431 18.5942C79.8822 18.451 79.9365 18.3122 79.9994 18.178C80.5378 17.0099 82.0139 17.1083 82.5848 18.0057C82.8344 18.3973 82.9364 18.8336 82.9712 19.2924C82.9777 19.3729 82.9712 19.4557 82.9712 19.5385C82.982 19.9122 82.9278 20.277 82.7997 20.6305Z" fill="#B1B1B1"/>
<path d="M73.2166 6.55694C73.1103 5.861 72.7391 5.39107 72.103 5.14268C71.8295 5.03527 71.543 5.00618 71.2521 5.00842C70.4706 5.01066 69.6913 5.00842 68.9098 5.00842C68.8512 5.00842 68.7948 5.01066 68.7362 5.00842C68.6559 5.00618 68.6146 5.03751 68.619 5.12702C68.6211 5.17849 68.619 5.23219 68.619 5.28366C68.619 6.32645 68.619 7.36924 68.619 8.41427C68.619 9.46601 68.619 10.5155 68.619 11.5673C68.619 11.6187 68.6211 11.6724 68.619 11.7239C68.6168 11.8 68.6537 11.8291 68.7253 11.8291C68.8621 11.8268 69.001 11.8268 69.1378 11.8291C69.2224 11.8313 69.2572 11.7933 69.2507 11.7082C69.2485 11.6568 69.2507 11.6031 69.2507 11.5516C69.2507 10.7236 69.2507 9.8979 69.2507 9.06993C69.2507 8.86853 69.2528 8.86629 69.4547 8.86629C70.0321 8.86629 70.6117 8.86629 71.1891 8.86629C71.5386 8.86629 71.8816 8.81483 72.2072 8.6828C72.6804 8.49035 73.0017 8.14798 73.1472 7.64225C73.247 7.28421 73.2731 6.92393 73.2166 6.55694ZM72.5415 7.44309C72.3874 7.97343 71.9967 8.20392 71.4974 8.28224C71.3259 8.3091 71.1522 8.31805 70.9786 8.31805C70.4576 8.31357 69.9388 8.31805 69.4178 8.31581C69.2528 8.31581 69.2507 8.31133 69.2485 8.14126C69.2463 7.73847 69.2485 7.33568 69.2485 6.93512C69.2485 6.54128 69.2463 6.14519 69.2485 5.75135C69.2485 5.57233 69.2507 5.57009 69.4091 5.56786C70.0169 5.56562 70.6226 5.56338 71.2304 5.57009C71.404 5.57233 71.5755 5.59695 71.7427 5.64841C72.1877 5.78715 72.4764 6.0803 72.5697 6.55918C72.6283 6.85456 72.6262 7.15218 72.5415 7.44309Z" fill="#B1B1B1"/>
<path d="M85.0064 8.06008C84.7221 7.27911 84.0643 6.71744 83.0723 6.79352C82.5274 6.83604 82.0933 7.07995 81.7633 7.52303C81.7264 7.57449 81.6895 7.62596 81.6526 7.67743C81.6135 7.52526 81.6135 7.38652 81.6135 7.24778C81.6135 6.88974 81.6135 6.88974 81.2749 6.88974C81.0057 6.88974 81.0296 6.86513 81.0296 7.14037C81.0296 9.09392 81.0296 11.0452 81.0296 12.9988C81.0296 13.4284 81.0296 13.4284 81.4464 13.4128C81.6092 13.4083 81.6135 13.4083 81.6135 13.2315C81.6157 12.6206 81.6135 12.0097 81.6157 11.3988C81.6157 11.325 81.6027 11.2511 81.6396 11.1459C81.7025 11.222 81.7481 11.278 81.7937 11.3317C81.9978 11.5733 82.2452 11.7546 82.5426 11.8464C83.5195 12.1417 84.5614 11.824 85.0021 10.6559C85.3255 9.80105 85.3212 8.92162 85.0064 8.06008ZM84.4507 10.4948C84.3552 10.7409 84.2206 10.9557 84.0296 11.1347C83.4695 11.6584 82.3755 11.5219 81.9239 10.8148C81.7459 10.535 81.6396 10.2262 81.6005 9.89951C81.5419 9.43854 81.5462 8.97756 81.6765 8.52777C81.7915 8.13393 81.9826 7.78932 82.3169 7.54764C83.0267 7.03296 83.9731 7.26792 84.3726 8.06008C84.5527 8.41812 84.6352 8.83211 84.6352 9.41616C84.6417 9.76301 84.5875 10.1367 84.4507 10.4948Z" fill="#B1B1B1"/>
<path d="M87.4951 19.6143C88.1094 19.6121 88.7237 19.6143 89.338 19.6143C89.8872 19.6143 90.4364 19.6143 90.9857 19.6143C91.1441 19.6143 91.1463 19.6098 91.1463 19.4554C91.142 18.9273 91.0595 18.4171 90.838 17.9382C90.6079 17.437 90.2541 17.0655 89.7353 16.8977C88.6825 16.5598 87.469 16.9044 86.9372 18.1889C86.5964 19.0124 86.5985 19.8582 86.8786 20.6996C87.0631 21.2568 87.4017 21.6932 87.914 21.9684C88.3916 22.2235 88.9039 22.275 89.4335 22.2034C90.2715 22.0915 90.9379 21.4291 91.0812 20.534C90.9401 20.534 90.8185 20.534 90.6969 20.534C90.5146 20.5363 90.5124 20.5363 90.4495 20.7063C90.3236 21.0532 90.126 21.3374 89.8048 21.5186C89.6029 21.6305 89.3836 21.6798 89.16 21.6909C88.524 21.72 87.9965 21.5097 87.647 20.9279C87.4408 20.5833 87.3561 20.2006 87.3236 19.8045C87.3084 19.6188 87.3127 19.6143 87.4951 19.6143ZM87.7186 17.945C88.2006 17.2334 89.1362 17.1461 89.7353 17.4817C90.0132 17.6361 90.1977 17.8801 90.3257 18.1732C90.443 18.4417 90.4842 18.7282 90.5124 19.0191C90.5189 19.084 90.4951 19.1175 90.4299 19.1175C90.393 19.1175 90.3583 19.1175 90.3214 19.1175C89.388 19.1175 88.4567 19.1175 87.5233 19.1175C87.4603 19.1175 87.393 19.1332 87.3279 19.0884C87.3757 18.6767 87.4842 18.2896 87.7186 17.945Z" fill="#B1B1B1"/>
<path d="M75.0126 19.6155C76.111 19.6155 77.2116 19.6155 78.31 19.6155C78.3534 19.6155 78.3968 19.6155 78.4402 19.6155C78.6204 19.6133 78.6269 19.6066 78.6182 19.4298C78.6117 19.3023 78.6052 19.177 78.5922 19.0516C78.5488 18.6175 78.4489 18.2013 78.2427 17.8164C78.0278 17.4114 77.7217 17.0981 77.2963 16.9347C76.3086 16.5588 75.0409 16.8184 74.4634 18.0558C74.0184 19.0091 74.0293 19.9915 74.4461 20.9537C74.7109 21.5646 75.1776 21.9629 75.8071 22.1397C76.1371 22.2337 76.4757 22.2539 76.8165 22.2113C77.5329 22.1218 78.0582 21.7571 78.3751 21.0835C78.4533 20.9179 78.5206 20.7479 78.5379 20.5509C78.4012 20.5174 78.2709 20.5442 78.1428 20.5308C78.0148 20.5174 77.9496 20.5644 77.9084 20.6964C77.7999 21.0388 77.6002 21.3185 77.2897 21.502C77.077 21.6295 76.8447 21.6788 76.606 21.6899C75.9591 21.7213 75.386 21.4729 75.0561 20.8351C74.8998 20.533 74.8281 20.2086 74.7869 19.8751C74.7565 19.6178 74.7587 19.6155 75.0126 19.6155ZM75.3752 17.7157C75.9656 17.1026 77.4113 17.0399 77.8368 18.2863C77.9149 18.5123 77.9475 18.7473 77.9779 18.9845C77.9887 19.0785 77.9605 19.1255 77.8628 19.1165C77.8259 19.1143 77.7912 19.1165 77.7543 19.1165C76.8361 19.1165 75.9178 19.1165 75.0018 19.1165C74.9388 19.1165 74.8737 19.1165 74.7934 19.1165C74.8498 18.5728 75.0061 18.0984 75.3752 17.7157Z" fill="#B1B1B1"/>
<path d="M84.4935 28.4282C84.7041 28.426 84.9125 28.4282 85.123 28.4282C85.9978 28.4282 86.8727 28.4282 87.7496 28.4282C87.971 28.4282 87.9732 28.426 87.9667 28.1933C87.9558 27.7278 87.8777 27.2735 87.691 26.8461C87.4653 26.327 87.1114 25.9376 86.5709 25.7653C85.4725 25.4162 84.2591 25.8615 83.7989 27.1617C83.521 27.9449 83.5362 28.7415 83.8054 29.5269C83.9356 29.9051 84.144 30.2385 84.4566 30.4869C85.173 31.0553 85.9696 31.1336 86.7923 30.8092C87.4284 30.5563 87.7648 30.0215 87.9124 29.3211C87.7627 29.3211 87.6346 29.33 87.5065 29.3188C87.3849 29.3076 87.3242 29.3524 87.2873 29.4732C87.2091 29.7351 87.0702 29.9588 86.8661 30.1379C86.6057 30.3683 86.2952 30.4467 85.9609 30.4556C85.301 30.4735 84.7974 30.2095 84.4827 29.6008C84.3416 29.3278 84.2613 29.0324 84.2395 28.7258C84.2113 28.3812 84.2092 28.4305 84.4935 28.4282ZM84.2482 27.7748C84.3134 27.3899 84.4284 27.0229 84.6737 26.7163C85.0123 26.2912 85.4595 26.1323 85.9805 26.1703C86.877 26.233 87.2221 26.9289 87.3177 27.5891C87.3263 27.6472 87.3328 27.7077 87.3394 27.7658C87.3589 27.9314 87.3546 27.9381 87.1831 27.9404C86.7207 27.9426 86.2583 27.9404 85.7981 27.9404C85.3293 27.9404 84.8604 27.9426 84.3915 27.9404C84.2309 27.9359 84.2222 27.9225 84.2482 27.7748Z" fill="#B1B1B1"/>
<path d="M96.4209 28.4299C96.5729 28.4277 96.7248 28.4299 96.8768 28.4299C97.8536 28.4299 98.8305 28.4299 99.8073 28.4299C99.9983 28.4299 99.9983 28.4277 99.9983 28.233C99.994 27.7966 99.9224 27.3715 99.7704 26.9664C99.625 26.5771 99.3992 26.2436 99.0606 26.002C98.2596 25.4268 96.6597 25.4604 95.9694 26.8478C95.5331 27.725 95.5309 28.6403 95.8479 29.5577C96.0302 30.0836 96.3645 30.4864 96.8508 30.7415C97.248 30.9496 97.6735 31.0078 98.1141 30.9854C99.041 30.9384 99.7509 30.3051 99.9311 29.3429C99.8138 29.3093 99.7053 29.3272 99.5968 29.325C99.3493 29.3228 99.3819 29.3138 99.3015 29.5264C99.2104 29.7658 99.0866 29.9784 98.8891 30.1463C98.6243 30.3723 98.316 30.4506 97.9817 30.4595C97.35 30.4774 96.8551 30.2268 96.536 29.6562C96.3558 29.334 96.2755 28.9782 96.256 28.6089C96.2495 28.4344 96.256 28.4321 96.4209 28.4299ZM96.2994 27.6691C96.3667 27.3289 96.4796 27.0112 96.6901 26.7359C97.0331 26.2906 97.4955 26.125 98.0316 26.1698C98.8522 26.2392 99.2212 26.8366 99.3406 27.5438C99.3493 27.5952 99.3536 27.6467 99.3601 27.6982C99.3971 27.9376 99.397 27.9398 99.1691 27.9398C98.7219 27.9398 98.2748 27.9398 97.8254 27.9398C97.3913 27.9398 96.9593 27.9398 96.5251 27.9398C96.2256 27.9398 96.243 27.9555 96.2994 27.6691Z" fill="#B1B1B1"/>
<path d="M86.3968 9.47698C86.4467 9.47922 86.4988 9.47698 86.5487 9.47698C87.582 9.47698 88.6175 9.47698 89.6508 9.47698C89.7007 9.47698 89.7528 9.47474 89.8027 9.47698C89.9004 9.48369 89.9264 9.43223 89.9243 9.34048C89.9199 8.79671 89.8309 8.27307 89.5835 7.78524C89.3751 7.3735 89.0668 7.06469 88.637 6.91029C87.6645 6.55896 86.4966 6.86777 85.9778 7.99783C85.5719 8.88174 85.5741 9.79026 85.9409 10.6854C86.2058 11.3298 86.6898 11.7326 87.3541 11.8937C87.6016 11.9542 87.8555 11.9654 88.1095 11.9519C89.0104 11.8982 89.6963 11.2739 89.857 10.3407C89.7528 10.3407 89.6681 10.3407 89.5813 10.3407C89.323 10.3407 89.323 10.3407 89.2275 10.5802C89.0603 11.0009 88.7738 11.2851 88.3418 11.3925C88.2224 11.4216 88.0987 11.444 87.9771 11.444C87.3867 11.4507 86.9026 11.2403 86.5878 10.701C86.3881 10.3609 86.3186 9.98271 86.2817 9.59334C86.2752 9.50607 86.3186 9.47474 86.3968 9.47698ZM86.3165 8.8258C86.3729 8.45209 86.4966 8.10524 86.7267 7.80538C87.1978 7.19448 88.0813 7.13854 88.6175 7.46748C88.7629 7.55699 88.8845 7.67112 88.9822 7.81433C89.1949 8.12986 89.2861 8.48566 89.3143 8.86384C89.323 8.97572 89.2817 9.00482 89.1797 9.00482C88.7173 9.00034 88.2528 9.00258 87.7904 9.00258C87.3498 9.00258 86.9069 9.00482 86.4662 9.00258C86.2969 9.00034 86.2904 8.99586 86.3165 8.8258Z" fill="#B1B1B1"/>
<path d="M80.4487 8.53678C80.1882 7.47162 79.4523 6.87637 78.5949 6.7891C77.6137 6.68617 76.728 7.16504 76.3351 8.14965C76.1028 8.72923 76.0573 9.33566 76.1593 9.95104C76.3655 11.1908 77.223 12.021 78.4776 11.9493C79.1093 11.9135 79.6368 11.6517 80.0232 11.1236C80.4009 10.6089 80.5333 10.0137 80.542 9.38041C80.5507 9.09174 80.516 8.81203 80.4487 8.53678ZM79.639 10.694C79.0746 11.7121 77.5659 11.7144 77.0059 10.6537C76.8691 10.3941 76.7801 10.1211 76.7454 9.8302C76.6759 9.27524 76.7107 8.72923 76.9386 8.21007C77.427 7.10015 78.6556 7.09344 79.2591 7.58127C79.6129 7.8677 79.7888 8.2593 79.8908 8.6979C79.9407 8.91049 79.9407 9.12755 79.9581 9.3379C79.9472 9.81678 79.8713 10.271 79.639 10.694Z" fill="#B1B1B1"/>
<path d="M12.5432 22.7822C12.4563 22.7778 12.3673 22.7822 12.2827 22.7822C11.0909 22.7822 9.8992 22.771 8.70528 22.771C8.63582 22.771 8.56635 22.771 8.46216 22.771C8.63365 22.5831 8.8225 22.4757 8.99182 22.3481C9.85795 21.7059 10.7306 21.0748 11.5967 20.4371C12.7776 19.5688 13.9542 18.6984 15.1329 17.8301C15.9361 17.2371 16.7392 16.6486 17.5402 16.0556C18.5475 15.3104 19.5525 14.563 20.5576 13.8178C20.588 13.7954 20.6205 13.782 20.6574 13.7798C20.7313 14.2788 20.6878 14.7778 20.6444 15.2746C20.5706 16.1249 20.3818 16.9507 20.0583 17.7406C19.0815 20.1216 17.3688 21.6634 14.9809 22.4152C14.1886 22.6659 13.3746 22.7889 12.5432 22.7822Z" fill="#B1B1B1"/>
</svg>
